<svg xmlns="http://www.w3.org/2000/svg" viewBox="66 357 117 128">
  <defs>
    <style>
      .cls-1,.cls-3{fill:#07f;}
      .cls-2{fill:#e73c3b;}
      .cls-3{fill-rule:evenodd;}
    </style>
  </defs>
  <!-- Нижняя часть (щит/основание) -->
  <path class="cls-1" d="M125.48,444.68l-1,7h5.16v2.26H119v-2.26h3.14l1-7h-44c0,22.15,20.06,40.11,44.82,40.11s44.82-18,44.82-40.11Zm-1.89,39.38a28.85,28.85,0,0,0-8-15.12c5.26-5.11,6.07-13.05,6.07-13.05H124l0,14.1a2.2,2.2,0,0,0,0,4.27l0,9.81Zm1.94,0h-.48l0-9.81a2.2,2.2,0,0,0,0-4.27l0-14.1h2.35s.81,7.94,6.07,13.05A28.85,28.85,0,0,0,125.53,484.06Z"/>
  <!-- Красная часть (правая страница) -->
  <path class="cls-2" d="M168.81,386.07v58.6H125.5l.23-1.58c10.35-14.18,32.6-14.21,32.81-14.21V387.66l4.18-1.59Z"/>
  <!-- Академическая шапочка -->
  <path class="cls-1" d="M183,378.36l-20.26,7.71-4.18,1.59V376.3c-28.71,1.33-34,24.28-34,24.28s-5.28-22.95-34-24.28v11.4l-24.46-9.26,58.43-21.34Z"/>
  <!-- Левая часть книги -->
  <path class="cls-1" d="M123.11,445.22l-43.92-.07V386.64H90.57v42.11h.08c4.07,0,23.9.67,31.93,14l.73,1ZM80.17,444h42.19V444l-.41-.65c-7.71-12.81-27.34-13.46-31.3-13.46H90l-.59,0V387.75H80.17Z"/>
  <!-- Перо -->
  <path class="cls-3" d="M144.71,397.17c-7,10-13.75,25.54-17.09,37.28-.31,1.11-.68,2.21-1,3.32-.17.58-.33,1.17-.48,1.76-.06.27-.13.54-.18.82,0,.1-.19.67-.12.77a.76.76,0,0,1,.17-.23c.56-.56,1.1-1.14,1.64-1.72q3.06-3.29,6.29-6.41c.25-.24.48-.51.72-.77,1.38-1.53,4.28-4.54,4.92-6.13-1.94.51-3.54,1.37-5.85,1.5,1.05-.87,7-3.42,8.72-7.14a2.15,2.15,0,0,1-.54.11l-.54.13-1.05.28c-1.09.29-2.18.51-3.29.7-.58.11.15-.38.3-.46a28.3,28.3,0,0,0,3.12-1.79,20.45,20.45,0,0,0,3.05-2.6,22.23,22.23,0,0,0,2.5-3.14,23.43,23.43,0,0,0,1.51-2.67,20.93,20.93,0,0,0,1.76-5.48c-1.53.59-4.32,2.62-7.25,2.93a18.88,18.88,0,0,1,2.58-1.53c2.73-1.69,4.6-3.17,6.13-6.06,2.38-4.51,2.36-8.43,1.74-13.93-3.08.22-7.67,2.55-9.78,3.94a5.81,5.81,0,0,0-1.45,1.09,6.49,6.49,0,0,0-.84,2.12c-.48,1.53-.92,3.07-1.32,4.63-.1.4-.2.8-.29,1.2a2,2,0,0,0-.09.65,13.47,13.47,0,0,1,.07-3.75c.06-.57.14-1.15.21-1.72,0-.27.08-.53.11-.8a4.41,4.41,0,0,0,.09-.73,1.55,1.55,0,0,0-.29.14,5.8,5.8,0,0,0-1.38,1.19c-.44.47-.93.9-1.35,1.38a3.15,3.15,0,0,0-.77,1.41,1.18,1.18,0,0,0,0,.2c-.38,2.26-.63,5-1.12,7.21a6.62,6.62,0,0,1-.33-1.87c-.06-.9-.06-1.81-.08-2.71,0-.26,0-.52,0-.77a6.61,6.61,0,0,0,0-.77,1.23,1.23,0,0,0-.37.31c-.14.14-.27.27-.39.41-.3.34-.57.7-.84,1.06-.65.88-1.23,1.8-1.8,2.73s-1.17,2-1.72,3c-.47.88-.93,1.77-1.37,2.66l-.36.77c-3.08,6.72-.94,9.51-.81,15.68a20.14,20.14,0,0,1-2.42-8.36l-1,2.56a33.34,33.34,0,0,0-1.11,16.05,18.9,18.9,0,0,0,1.89,5.48c.45-.69,1.57-5.34,1.93-6.58,3.26-11.22,11.12-28.84,18.8-37.5.38-.46.64-.84,1.25-1.59l1.59-1.82"/>
</svg>
