<svg xmlns="http://www.w3.org/2000/svg" width="595" height="842" fill="none" viewBox="0 0 595 842"><g clip-path="url(#a)"><path fill="#fff" d="M0 0h595v842H0z"/><path fill="#07f" d="M18.351 26.572a.94.94 0 0 1 .282-.65.9.9 0 0 1 .67-.28h555.643a.95.95 0 0 1 .664.273.93.93 0 0 1 .275.657l.764 788.369a.95.95 0 0 1-.283.663.97.97 0 0 1-.669.279H20.041a.94.94 0 0 1-.939-.942zm555.643.942H20.269l.764 786.512h553.725z"/><path fill="#07f" d="M496.218 26.572q0-.192.076-.369a.9.9 0 0 1 .219-.308.956.956 0 0 1 1.34 0l77.763 81.842a.934.934 0 0 1-.307 1.531.96.96 0 0 1-1.033-.204l-77.763-81.829a.93.93 0 0 1-.295-.663"/><path fill="#07f" d="M541.373 767.651V74.088c0-.247.099-.483.275-.657a.944.944 0 0 1 1.328 0c.176.174.274.41.274.657V767.65a.92.92 0 0 1-.274.657.945.945 0 0 1-1.328 0 .92.92 0 0 1-.275-.657"/><path fill="#07f" d="M490.546 814.942a.92.92 0 0 1 .295-.677l82.697-76.96a.95.95 0 0 1 .671-.278.94.94 0 0 1 .67.278.92.92 0 0 1 .213 1.025.9.9 0 0 1-.213.302l-82.697 76.96a.93.93 0 0 1-1.341 0 .9.9 0 0 1-.295-.65M18.7 737.305a.9.9 0 0 1 .281-.663.957.957 0 0 1 1.341 0l77.026 77.756a.92.92 0 0 1 0 1.326.96.96 0 0 1-1.341 0l-76.999-77.742a.93.93 0 0 1-.308-.677"/><path fill="#07f" d="M63.508 782.486c0-.246.099-.483.275-.657a.94.94 0 0 1 .663-.272h461.925c.249 0 .488.098.664.272a.93.93 0 0 1 .275.657.9.9 0 0 1-.068.359.93.93 0 0 1-.871.583H64.446a.937.937 0 0 1-.938-.942m478.081-557.24a.935.935 0 0 1 .62-.896.94.94 0 0 1 1.056.299l32.647 39.263a.92.92 0 0 1-.121 1.327.96.96 0 0 1-1.341-.12l-32.62-39.315a.97.97 0 0 1-.241-.558"/><path fill="#07f" d="M541.24 225.247a.9.9 0 0 1 .214-.597l32.634-39.263a.941.941 0 0 1 1.676.494.93.93 0 0 1-.228.687l-32.607 39.236a1 1 0 0 1-.287.235.96.96 0 0 1-.728.065.9.9 0 0 1-.325-.181.9.9 0 0 1-.349-.676"/><path fill="#07f" d="M541.749 147.677a.92.92 0 0 1 .335-.717.95.95 0 0 1 1.341.119l32.62 39.263a.95.95 0 0 1-.12 1.327.98.98 0 0 1-.698.209.96.96 0 0 1-.643-.342l-32.62-39.262a.92.92 0 0 1-.215-.597"/><path fill="#07f" d="M541.374 147.677a.96.96 0 0 1 .215-.597l32.62-39.25a.93.93 0 0 1 1.341-.132.93.93 0 0 1 .313 1.002.9.9 0 0 1-.179.324l-32.634 39.263a.939.939 0 0 1-1.662-.597zm.214 234.553a.955.955 0 0 1 .677-.903.97.97 0 0 1 1.013.306l32.633 39.223a.925.925 0 0 1-.12 1.314.953.953 0 0 1-1.328-.12l-32.633-39.223a.9.9 0 0 1-.242-.597"/><path fill="#07f" d="M541.24 382.23a.9.9 0 0 1 .214-.597l32.634-39.262a.94.94 0 0 1 .639-.332.96.96 0 0 1 .688.212.94.94 0 0 1 .336.632.93.93 0 0 1-.215.682l-32.607 39.263a.94.94 0 0 1-1.015.299 1 1 0 0 1-.326-.18.91.91 0 0 1-.348-.717"/><path fill="#07f" d="M541.749 304.674a.925.925 0 0 1 .619-.879.94.94 0 0 1 1.044.282l32.633 39.262a.94.94 0 0 1 .218.689.94.94 0 0 1-.338.638.94.94 0 0 1-.699.215.95.95 0 0 1-.642-.347l-32.62-39.276a.9.9 0 0 1-.215-.584"/><path fill="#07f" d="M541.374 304.674a.9.9 0 0 1 .215-.584l32.62-39.276a.95.95 0 0 1 .653-.404.97.97 0 0 1 .741.206.934.934 0 0 1 .067 1.393l-32.633 39.249a.94.94 0 0 1-1.038.284.93.93 0 0 1-.625-.868m.214 237.062a.925.925 0 0 1 .62-.897.95.95 0 0 1 1.056.3l32.647 39.262a.94.94 0 0 1 .228.687.92.92 0 0 1-.339.64.943.943 0 0 1-1.337-.146l-32.634-39.249a.97.97 0 0 1-.241-.597"/><path fill="#07f" d="M541.24 541.736a.9.9 0 0 1 .214-.598l32.634-39.262a.94.94 0 0 1 .639-.332.94.94 0 0 1 .919.496.93.93 0 0 1 .066.71.9.9 0 0 1-.176.32l-32.607 39.263a.94.94 0 0 1-1.015.299 1 1 0 0 1-.326-.18.91.91 0 0 1-.348-.716"/><path fill="#07f" d="M541.749 464.179a.925.925 0 0 1 .619-.879.94.94 0 0 1 1.044.282l32.633 39.263a.936.936 0 0 1-.448 1.504.95.95 0 0 1-1.013-.31l-32.62-39.276a.9.9 0 0 1-.215-.584"/><path fill="#07f" d="M541.374 464.179a.9.9 0 0 1 .215-.597l32.62-39.263a.94.94 0 0 1 .636-.338.9.9 0 0 1 .366.035.93.93 0 0 1 .559.452.9.9 0 0 1 .073.71.9.9 0 0 1-.173.322l-32.633 39.263a1 1 0 0 1-.286.238.955.955 0 0 1-1.055-.106.9.9 0 0 1-.322-.716m.214 234.54a.948.948 0 0 1 1.196-.896.95.95 0 0 1 .48.299l32.647 39.263a.92.92 0 0 1 .111 1.03.93.93 0 0 1-.554.457.95.95 0 0 1-1.005-.293l-32.633-39.263a.9.9 0 0 1-.242-.597"/><path fill="#07f" d="M541.24 698.719a.9.9 0 0 1 .214-.597l32.634-39.262a.94.94 0 0 1 .639-.332.96.96 0 0 1 .688.212.94.94 0 0 1 .336.632.93.93 0 0 1-.215.682l-32.607 39.263a.94.94 0 0 1-1.015.299 1 1 0 0 1-.326-.18.9.9 0 0 1-.348-.717"/><path fill="#07f" d="M541.75 621.216a.9.9 0 0 1 .335-.716.93.93 0 0 1 .699-.215.95.95 0 0 1 .642.347l32.62 39.196a.926.926 0 0 1-.121 1.314.95.95 0 0 1-1.327-.119l-32.634-39.276a.9.9 0 0 1-.214-.531"/><path fill="#07f" d="M541.374 621.216a.9.9 0 0 1 .215-.584l32.62-39.329a.95.95 0 0 1 1.327-.133.93.93 0 0 1 .134 1.314l-32.633 39.263a.946.946 0 0 1-1.495-.061.93.93 0 0 1-.168-.536zM332.433 813.495a.98.98 0 0 1 .349-.743l39.618-30.983a.97.97 0 0 1 .73-.271.95.95 0 0 1 .865.713.94.94 0 0 1-.428 1.031l-39.659 30.996a.96.96 0 0 1-1.056.092 1 1 0 0 1-.285-.238.96.96 0 0 1-.134-.597"/><path fill="#07f" d="M372.052 782.486a.93.93 0 0 1 .502-.832.95.95 0 0 1 1.053.116l39.673 32.468a.95.95 0 0 1 .335.633.925.925 0 0 1-.501.91.94.94 0 0 1-.718.064.9.9 0 0 1-.323-.173l-39.686-32.469a.91.91 0 0 1-.335-.717"/><path fill="#07f" d="M411.711 814.942a.98.98 0 0 1 .322-.704l37.366-32.469a.97.97 0 0 1 .714-.311c.134 0 .267.029.389.085a.94.94 0 0 1 .549.973.94.94 0 0 1-.405.66l-37.366 32.469a.95.95 0 0 1-1.341-.08.93.93 0 0 1-.228-.623"/><path fill="#07f" d="M449.078 782.486a.87.87 0 0 1 .201-.558.95.95 0 0 1 1.005-.352.9.9 0 0 1 .335.167l41.014 30.757a.93.93 0 0 1 .345.997.9.9 0 0 1-.171.33.92.92 0 0 1-.633.374.93.93 0 0 1-.708-.202l-41.013-30.77a.93.93 0 0 1-.375-.743m-275.335 32.456a.91.91 0 0 1 .335-.704l38.09-32.469a.947.947 0 0 1 1.369.059.92.92 0 0 1-.149 1.348l-38.077 32.482a.95.95 0 0 1-1.015.138.94.94 0 0 1-.553-.854"/><path fill="#07f" d="M213.415 782.486a.9.9 0 0 1 .202-.571.947.947 0 0 1 1.34-.159l41.63 32.469a.93.93 0 0 1 .365.63.92.92 0 0 1-.204.697.95.95 0 0 1-.637.355.95.95 0 0 1-.704-.196l-41.63-32.482a1 1 0 0 1-.362-.743"/><path fill="#07f" d="M255.045 814.941a.92.92 0 0 1 .335-.703l38.627-32.469a.964.964 0 0 1 1.262.173.937.937 0 0 1-.042 1.26L256.6 815.671a.95.95 0 0 1-.484.206.95.95 0 0 1-1.071-.922z"/><path fill="#07f" d="M293.673 782.486c.008-.216.083-.424.214-.597a.95.95 0 0 1 .645-.34.95.95 0 0 1 .696.221l37.796 30.757a.92.92 0 0 1 .12 1.327.94.94 0 0 1-.642.341.96.96 0 0 1-.698-.209l-37.782-30.757a.94.94 0 0 1-.349-.743M95.765 815.061a.91.91 0 0 1 .322-.703l37.541-32.575a.95.95 0 0 1 .69-.24.94.94 0 0 1 .651.333.93.93 0 0 1 .242.68.92.92 0 0 1-.323.647l-37.54 32.561a.957.957 0 0 1-1.341-.079.96.96 0 0 1-.242-.624"/><path fill="#07f" d="M133.306 782.486a.97.97 0 0 1 .201-.584.94.94 0 0 1 1.014-.31q.182.056.327.177l40.45 32.469a.91.91 0 0 1 .328 1.002.9.9 0 0 1-.18.325.9.9 0 0 1-.284.241.94.94 0 0 1-1.057-.095l-40.437-32.469a.94.94 0 0 1-.362-.756m-81.932-12.234V78.068c0-.246.099-.483.275-.657a.94.94 0 0 1 .663-.272c.25 0 .49.098.669.271.178.174.28.41.283.658v692.184a.94.94 0 0 1-.283.657.96.96 0 0 1-1.028.201.95.95 0 0 1-.508-.503.9.9 0 0 1-.071-.355"/><path fill="#07f" d="M19.505 107.711a.92.92 0 0 1 .295-.69l87.858-81.736a.935.935 0 0 1 1.035-.21q.176.074.306.21a.925.925 0 0 1 0 1.326l-87.872 81.79a.957.957 0 0 1-1.554-.316.9.9 0 0 1-.068-.374"/><path fill="#07f" d="M67.315 63.234c0-.247.099-.483.275-.657a.94.94 0 0 1 .663-.272h463.749a.95.95 0 0 1 .599.31.935.935 0 0 1 0 1.25.95.95 0 0 1-.599.31H68.307a.95.95 0 0 1-.703-.256.93.93 0 0 1-.289-.685m-48.816 517.99a.96.96 0 0 1 .335-.73.95.95 0 0 1 .698-.209.97.97 0 0 1 .643.342l32.62 39.262a.934.934 0 0 1-.182 1.255.96.96 0 0 1-1.28-.06L18.7 581.821a.9.9 0 0 1-.201-.597"/><path fill="#07f" d="M18.875 659.696a.9.9 0 0 1 .214-.597l32.634-39.21a.95.95 0 0 1 1.327-.119.927.927 0 0 1 .12 1.313l-32.62 39.263a.957.957 0 0 1-1.498-.064.94.94 0 0 1-.177-.533z"/><path fill="#07f" d="M18.365 658.78a.92.92 0 0 1 .349-.716.956.956 0 0 1 1.34.119l32.62 39.263a.924.924 0 0 1-.12 1.313.943.943 0 0 1-1.327-.119l-32.634-39.263a.9.9 0 0 1-.228-.597"/><path fill="#07f" d="M18.7 737.305a.94.94 0 0 1 .214-.597l32.634-39.262a.955.955 0 0 1 1.615.532.93.93 0 0 1-.154.662l-32.633 39.262a.95.95 0 0 1-1.015.3.9.9 0 0 1-.326-.18.9.9 0 0 1-.335-.717m-.201-313.065a.92.92 0 0 1 .618-.879.94.94 0 0 1 1.044.282l32.634 39.262a.934.934 0 0 1-.182 1.255.96.96 0 0 1-1.28-.06L18.7 424.837a.9.9 0 0 1-.201-.597"/><path fill="#07f" d="M18.875 502.765a.9.9 0 0 1 .214-.597l32.634-39.263a.946.946 0 0 1 1.662.513.93.93 0 0 1-.214.681l-32.62 39.263a.96.96 0 0 1-1.499-.064.94.94 0 0 1-.177-.533"/><path fill="#07f" d="M18.364 501.796a.95.95 0 0 1 1.196-.896.96.96 0 0 1 .48.299l32.62 39.263a.926.926 0 0 1-.443 1.487.94.94 0 0 1-1.005-.293L18.58 502.393a.9.9 0 0 1-.215-.597"/><path fill="#07f" d="M18.7 580.321a.9.9 0 0 1 .214-.597l32.634-39.262a.96.96 0 0 1 1.28-.061.934.934 0 0 1 .182 1.255l-32.634 39.262a.95.95 0 0 1-1.013.306 1 1 0 0 1-.328-.173.98.98 0 0 1-.335-.73m-.202-315.586a.92.92 0 0 1 .664-.903.97.97 0 0 1 .725.071 1 1 0 0 1 .287.234L52.808 303.4a.924.924 0 0 1-.134 1.327.96.96 0 0 1-1.34-.119L18.7 265.332a.97.97 0 0 1-.202-.597"/><path fill="#07f" d="M18.875 343.26a.9.9 0 0 1 .214-.597L51.723 303.4a.946.946 0 0 1 1.662.513.93.93 0 0 1-.214.681l-32.62 39.303a.957.957 0 0 1-1.5-.064.94.94 0 0 1-.176-.533z"/><path fill="#07f" d="M18.364 342.291a.95.95 0 0 1 1.196-.896.95.95 0 0 1 .48.299l32.62 39.263a.926.926 0 0 1-.443 1.487.94.94 0 0 1-1.005-.293L18.58 342.888a.9.9 0 0 1-.215-.597"/><path fill="#07f" d="M18.7 420.856a.9.9 0 0 1 .214-.597l32.634-39.263a.96.96 0 0 1 1.64.107.93.93 0 0 1 .036.761.9.9 0 0 1-.215.327l-32.634 39.262a.97.97 0 0 1-1.013.306 1 1 0 0 1-.327-.173.95.95 0 0 1-.335-.73m-.2-313.145a.925.925 0 0 1 .617-.879.94.94 0 0 1 1.045.282l32.633 39.262a.94.94 0 0 1 .217.692.92.92 0 0 1-.35.635.93.93 0 0 1-1.342-.133L18.7 108.348a.96.96 0 0 1-.2-.637"/><path fill="#07f" d="M18.874 186.276a.9.9 0 0 1 .215-.597l32.633-39.263a.945.945 0 0 1 1.572.14.925.925 0 0 1-.124 1.041L20.55 186.86a.94.94 0 0 1-1.049.301.93.93 0 0 1-.627-.885"/><path fill="#07f" d="M18.365 185.307a.97.97 0 0 1 .349-.73.97.97 0 0 1 .698-.208.96.96 0 0 1 .642.341l32.62 39.263a.926.926 0 0 1-.12 1.313.95.95 0 0 1-1.327-.119l-32.634-39.263a.9.9 0 0 1-.228-.597"/><path fill="#07f" d="M18.7 263.832a.9.9 0 0 1 .214-.597l32.634-39.262a.96.96 0 0 1 1.28-.061.934.934 0 0 1 .182 1.255l-32.634 39.262a.96.96 0 0 1-1.499-.064.93.93 0 0 1-.177-.533M220.695 63.234a.94.94 0 0 1 .362-.73l39.673-30.996a.946.946 0 0 1 1.423 1.193 1 1 0 0 1-.243.28l-39.686 30.943a.95.95 0 0 1-1.341-.16.94.94 0 0 1-.188-.53"/><path fill="#07f" d="M181.023 30.752a.87.87 0 0 1 .215-.584.94.94 0 0 1 1.013-.31q.182.056.327.177l39.673 32.469a.938.938 0 0 1-.107 1.623.96.96 0 0 1-1.1-.177l-39.686-32.469a.87.87 0 0 1-.335-.73"/><path fill="#07f" d="M143.657 63.233a.9.9 0 0 1 .082-.38.9.9 0 0 1 .24-.31l37.366-32.468a.94.94 0 0 1 .68-.233.95.95 0 0 1 .832.626.92.92 0 0 1-.043.71.9.9 0 0 1-.222.29l-37.367 32.455a.95.95 0 0 1-1.009.141.94.94 0 0 1-.559-.844z"/><path fill="#07f" d="M102.644 32.477a.94.94 0 0 1 .529-.828.96.96 0 0 1 .986.084l41.013 30.758a.95.95 0 0 1 .436.627.943.943 0 0 1-.846 1.112.96.96 0 0 1-.73-.24l-41.013-30.757a.95.95 0 0 1-.375-.756m278.257 30.757a.95.95 0 0 1 .335-.704l38.091-32.469a.94.94 0 0 1 .686-.219.95.95 0 0 1 .82.643.92.92 0 0 1-.058.711.9.9 0 0 1-.228.285L382.47 63.923a.96.96 0 0 1-1.016.138.95.95 0 0 1-.553-.854z"/><path fill="#07f" d="M337.688 30.751a.9.9 0 0 1 .202-.57.935.935 0 0 1 1.009-.332.9.9 0 0 1 .331.172l41.63 32.47a.94.94 0 0 1 .079 1.25.96.96 0 0 1-1.245.223L338.05 31.507a.95.95 0 0 1-.362-.757"/><path fill="#07f" d="M299.062 63.234a.95.95 0 0 1 .335-.704l38.627-32.469a.93.93 0 0 1 1.053-.129.9.9 0 0 1 .288.236.927.927 0 0 1-.107 1.327l-38.641 32.429a.92.92 0 0 1-.693.232.93.93 0 0 1-.647-.339.87.87 0 0 1-.215-.583"/><path fill="#07f" d="M261.28 32.476a.9.9 0 0 1 .214-.584.93.93 0 0 1 1.341-.132l37.782 30.757a.93.93 0 0 1-.502 1.652.95.95 0 0 1-.691-.206l-37.796-30.757a.94.94 0 0 1-.348-.73m198.161 30.758a.9.9 0 0 1 .362-.637l37.541-32.629a.93.93 0 0 1 .704-.402.95.95 0 0 1 .758.294.93.93 0 0 1 .241.769.93.93 0 0 1-.456.666L461.05 63.87a.96.96 0 0 1-1.341-.08.9.9 0 0 1-.268-.556"/><path fill="#07f" d="M418.991 30.752a.9.9 0 0 1 .215-.584.94.94 0 0 1 1.013-.31c.12.036.232.097.328.177l40.45 32.469a.94.94 0 0 1 .134 1.327.94.94 0 0 1-1.013.31.9.9 0 0 1-.328-.178l-40.45-32.469a.94.94 0 0 1-.349-.742M20.51 813.243a.9.9 0 0 1 .12-.451c.805-3.211 8.594-45.645 11.597-62.058a.9.9 0 0 1 .394-.598.95.95 0 0 1 .706-.146.92.92 0 0 1 .608.379.9.9 0 0 1 .143.696c-8.34 45.712-10.726 58.383-11.732 61.86a.8.8 0 0 1 0 .318h-.16c-.35 1.009-.564.982-.859.969a1 1 0 0 1-.587-.337.98.98 0 0 1-.23-.632"/><path fill="#07f" d="M20.51 814.942c0-1.739 18.422-29.086 29.402-45.234a.958.958 0 0 1 1.65.379.93.93 0 0 1-.081.669c-9.492 13.959-23.02 34.128-27.552 41.572l43.735-26.883a.94.94 0 0 1 .711-.121.94.94 0 0 1 .72.753.92.92 0 0 1-.426.947l-46.711 28.714a.943.943 0 0 1-1.323-.316.9.9 0 0 1-.125-.48"/><path fill="#07f" d="M19.116 814.941c0-.241.095-.474.265-.647a.94.94 0 0 1 .647-.281c1.756-.186 38.251-8.519 62.398-14.079a.97.97 0 0 1 .712.116q.16.099.269.249a.94.94 0 0 1 .164.696.93.93 0 0 1-.381.607 1 1 0 0 1-.335.15c-10.23 2.362-61.366 14.132-62.8 14.132a.96.96 0 0 1-.669-.277.94.94 0 0 1-.27-.666m487.318-14.768v-.199a.94.94 0 0 1 .414-.587.96.96 0 0 1 .712-.129c48.91 10.376 62.036 13.176 65.509 14.357q.12-.01.241 0v.119c1.032.385 1.006.637.979.902a.98.98 0 0 1-.329.606 1 1 0 0 1-.65.244.95.95 0 0 1-.496-.146c-3.365-.969-48.267-10.615-65.696-14.251a.93.93 0 0 1-.684-.916"/><path fill="#07f" d="M525.432 782.486c0-.189.056-.374.161-.531a.94.94 0 0 1 .62-.399.98.98 0 0 1 .721.16c15.244 10.416 37.246 25.211 45.317 30.227l-30.354-46.547a.925.925 0 0 1 .281-1.287.946.946 0 0 1 1.301.278l32.365 49.652a.92.92 0 0 1 .046.96.94.94 0 0 1-.837.487c-1.77 0-31.601-20.196-49.218-32.231a.92.92 0 0 1-.403-.769"/><path fill="#07f" d="M559.85 750.442a.94.94 0 0 1 .21-.583.96.96 0 0 1 .527-.333.97.97 0 0 1 .717.128.96.96 0 0 1 .423.589c.134.623 14.252 63.173 14.573 64.5a.92.92 0 0 1-.112.706.955.955 0 0 1-1.299.31.93.93 0 0 1-.425-.579c-.322-1.326-14.011-61.952-14.588-64.539zm.214-656.677v-.172c8.996-48.26 11.463-61.422 12.576-65.018a.9.9 0 0 1 0-.318h.161c.348-1.009.576-.995.858-.969a1.03 1.03 0 0 1 .722.53 1 1 0 0 1 .029.89c-.832 3.264-9.211 47.914-12.429 65.177a.92.92 0 0 1-.389.606.95.95 0 0 1-.71.15.95.95 0 0 1-.567-.294.94.94 0 0 1-.251-.582"/><path fill="#07f" d="M524.896 55.856a.93.93 0 0 1 .443-.796l47.703-29.284a.975.975 0 0 1 1.307.329.94.94 0 0 1 .141.467c0 1.751-19.333 30.518-30.837 47.45a.94.94 0 0 1-.616.405.96.96 0 0 1-.725-.154.91.91 0 0 1-.254-1.327c10.015-14.755 24.294-36.091 29-43.787L526.331 56.6a.945.945 0 0 1-1.341-.292.9.9 0 0 1-.094-.451"/><path fill="#07f" d="M511.408 40.677a.9.9 0 0 1 .185-.568.93.93 0 0 1 .499-.335c10.284-2.388 61.419-14.131 62.854-14.131a.96.96 0 0 1 .599.31.935.935 0 0 1 0 1.25.96.96 0 0 1-.599.31c-1.756.173-38.251 8.52-62.398 14.079a.96.96 0 0 1-.717-.119.95.95 0 0 1-.423-.584zM20.71 27.394v-.132a.97.97 0 0 1 .322-.605.98.98 0 0 1 1.14-.112c3.406.969 50.6 10.947 68.834 14.782a.93.93 0 0 1 .597.399.9.9 0 0 1 .127.702.92.92 0 0 1-.407.586.94.94 0 0 1-.706.13c-51.43-10.8-65.08-13.72-68.66-14.9a.9.9 0 0 1-.267 0v-.146c-.858-.266-.98-.478-.98-.704"/><path fill="#07f" d="M19.009 27.341a.95.95 0 0 1 .12-.451.95.95 0 0 1 .831-.478c1.703 0 27.512 19.625 48.87 36.092a.93.93 0 0 1 .373.626.92.92 0 0 1-.198.7.95.95 0 0 1-.637.356.96.96 0 0 1-.704-.196C52.7 52.46 31.169 36.125 22.95 30.327L53.103 77.59a.94.94 0 0 1-.294 1.327.944.944 0 0 1-1.341-.292l-32.312-50.78a1 1 0 0 1-.147-.504"/><path fill="#07f" d="M19.008 25.961a.94.94 0 0 1 .313-.593.96.96 0 0 1 1.264 0 .94.94 0 0 1 .313.593C21.1 27.938 31.624 75.852 35.74 94.19a.92.92 0 0 1-.126.7.95.95 0 0 1-1.299.281.93.93 0 0 1-.411-.583C31.41 83.349 19.008 27.38 19.008 25.96m40.705 744.292V78.068c0-.246.099-.482.275-.657a.94.94 0 0 1 .663-.272h471.016a.96.96 0 0 1 .66.276.94.94 0 0 1 .278.653v692.184a.94.94 0 0 1-.278.653.96.96 0 0 1-.66.276H60.651a.94.94 0 0 1-.867-.574.9.9 0 0 1-.071-.355m1.89-691.242v690.3h469.112V79.01z"/><path stroke="#b8bbc2" stroke-miterlimit="10" stroke-width=".559" d="M224.896 922.192-36.299 661m261.195 273.118L-48.224 661m273.12 285.045L-60.146 661m285.042 296.97L-72.072 661m296.968 308.896L-84 661" opacity=".6"/><g clip-path="url(#b)"><path fill="#07f" d="M137.686 113.649v-1.437a7.1 7.1 0 0 1-2.885-.707 4.83 4.83 0 0 1-1.963-1.757 5.39 5.39 0 0 1 0-5.338 4.8 4.8 0 0 1 1.963-1.753 7.1 7.1 0 0 1 2.885-.707v-1.378h3.069v1.378a7.1 7.1 0 0 1 2.892.707c.805.39 1.485.998 1.962 1.753a5.38 5.38 0 0 1 0 5.338 4.8 4.8 0 0 1-1.962 1.757 7.1 7.1 0 0 1-2.892.707v1.437zm0-3.984v-5.168a3 3 0 0 0-1.316.368 2.17 2.17 0 0 0-.85.882 3.19 3.19 0 0 0 0 2.674c.192.366.485.669.843.876.406.224.859.35 1.323.368m3.069 0a2.94 2.94 0 0 0 1.313-.368c.361-.203.654-.507.843-.876a3.15 3.15 0 0 0 0-2.674 2.1 2.1 0 0 0-.843-.882 2.94 2.94 0 0 0-1.313-.368zm7.429 3.398v-11.771h7.401v2.819h-4.298v8.959zm14.243.252a6.8 6.8 0 0 1-2.53-.462 6.2 6.2 0 0 1-2.007-1.303 5.9 5.9 0 0 1-1.324-1.95 6.6 6.6 0 0 1 0-4.852 5.9 5.9 0 0 1 1.324-1.95 6.1 6.1 0 0 1 2.007-1.296 6.8 6.8 0 0 1 2.53-.462 6.6 6.6 0 0 1 2.519.472 6.1 6.1 0 0 1 2.007 1.31 5.9 5.9 0 0 1 1.33 1.961c.319.758.481 1.572.474 2.394a6.2 6.2 0 0 1-.474 2.413 5.9 5.9 0 0 1-1.33 1.95 6.2 6.2 0 0 1-2.007 1.302 6.7 6.7 0 0 1-2.519.473m0-2.902c.421.005.839-.072 1.23-.227a2.8 2.8 0 0 0 .978-.648c.281-.298.498-.65.639-1.034.157-.428.234-.881.228-1.337a3.5 3.5 0 0 0-.397-1.723 2.8 2.8 0 0 0-1.096-1.127 3.14 3.14 0 0 0-1.582-.392 3.3 3.3 0 0 0-1.234.227 2.9 2.9 0 0 0-.978.644c-.282.297-.5.649-.639 1.034a3.9 3.9 0 0 0-.214 1.365 3.6 3.6 0 0 0 .394 1.723c.251.466.628.854 1.088 1.12a3.15 3.15 0 0 0 1.583.375m13.942 2.902a6.9 6.9 0 0 1-3.248-.741 5.5 5.5 0 0 1-2.191-2.12 6.4 6.4 0 0 1-.784-3.235c-.01-.853.145-1.7.456-2.495a5.8 5.8 0 0 1 1.306-1.961 5.9 5.9 0 0 1 1.99-1.268 6.8 6.8 0 0 1 2.512-.455 7.2 7.2 0 0 1 2.53.386c.673.253 1.297.62 1.845 1.086l-1.534 2.539a3 3 0 0 0-1.147-.747 4.2 4.2 0 0 0-1.493-.255 4 4 0 0 0-1.365.22 2.63 2.63 0 0 0-1.634 1.613 3.7 3.7 0 0 0-.211 1.295 3.4 3.4 0 0 0 .387 1.672 2.64 2.64 0 0 0 1.112 1.078 3.9 3.9 0 0 0 1.763.369 5.2 5.2 0 0 0 1.517-.234 4.9 4.9 0 0 0 1.458-.741l1.416 2.588a6.9 6.9 0 0 1-1.962 1.009c-.88.281-1.8.415-2.723.397m9.547-3.674v-2.674h5.09v2.674zm-52.977 20.234v-11.771h10.504v11.771h-3.11v-8.959h-4.291v8.959zm13.189 0v-11.771h4.889a5.8 5.8 0 0 1 2.377.472 3.8 3.8 0 0 1 1.642 1.379c.413.637.622 1.384.601 2.143a4 4 0 0 1-.556 2.161 3.6 3.6 0 0 1-1.593 1.337 6.3 6.3 0 0 1-2.53.461h-1.727v3.818zm3.11-6.381h1.603c.438.025.873-.083 1.247-.311a1.44 1.44 0 0 0-.017-2.119 2.1 2.1 0 0 0-1.213-.32h-1.62zm6.278 6.381 4.357-11.771h3.635l4.368 11.771h-3.504l-.739-2.246h-3.988l-.736 2.246zm4.837-4.824h2.606l-1.299-3.715zm16.151 4.824-4.724-6.044 4.285-5.727h3.877l-4.385 5.727 4.882 6.044zm-7.256 0v-11.771h3.109v4.252h2.208v2.823h-2.242v4.693zm14.401 0v-8.959h-3.109v-2.819h9.305v2.819h-3.093v8.959zm7.823 0v-11.771h3.069v6.919l4.409-6.919h3.11v11.771h-3.079v-7.012l-4.444 7.012zm20.501 0-4.72-6.044 4.285-5.727h3.876l-4.384 5.727 4.923 6.044zm-7.256 0v-11.771h3.11v4.252h2.242v2.823h-2.263v4.693zm13.13.241-1.068-2.804a7.3 7.3 0 0 0 2.032-.631 4.9 4.9 0 0 0 1.5-1.203 8.8 8.8 0 0 0 1.206-1.96l2.543-5.414h3.593l-3.424 6.837c-.386.8-.842 1.565-1.365 2.284a8.2 8.2 0 0 1-1.468 1.548 5.9 5.9 0 0 1-1.635.916 8.5 8.5 0 0 1-1.931.427zm3.079-3.359-4.586-8.653h3.75l2.916 6.072zm7.864 3.118v-11.771h2.986l4.374 7.288-1.237.017 4.129-7.305h2.975v11.771h-3.009l.058-7.853.539.203-3.189 5.538h-2.032l-3.344-5.538.532-.203.058 7.853zm-126.275-9.696-.346 2.412h1.783v.779h-3.677v-.779h1.085l.346-2.412H86.502c0 7.632 6.932 13.821 15.487 13.821s15.487-6.203 15.487-13.821zm-.654 13.569a9.93 9.93 0 0 0-2.764-5.21c1.818-1.76 2.098-4.496 2.098-4.496h.808v4.858a.76.76 0 0 0 0 1.472v3.38zm.671 0h-.166v-3.38a.75.75 0 0 0 .415-.269.75.75 0 0 0 0-.934.76.76 0 0 0-.415-.268v-4.859h.812s.28 2.736 2.097 4.497a9.93 9.93 0 0 0-2.743 5.213"/><path fill="#e73c3b" d="M117.487 99.983v20.192h-14.966l.08-.544c3.576-4.886 11.264-4.897 11.337-4.897v-14.203l1.444-.548z"/><path fill="#07f" d="m122.39 97.326-7.001 2.657-1.444.548v-3.915c-9.921.458-11.748 8.367-11.748 8.367s-1.825-7.909-11.749-8.367v3.928l-8.451-3.19L102.186 90z"/><path fill="#07f" d="m101.695 120.365-15.175-.024v-20.162h3.932v14.51h.027c1.407 0 8.259.231 11.033 4.825l.253.344zm-14.837-.421h14.578l-.141-.224c-2.665-4.414-9.447-4.638-10.816-4.638h-.428v-14.521h-3.193z"/><path fill="#07f" fill-rule="evenodd" d="M109.159 103.807c-2.418 3.446-4.751 8.801-5.905 12.847-.107.382-.235.761-.345 1.144q-.088.3-.166.606c-.021.093-.045.186-.062.283 0 .034-.066.231-.042.265a.24.24 0 0 1 .059-.079q.288-.291.566-.593a58 58 0 0 1 2.174-2.209c.086-.082.166-.175.249-.265.477-.527 1.479-1.565 1.7-2.112-.671.175-1.223.472-2.022.516.363-.299 2.419-1.178 3.013-2.46a.7.7 0 0 1-.186.038l-.187.045-.363.096c-.376.1-.753.176-1.136.242-.201.037.051-.131.103-.159a10 10 0 0 0 1.078-.617q.571-.396 1.054-.896a7.7 7.7 0 0 0 1.386-2.002 7.2 7.2 0 0 0 .608-1.888c-.529.203-1.493.903-2.505 1.01q.424-.3.891-.528c.944-.582 1.59-1.092 2.118-2.088.823-1.554.816-2.905.602-4.8-1.065.076-2.651.879-3.38 1.358a2 2 0 0 0-.501.375 2.3 2.3 0 0 0-.29.731 31 31 0 0 0-.456 1.595q-.053.207-.1.414a.7.7 0 0 0-.031.224 4.6 4.6 0 0 1 .024-1.292c.021-.197.048-.397.072-.593 0-.093.028-.183.038-.276q.027-.125.031-.251a.5.5 0 0 0-.1.048q-.27.168-.477.41c-.152.162-.321.31-.466.476a1.1 1.1 0 0 0-.266.485.4.4 0 0 0 0 .069c-.131.779-.218 1.723-.387 2.485a2.3 2.3 0 0 1-.114-.645c-.021-.31-.021-.623-.028-.933v-.266a2 2 0 0 0 0-.265.4.4 0 0 0-.128.107q-.072.07-.134.141c-.104.117-.197.241-.291.365-.224.304-.425.621-.622.941a26 26 0 0 0-1.067 1.95l-.125.266c-1.064 2.315-.324 3.277-.28 5.403a6.9 6.9 0 0 1-.836-2.881l-.345.882a11.45 11.45 0 0 0-.384 5.531 6.5 6.5 0 0 0 .653 1.888c.156-.238.543-1.84.667-2.267 1.127-3.867 3.842-9.938 6.496-12.922.131-.159.221-.29.432-.548l.549-.627" clip-rule="evenodd"/></g><path fill="#07f" d="M173.629 307v-34.08h-12.352v1.888q0 7.553-.864 13.152-.832 5.568-2.688 9.408t-4.96 6.176q-3.104 2.304-7.616 3.36l-4-9.952q2.752-.64 4.48-1.888 1.76-1.248 2.752-3.648t1.376-6.432q.416-4.032.416-10.176V262.2h35.232V307zm-32.48 11.232v-21.28l6.368.192 3.552-.896h41.6v21.984h-11.168V307h-29.184v11.232zM199.276 307v-44.8h11.648v26.336L227.66 262.2h11.776V307h-11.68v-26.688L210.988 307zm50.312 0v-44.8h39.872V307h-11.776v-34.08h-16.32V307zm49.711.928-3.744-10.784q2.175-.64 3.68-1.44a6.9 6.9 0 0 0 2.464-2.176q.992-1.376 1.536-3.616.544-2.272.735-5.792.225-3.552.225-8.736V262.2h34.56V307h-11.776v-34.08h-11.68v1.888q0 6.848-.448 11.968t-1.504 8.768-2.88 6.112q-1.825 2.431-4.576 3.936-2.752 1.504-6.592 2.336m70.85.032q-5.217 0-9.6-1.76-4.385-1.792-7.616-4.96-3.233-3.168-5.024-7.424-1.76-4.255-1.76-9.216 0-4.992 1.76-9.248 1.791-4.256 5.024-7.424 3.231-3.168 7.616-4.928 4.383-1.76 9.6-1.76 5.215 0 9.568 1.792 4.383 1.792 7.616 4.992a22.6 22.6 0 0 1 5.056 7.456q1.791 4.224 1.792 9.12 0 4.96-1.792 9.216a22.3 22.3 0 0 1-5.056 7.424q-3.233 3.168-7.616 4.96-4.353 1.76-9.568 1.76m0-11.04q2.56 0 4.672-.864a10.8 10.8 0 0 0 3.712-2.464q1.568-1.632 2.432-3.904t.864-5.088q0-3.775-1.504-6.528-1.505-2.784-4.16-4.288-2.625-1.504-6.016-1.504-2.529 0-4.672.864a10.75 10.75 0 0 0-3.712 2.464q-1.569 1.6-2.432 3.904-.832 2.272-.832 5.088 0 3.776 1.504 6.56 1.503 2.752 4.128 4.256 2.623 1.504 6.016 1.504M401.588 307v-44.8h11.328l16.608 27.744-4.704.064L440.5 262.2h11.296V307h-11.36l.224-29.888 2.048.768-12.16 21.088h-7.712l-12.704-21.088 2.016-.768.224 29.888z"/><path fill="#000" d="M224.746 349v-14h12.38v14h-2.56v-12.44l.6.64h-8.46l.6-.64V349zm22.827.2q-1.64 0-3.02-.54a7.4 7.4 0 0 1-2.4-1.5 6.9 6.9 0 0 1-1.58-2.28q-.56-1.32-.56-2.88t.56-2.86q.56-1.32 1.58-2.28a7.2 7.2 0 0 1 2.4-1.52q1.38-.54 3-.54 1.641 0 3 .54 1.38.54 2.4 1.52 1.02.96 1.58 2.28.56 1.3.56 2.86t-.56 2.88-1.58 2.28a7.4 7.4 0 0 1-2.4 1.5q-1.36.54-2.98.54m-.02-2.28q1.06 0 1.96-.36t1.56-1.02q.66-.68 1.02-1.56.38-.9.38-1.98t-.38-1.96a4.6 4.6 0 0 0-1.02-1.56q-.66-.68-1.56-1.04t-1.96-.36-1.96.36a4.7 4.7 0 0 0-1.56 1.04q-.66.66-1.04 1.56-.36.88-.36 1.96 0 1.06.36 1.96.38.9 1.04 1.58.66.66 1.56 1.02t1.96.36m10.435 2.08v-14h10.9v2.14h-8.34v3.44h4.14q2.52 0 3.82 1.06 1.32 1.04 1.32 3.04 0 2.06-1.46 3.2-1.44 1.12-4.08 1.12zm2.56-2h3.6q1.5 0 2.28-.58t.78-1.68q0-2.16-3.06-2.16h-3.6zm14.527-6.18h6.96v2.14h-6.96zm.2 6h7.9V349h-10.5v-14h10.22v2.18h-7.62zm20.098.98v-10.6h-5.48l-.1 2.48q-.06 1.4-.18 2.66-.1 1.24-.34 2.26-.22 1.02-.62 1.7t-.98.9l-2.8-.4q.76.04 1.24-.52.501-.56.78-1.56a14 14 0 0 0 .42-2.34q.14-1.36.2-2.94l.16-4.44h10.26v12.8zm-10.98 4.18.02-5.18h15.54v5.18h-2.4V349h-10.74v2.98zm18.028-2.98v-14h2.56v9.94l7.52-9.94h2.42v14h-2.56v-9.92l-7.52 9.92zm19.366 0v-12.44l.62.64h-5.24V335h11.84v2.2h-5.24l.6-.64V349zm11.862-8.18h6.96v2.14h-6.96zm.2 6h7.9V349h-10.5v-14h10.22v2.18h-7.62zm10.539 2.38q-.34 0-.68-.06t-.74-.14l.18-2.26q.279.08.6.08.84 0 1.34-.68.5-.7.72-2.04t.3-3.3l.2-5.8h10.3v14h-2.56v-12.44l.6.64h-6.66l.56-.66-.14 4.16a34 34 0 0 1-.28 3.66q-.22 1.58-.68 2.66-.44 1.06-1.18 1.62t-1.88.56m24.298-.2v-4.48l.64.58h-4.1q-1.76 0-3.04-.58-1.26-.6-1.94-1.7-.68-1.12-.68-2.68 0-1.62.72-2.76.72-1.16 2.04-1.76 1.32-.62 3.1-.62h5.82v14zm-9.08 0 3.46-5h2.62l-3.34 5zm9.08-5.32v-7.2l.64.72h-3.82q-1.6 0-2.46.74-.84.72-.84 2.16 0 1.38.8 2.14.82.74 2.4.74h3.92zM151.351 421v-14h3.22v9.12l6.68-9.12h3.04v14h-3.2v-9.1l-6.68 9.1zm16.426 0v-14h6.52q2.44 0 3.8.94t1.36 2.68q0 1.72-1.28 2.68-1.28.94-3.4.94l.38-.84q2.36 0 3.66.94t1.3 2.72q0 1.84-1.4 2.9-1.38 1.04-4.04 1.04zm3.22-2.4h3.56q1.12 0 1.7-.44t.58-1.36q0-.88-.58-1.3-.58-.44-1.7-.44h-3.56zm0-5.8h3.02q1.06 0 1.6-.42.54-.44.54-1.28t-.54-1.26q-.54-.44-1.6-.44h-3.02zm10.102 8.2 6.24-14h3.2l6.26 14h-3.4l-5.12-12.36h1.28l-5.14 12.36zm3.12-3 .86-2.46h7.2l.88 2.46zm24.037-11h3.24v14h-3.24zm-6.36 14h-3.24v-14h3.24zm6.6-5.74h-6.84v-2.74h6.84zm13.208 5.98q-1.66 0-3.08-.54a7.4 7.4 0 0 1-2.44-1.52 7.1 7.1 0 0 1-1.6-2.3q-.56-1.32-.56-2.88t.56-2.88a7 7 0 0 1 1.62-2.3 7.4 7.4 0 0 1 2.44-1.52q1.4-.54 3.04-.54 1.66 0 3.04.54 1.4.54 2.42 1.52a7 7 0 0 1 1.62 2.3q.58 1.3.58 2.88 0 1.56-.58 2.9a7 7 0 0 1-1.62 2.3 7.4 7.4 0 0 1-2.42 1.5q-1.38.54-3.02.54m-.02-2.76q.94 0 1.72-.32.8-.32 1.4-.92t.92-1.42a4.7 4.7 0 0 0 .34-1.82 4.7 4.7 0 0 0-.34-1.82 4.1 4.1 0 0 0-.92-1.42 3.9 3.9 0 0 0-1.38-.92 4.7 4.7 0 0 0-1.74-.32q-.94 0-1.74.32-.78.32-1.38.92t-.94 1.42a5 5 0 0 0-.32 1.82q0 .98.32 1.82.34.82.92 1.42.6.6 1.4.92t1.74.32M231.84 421v-14h6.52q2.44 0 3.8.94t1.36 2.68q0 1.72-1.28 2.68-1.28.94-3.4.94l.38-.84q2.36 0 3.66.94t1.3 2.72q0 1.84-1.4 2.9-1.38 1.04-4.04 1.04zm3.22-2.4h3.56q1.12 0 1.7-.44t.58-1.36q0-.88-.58-1.3-.58-.44-1.7-.44h-3.56zm0-5.8h3.02q1.06 0 1.6-.42.54-.44.54-1.28t-.54-1.26q-.54-.44-1.6-.44h-3.02zm17.346 8.2v-14h3.22v9.12l6.68-9.12h3.04v14h-3.2v-9.1l-6.68 9.1zm16.426 0v-14h6.52q2.44 0 3.8.94t1.36 2.68q0 1.72-1.28 2.68-1.28.94-3.4.94l.38-.84q2.36 0 3.66.94t1.3 2.72q0 1.84-1.4 2.9-1.38 1.04-4.04 1.04zm3.22-2.4h3.56q1.12 0 1.7-.44t.58-1.36q0-.88-.58-1.3-.58-.44-1.7-.44h-3.56zm0-5.8h3.02q1.06 0 1.6-.42.54-.44.54-1.28t-.54-1.26q-.54-.44-1.6-.44h-3.02zm10.102 8.2 6.24-14h3.2l6.26 14h-3.4l-5.12-12.36h1.28l-5.14 12.36zm3.12-3 .86-2.46h7.2l.88 2.46zm24.037-11h3.24v14h-3.24zm-6.36 14h-3.24v-14h3.24zm6.6-5.74h-6.84v-2.74h6.84zm12.171 5.74v-14h3.22v9.12l6.68-9.12h3.04v14h-3.2v-9.1l-6.68 9.1zm16.426 0v-14h6.52q2.44 0 3.8.94t1.36 2.68q0 1.72-1.28 2.68-1.28.94-3.4.94l.38-.84q2.361 0 3.66.94 1.3.94 1.3 2.72 0 1.84-1.4 2.9-1.38 1.04-4.04 1.04zm3.22-2.4h3.56q1.12 0 1.7-.44t.58-1.36q0-.88-.58-1.3-.58-.44-1.7-.44h-3.56zm0-5.8h3.02q1.06 0 1.6-.42.54-.44.54-1.28t-.54-1.26q-.54-.44-1.6-.44h-3.02zm10.103 8.2 6.24-14h3.2l6.26 14h-3.4l-5.12-12.36h1.28l-5.14 12.36zm3.12-3 .86-2.46h7.2l.88 2.46zm24.036-11h3.24v14h-3.24zm-6.36 14h-3.24v-14h3.24zm6.6-5.74h-6.84v-2.74h6.84zm13.208 5.98q-1.66 0-3.08-.54a7.4 7.4 0 0 1-2.44-1.52 7.1 7.1 0 0 1-1.6-2.3q-.56-1.32-.56-2.88t.56-2.88a7 7 0 0 1 1.62-2.3 7.4 7.4 0 0 1 2.44-1.52q1.4-.54 3.04-.54 1.66 0 3.04.54 1.4.54 2.42 1.52a7 7 0 0 1 1.62 2.3q.58 1.3.58 2.88 0 1.56-.58 2.9a7 7 0 0 1-1.62 2.3 7.4 7.4 0 0 1-2.42 1.5q-1.38.54-3.02.54m-.02-2.76q.94 0 1.72-.32.8-.32 1.4-.92t.92-1.42a4.7 4.7 0 0 0 .34-1.82 4.7 4.7 0 0 0-.34-1.82 4.1 4.1 0 0 0-.92-1.42 3.9 3.9 0 0 0-1.38-.92 4.7 4.7 0 0 0-1.74-.32q-.94 0-1.74.32-.78.32-1.38.92t-.94 1.42a5 5 0 0 0-.32 1.82q0 .98.32 1.82.34.82.92 1.42.6.6 1.4.92t1.74.32m10.156 2.52v-14h6.52q2.44 0 3.8.94t1.36 2.68q0 1.72-1.28 2.68-1.28.94-3.4.94l.38-.84q2.36 0 3.66.94t1.3 2.72q0 1.84-1.4 2.9-1.38 1.04-4.04 1.04zm3.22-2.4h3.56q1.12 0 1.7-.44t.58-1.36q0-.88-.58-1.3-.58-.44-1.7-.44h-3.56zm0-5.8h3.02q1.06 0 1.6-.42.54-.44.54-1.28t-.54-1.26q-.54-.44-1.6-.44h-3.02zm11.682 8.2v-14h3.22v9.12l6.68-9.12h3.04v14h-3.2v-9.1l-6.68 9.1zm24.795-5.22q-1.04.42-2 .64-.96.2-1.84.2-2.82 0-4.32-1.34-1.5-1.36-1.5-3.9V407h3.2v4.02q0 1.44.78 2.18.78.72 2.22.72.92 0 1.78-.2a7 7 0 0 0 1.6-.62zm-.46 5.22v-14h3.2v14zm-193.764-34v-7.42h1.344v3.15h4.228v-3.15h1.344V387h-1.344v-3.108h-4.228V387zm14.079 0v-1.568l-.07-.294v-2.674q0-.854-.504-1.316-.49-.476-1.484-.476-.658 0-1.288.224a3.2 3.2 0 0 0-1.064.574l-.56-1.008q.574-.462 1.372-.7a5.7 5.7 0 0 1 1.694-.252q1.526 0 2.352.742.826.743.826 2.268V387zm-2.436.084q-.826 0-1.456-.28-.616-.28-.952-.77a2 2 0 0 1-.336-1.134q0-.601.28-1.092.294-.49.938-.784.659-.294 1.764-.294h2.352v.966h-2.296q-1.008 0-1.358.336t-.35.812q0 .546.434.882.434.322 1.204.322.756 0 1.316-.336.574-.336.826-.98l.266.924q-.266.659-.938 1.05-.672.378-1.694.378m6.13-.084v-7.42h5.46v1.176h-4.438l.322-.308V387zm10.77.084q-.923 0-1.694-.42-.756-.434-1.218-1.274-.447-.84-.448-2.1 0-1.26.434-2.1.448-.84 1.204-1.26a3.54 3.54 0 0 1 1.722-.42q1.092 0 1.932.476t1.33 1.33q.49.84.49 1.974t-.49 1.988a3.5 3.5 0 0 1-1.33 1.33q-.84.476-1.932.476m-3.934 2.632V379.58h1.288v2.002l-.084 1.722.14 1.722v4.69zm3.822-3.808q.714 0 1.274-.322.575-.322.896-.91.336-.602.336-1.386 0-.798-.336-1.372a2.27 2.27 0 0 0-.896-.91 2.5 2.5 0 0 0-1.274-.322q-.7 0-1.274.322a2.4 2.4 0 0 0-.896.91q-.322.574-.322 1.372 0 .785.322 1.386.336.588.896.91.575.322 1.274.322M286.414 387v-1.568l-.07-.294v-2.674q0-.854-.504-1.316-.49-.476-1.484-.476-.658 0-1.288.224a3.2 3.2 0 0 0-1.064.574l-.56-1.008a4 4 0 0 1 1.372-.7 5.7 5.7 0 0 1 1.694-.252q1.525 0 2.352.742.825.743.826 2.268V387zm-2.436.084q-.826 0-1.456-.28-.616-.28-.952-.77a2 2 0 0 1-.336-1.134q0-.601.28-1.092.293-.49.938-.784.657-.294 1.764-.294h2.352v.966h-2.296q-1.008 0-1.358.336t-.35.812q0 .546.434.882.433.322 1.204.322.755 0 1.316-.336.574-.336.826-.98l.266.924q-.267.659-.938 1.05-.672.378-1.694.378m14.936-.084-2.366-3.612 1.106-.672L300.51 387zm-3.906-3.136v-1.148h2.408v1.148zm2.772-.42-1.274-.168 2.366-3.696h1.442zM290.584 387h-1.596l2.842-4.284 1.106.672zm4.83 0h-1.344v-7.42h1.344zm-.938-3.136h-2.394v-1.148h2.394zm-2.758-.42-2.534-3.864h1.428l2.366 3.696zm15.339 2.926v-5.614h-3.22l-.07 1.428q-.029.7-.098 1.358a7.5 7.5 0 0 1-.196 1.19q-.126.546-.378.896a1.06 1.06 0 0 1-.672.434l-1.33-.238q.433.014.7-.28.265-.308.406-.84.153-.532.224-1.204.07-.686.112-1.414l.112-2.506h5.754v6.79zm-6.258 2.352v-2.898h8.736v2.898h-1.26V387h-6.202v1.722zM315.835 387v-1.568l-.07-.294v-2.674q0-.854-.504-1.316-.49-.476-1.484-.476a3.8 3.8 0 0 0-1.288.224 3.2 3.2 0 0 0-1.064.574l-.56-1.008q.574-.462 1.372-.7a5.7 5.7 0 0 1 1.694-.252q1.527 0 2.352.742.826.743.826 2.268V387zm-2.436.084q-.826 0-1.456-.28-.615-.28-.952-.77a2 2 0 0 1-.336-1.134q0-.601.28-1.092.294-.49.938-.784.659-.294 1.764-.294h2.352v.966h-2.296q-1.008 0-1.358.336t-.35.812q0 .546.434.882.435.322 1.204.322.756 0 1.316-.336.574-.336.826-.98l.266.924q-.266.659-.938 1.05-.671.378-1.694.378m9.435 0q-1.191 0-2.1-.49a3.6 3.6 0 0 1-1.4-1.344q-.49-.854-.49-1.96t.476-1.96a3.5 3.5 0 0 1 1.33-1.33q.853-.49 1.918-.49 1.077 0 1.904.476.826.476 1.288 1.344.476.854.476 2.002 0 .084-.014.196 0 .112-.014.21h-6.314v-.966h5.614l-.546.336a2.5 2.5 0 0 0-.294-1.274 2.2 2.2 0 0 0-.854-.868q-.532-.322-1.246-.322-.7 0-1.246.322a2.15 2.15 0 0 0-.854.882q-.309.56-.308 1.288v.224q0 .742.336 1.33.35.574.966.896.615.322 1.414.322.657 0 1.19-.224.546-.224.952-.672l.742.868a3.24 3.24 0 0 1-1.26.896 4.3 4.3 0 0 1-1.666.308m6.642-.084v-6.594l.336.35h-3.052v-1.176h6.776v1.176h-3.038l.322-.35V387zm8.34.084q-1.134 0-2.03-.49a3.6 3.6 0 0 1-1.386-1.344q-.504-.854-.504-1.96t.504-1.96a3.5 3.5 0 0 1 1.386-1.33q.897-.49 2.03-.49 1.008 0 1.792.406.798.392 1.232 1.176l-1.022.658a2.2 2.2 0 0 0-.896-.798 2.4 2.4 0 0 0-1.12-.266q-.727 0-1.302.322a2.4 2.4 0 0 0-.91.91q-.336.574-.336 1.372t.336 1.386.91.91 1.302.322q.603 0 1.12-.252.533-.266.896-.812l1.022.644q-.434.77-1.232 1.19-.784.406-1.792.406m9.278-.084v-2.604l.21.252h-2.366q-1.484 0-2.324-.63-.826-.63-.826-1.834 0-1.288.882-1.946.896-.658 2.38-.658h3.248V387zm-5.376 0 2.016-2.842h1.386L343.16 387zm5.376-3.024v-3.598l.21.378h-2.212q-.924 0-1.428.35-.504.336-.504 1.12 0 1.456 1.876 1.456h2.268zm-173.901 73.122q-1.694 0-2.898-.882l.518-.952q.434.336 1.064.518.644.168 1.358.168.686 0 1.19-.168.518-.182.812-.476a.93.93 0 0 0 .294-.672.8.8 0 0 0-.406-.714q-.392-.252-1.12-.252h-1.344l.154-.98h1.134q.84 0 1.344-.294.518-.308.518-.798 0-.434-.42-.686-.406-.266-1.162-.266-.56 0-1.12.154-.546.154-1.204.434l-.322-1.12a6.6 6.6 0 0 1 1.386-.476 6.4 6.4 0 0 1 1.372-.154q.854 0 1.498.238.644.224.994.658.364.42.364.994 0 .504-.294.91a2.1 2.1 0 0 1-.798.672q-.504.266-1.204.336l-.028-.252q.952.112 1.47.546.532.434.532 1.148 0 .672-.476 1.218-.476.532-1.316.84-.827.308-1.89.308m8.599-.014q-.939 0-1.68-.378a2.97 2.97 0 0 1-1.176-1.106q-.42-.714-.42-1.722 0-.952.308-1.75a4.3 4.3 0 0 1 .882-1.386q.573-.588 1.344-.91a4.3 4.3 0 0 1 1.666-.322q.966 0 1.638.336t1.036.994q.363.644.364 1.582 0 1.373-.476 2.436-.477 1.05-1.372 1.638-.882.588-2.114.588m.294-1.176q.84 0 1.498-.406a2.8 2.8 0 0 0 1.022-1.106q.378-.714.378-1.624 0-.98-.574-1.526-.575-.56-1.638-.56-.827 0-1.484.406-.658.392-1.036 1.106-.378.7-.378 1.624 0 .966.574 1.526.573.56 1.638.56m2.142 1.092.392-1.918.448-1.722.182-1.764.392-2.016h1.344l-1.47 7.42zm7.657 0 1.498-7.42h3.388q1.218 0 1.848.434t.63 1.26q0 .938-.812 1.526-.798.574-2.1.574l.182-.336q1.176 0 1.736.406.56.392.56 1.246 0 1.078-.868 1.694t-2.422.616zm1.54-1.036h2.142q.91 0 1.428-.35t.518-.98q0-.476-.322-.686-.321-.21-1.05-.21h-2.282zm.63-3.192h2.016q.798 0 1.302-.336.504-.35.504-.924 0-.448-.35-.672-.336-.224-1.008-.224h-2.044zm13.78 4.228 1.47-7.42h1.344l-1.47 7.42zm-3.122-4.914q1.26 0 1.89.518.644.504.644 1.526 0 .868-.434 1.526-.435.644-1.232.994-.785.35-1.862.35h-3.234l1.484-7.392h1.33l-.49 2.478zm-.994 3.906q.657 0 1.148-.21a1.8 1.8 0 0 0 .756-.616q.28-.392.28-.924 0-1.162-1.596-1.162h-1.694l-.574 2.912zm11.643 1.092q-1.078 0-1.876-.392a3 3 0 0 1-1.218-1.12q-.435-.728-.434-1.694 0-1.26.56-2.24a4 4 0 0 1 1.554-1.554q.994-.574 2.254-.574 1.077 0 1.848.406.77.392 1.204 1.204l-1.134.63a1.74 1.74 0 0 0-.798-.798q-.504-.266-1.218-.266-.84 0-1.498.406-.658.392-1.036 1.106-.378.7-.378 1.624 0 .966.574 1.526.588.56 1.652.56.657 0 1.232-.266.588-.266.98-.784l.98.7q-.505.714-1.372 1.12a4.4 4.4 0 0 1-1.876.406m8.024 0q-1.064 0-1.848-.392a3.04 3.04 0 0 1-1.204-1.12q-.434-.728-.434-1.694 0-1.26.56-2.24a4.04 4.04 0 0 1 1.54-1.554q.994-.574 2.254-.574 1.05 0 1.834.392t1.204 1.106q.434.714.434 1.694 0 1.26-.56 2.254a4.17 4.17 0 0 1-1.54 1.554q-.965.574-2.24.574m.084-1.176q.84 0 1.498-.406.659-.406 1.022-1.106.378-.714.378-1.624 0-.98-.574-1.526-.573-.56-1.638-.56-.825 0-1.484.406a2.76 2.76 0 0 0-1.036 1.106q-.378.7-.378 1.624 0 .966.574 1.526.575.56 1.638.56M234.312 457l-2.1-3.64 1.12-.504 2.534 4.144zm-5.39 0 1.498-7.42h1.344l-1.498 7.42zm1.582-3.136.21-1.148h2.45l-.21 1.148zm2.87-.42-1.274-.168 3.598-3.696h1.498zm3.888 3.556 1.498-7.42h1.358l-1.12 5.544 5.6-5.544h1.274l-1.47 7.42h-1.372l1.134-5.544-5.6 5.544zm13.374.084q-1.092 0-1.89-.392a3 3 0 0 1-1.232-1.12q-.434-.728-.434-1.708 0-1.26.546-2.24a4.06 4.06 0 0 1 3.64-2.114q1.009 0 1.75.392.743.378 1.148 1.092.42.714.42 1.722 0 .252-.028.518a6 6 0 0 1-.07.476h-6.426l.168-.98h5.614l-.546.336q.126-.784-.112-1.316a1.67 1.67 0 0 0-.756-.826q-.504-.294-1.218-.294-.84 0-1.484.406-.63.392-.98 1.106-.35.7-.35 1.652 0 1.008.574 1.568.588.546 1.778.546a3.7 3.7 0 0 0 1.302-.224q.603-.239.994-.63l.574.966a3.6 3.6 0 0 1-1.33.798 5.2 5.2 0 0 1-1.652.266m14.051-.714 1.12-5.614h-3.22l-.35 1.484q-.183.685-.364 1.344a10 10 0 0 1-.42 1.19 3.5 3.5 0 0 1-.546.882 1.26 1.26 0 0 1-.742.406l-1.386-.238q.434.013.77-.294.336-.308.602-.84.266-.546.476-1.232.223-.686.406-1.414l.588-2.464h5.768l-1.358 6.79zm-6.72 2.352.574-2.898h8.736l-.574 2.898h-1.26l.336-1.722h-6.202l-.35 1.722zm14.351-1.638q-1.065 0-1.848-.392a3.03 3.03 0 0 1-1.204-1.12q-.435-.728-.434-1.694 0-1.26.56-2.24a4.03 4.03 0 0 1 1.54-1.554q.993-.574 2.254-.574 1.05 0 1.834.392t1.204 1.106q.434.714.434 1.694 0 1.26-.56 2.254a4.2 4.2 0 0 1-1.54 1.554q-.966.574-2.24.574m.084-1.176q.84 0 1.498-.406a2.8 2.8 0 0 0 1.022-1.106q.378-.714.378-1.624 0-.98-.574-1.526-.574-.56-1.638-.56-.827 0-1.484.406-.658.392-1.036 1.106-.378.7-.378 1.624 0 .966.574 1.526.573.56 1.638.56m9.036 1.176q-1.078 0-1.876-.392a3 3 0 0 1-1.218-1.12q-.434-.728-.434-1.694 0-1.26.56-2.24a4 4 0 0 1 1.554-1.554q.994-.574 2.254-.574 1.078 0 1.848.406.77.392 1.204 1.204l-1.134.63a1.74 1.74 0 0 0-.798-.798q-.504-.266-1.218-.266-.84 0-1.498.406-.658.392-1.036 1.106-.378.7-.378 1.624 0 .966.574 1.526.588.56 1.652.56a2.9 2.9 0 0 0 1.232-.266q.588-.266.98-.784l.98.7q-.504.714-1.372 1.12a4.4 4.4 0 0 1-1.876.406m5.98-.084 1.288-6.594.252.35h-3.01l.224-1.176h6.776l-.224 1.176h-3.066l.392-.35-1.288 6.594zm5.42 0 1.498-7.42h1.358l-1.12 5.544 5.6-5.544h1.274l-1.47 7.42h-1.372l1.134-5.544-5.6 5.544zm18.596 0-1.666-3.64 1.204-.518 2.03 4.158zm-3.29-3.192.21-1.064h2.422l-.21 1.064zm2.884-.378-1.302-.154 3.094-3.696h1.512zm-7.91 3.57h-1.666l3.696-4.27 1.022.63zm4.788 0h-1.344l1.484-7.42h1.358zm-.294-3.192h-2.408l.224-1.064h2.394zm-2.674-.378-1.778-3.85h1.428l1.624 3.696zm12.936 3.654q-1.092 0-1.89-.392a3 3 0 0 1-1.232-1.12q-.434-.728-.434-1.708 0-1.26.546-2.24a4.06 4.06 0 0 1 3.64-2.114q1.009 0 1.75.392.743.378 1.148 1.092.42.714.42 1.722 0 .252-.028.518a6 6 0 0 1-.07.476h-6.426l.168-.98h5.614l-.546.336q.126-.784-.112-1.316a1.67 1.67 0 0 0-.756-.826q-.504-.294-1.218-.294-.84 0-1.484.406-.63.392-.98 1.106-.35.7-.35 1.652 0 1.008.574 1.568.588.546 1.778.546a3.7 3.7 0 0 0 1.302-.224q.603-.239.994-.63l.574.966a3.6 3.6 0 0 1-1.33.798 5.2 5.2 0 0 1-1.652.266m5.097-.084 1.484-7.42h1.344l-.63 3.15h4.228l.63-3.15h1.344l-1.484 7.42h-1.344l.63-3.108h-4.228l-.63 3.108zm9.516 0 1.498-7.42h1.358l-1.12 5.544 5.6-5.544h1.274l-1.47 7.42h-1.372l1.134-5.544-5.6 5.544zm14.522 0 .504-2.632.182.336h-2.338q-1.33 0-2.044-.602-.714-.616-.714-1.638 0-1.344 1.008-2.114 1.022-.77 2.786-.77h3.29l-1.47 7.42zm-5.376 0 2.59-2.842h1.386L343.145 457zm5.964-2.996.742-3.696.14.434h-2.198q-1.092 0-1.694.448-.602.433-.602 1.26 0 1.19 1.596 1.19h2.282zm6.984 2.996 1.498-7.42h3.388q1.218 0 1.848.434t.63 1.26q0 .938-.812 1.526-.798.574-2.1.574l.182-.336q1.175 0 1.736.406.56.392.56 1.246 0 1.078-.868 1.694t-2.422.616zm1.54-1.036h2.142q.909 0 1.428-.35t.518-.98q0-.476-.322-.686t-1.05-.21h-2.282zm.63-3.192h2.016q.798 0 1.302-.336.504-.35.504-.924 0-.448-.35-.672-.336-.224-1.008-.224h-2.044zM372.33 457l-2.1-3.64 1.12-.504 2.534 4.144zm-5.39 0 1.498-7.42h1.344l-1.498 7.42zm1.582-3.136.21-1.148h2.45l-.21 1.148zm2.87-.42-1.274-.168 3.598-3.696h1.498zm7.184 3.64q-1.065 0-1.848-.392a3.03 3.03 0 0 1-1.204-1.12q-.434-.728-.434-1.694 0-1.26.56-2.24a4.03 4.03 0 0 1 1.54-1.554q.993-.574 2.254-.574 1.05 0 1.834.392t1.204 1.106q.434.714.434 1.694 0 1.26-.56 2.254a4.2 4.2 0 0 1-1.54 1.554q-.966.574-2.24.574m.084-1.176q.84 0 1.498-.406a2.8 2.8 0 0 0 1.022-1.106q.378-.714.378-1.624 0-.98-.574-1.526-.575-.56-1.638-.56-.827 0-1.484.406-.658.392-1.036 1.106-.378.7-.378 1.624 0 .966.574 1.526.573.56 1.638.56m5.452 1.092 1.484-7.42h1.344l-.63 3.15h4.228l.63-3.15h1.344l-1.484 7.42h-1.344l.63-3.108h-4.228l-.63 3.108zm14.905 0-2.1-3.64 1.12-.504 2.534 4.144zm-5.39 0 1.498-7.42h1.344l-1.498 7.42zm1.582-3.136.21-1.148h2.45l-.21 1.148zm2.87-.42-1.274-.168 3.598-3.696h1.498zm3.408 6.356q-.531 0-1.05-.182-.518-.168-.812-.476l.7-.994q.239.238.56.364.309.14.7.14.462 0 .826-.252.378-.238.77-.854l.7-1.078.154-.154 4.242-6.734h1.358l-5.264 8.232q-.489.756-.924 1.19a2.6 2.6 0 0 1-.91.616 2.9 2.9 0 0 1-1.05.182m2.142-2.562-1.862-7.658h1.344l1.582 6.608zm9.305-.154q-1.078 0-1.876-.392a3 3 0 0 1-1.218-1.12q-.434-.728-.434-1.694 0-1.26.56-2.24a4 4 0 0 1 1.554-1.554q.994-.574 2.254-.574 1.078 0 1.848.406.77.392 1.204 1.204l-1.134.63a1.74 1.74 0 0 0-.798-.798q-.504-.266-1.218-.266-.84 0-1.498.406-.658.392-1.036 1.106-.378.7-.378 1.624 0 .966.574 1.526.588.56 1.652.56a2.9 2.9 0 0 0 1.232-.266q.588-.266.98-.784l.98.7q-.504.714-1.372 1.12a4.4 4.4 0 0 1-1.876.406m8.108 0q-1.092 0-1.89-.392a3 3 0 0 1-1.232-1.12q-.434-.728-.434-1.708 0-1.26.546-2.24a4.06 4.06 0 0 1 3.64-2.114q1.009 0 1.75.392.743.378 1.148 1.092.42.714.42 1.722 0 .252-.028.518a6 6 0 0 1-.07.476h-6.426l.168-.98h5.614l-.546.336q.126-.784-.112-1.316a1.67 1.67 0 0 0-.756-.826q-.504-.294-1.218-.294-.84 0-1.484.406-.63.392-.98 1.106-.35.7-.35 1.652 0 1.008.574 1.568.588.546 1.778.546a3.7 3.7 0 0 0 1.302-.224q.603-.239.994-.63l.574.966a3.6 3.6 0 0 1-1.33.798 5.2 5.2 0 0 1-1.652.266m-199.535 50.88-2.016-2.674 2.016-2.688h1.232l-1.974 2.688 1.974 2.674zm2.688 0-2.016-2.674 2.016-2.688h1.232l-1.974 2.688 1.974 2.674zm5.057 1.036v-8.946l.35.364h-3.696V499.2h8.078v1.218h-3.696l.336-.364V509zm6.031 0v-7.42h3.444q1.302 0 2.044.504.756.49.756 1.4t-.714 1.414q-.7.49-1.862.49l.21-.364q1.33 0 1.974.49t.644 1.442q0 .966-.728 1.512-.714.532-2.198.532zm1.316-1.036h2.156q.84 0 1.26-.252.42-.266.42-.84 0-.588-.392-.854-.378-.28-1.204-.28h-2.24zm0-3.192h2.016q.77 0 1.162-.28a.95.95 0 0 0 .406-.812q0-.533-.406-.798-.391-.266-1.162-.266h-2.016zm10.462 4.312q-1.12 0-1.988-.49a3.65 3.65 0 0 1-1.372-1.344q-.504-.868-.504-1.96 0-1.106.504-1.96a3.54 3.54 0 0 1 1.372-1.33q.868-.49 1.988-.49 1.106 0 1.974.49a3.4 3.4 0 0 1 1.372 1.33q.504.84.504 1.96 0 1.106-.504 1.96a3.5 3.5 0 0 1-1.372 1.344q-.869.49-1.974.49m0-1.176q.714 0 1.274-.322.574-.322.896-.91.322-.602.322-1.386 0-.798-.322-1.372a2.3 2.3 0 0 0-.896-.91 2.5 2.5 0 0 0-1.274-.322q-.714 0-1.274.322a2.4 2.4 0 0 0-.896.91q-.336.574-.336 1.372 0 .785.336 1.386.336.588.896.91t1.274.322m9.725 1.176q-.924 0-1.694-.42-.756-.434-1.218-1.274-.448-.84-.448-2.1t.434-2.1q.447-.84 1.204-1.26a3.54 3.54 0 0 1 1.722-.42q1.092 0 1.932.476t1.33 1.33q.49.84.49 1.974t-.49 1.988a3.5 3.5 0 0 1-1.33 1.33q-.84.476-1.932.476m-3.934 2.632V501.58h1.288v2.002l-.084 1.722.14 1.722v4.69zm3.822-3.808q.713 0 1.274-.322.573-.322.896-.91.336-.602.336-1.386 0-.798-.336-1.372a2.3 2.3 0 0 0-.896-.91 2.5 2.5 0 0 0-1.274-.322q-.7 0-1.274.322a2.4 2.4 0 0 0-.896.91q-.322.574-.322 1.372 0 .785.322 1.386.335.588.896.91.573.322 1.274.322m10.492-1.946a7 7 0 0 1-1.218.448 5.2 5.2 0 0 1-1.274.154q-1.344 0-2.128-.63-.77-.63-.77-1.946v-2.408h1.344v2.324q0 .798.49 1.176.504.378 1.344.378.533 0 1.092-.14a6 6 0 0 0 1.12-.392zm-.098 3.038v-7.42h1.344V509zm7.258.084q-1.191 0-2.1-.49a3.6 3.6 0 0 1-1.4-1.344q-.49-.854-.49-1.96t.476-1.96a3.5 3.5 0 0 1 1.33-1.33q.853-.49 1.918-.49 1.077 0 1.904.476.826.476 1.288 1.344.476.854.476 2.002 0 .084-.014.196 0 .112-.014.21h-6.314v-.966H277l-.546.336a2.5 2.5 0 0 0-.294-1.274 2.2 2.2 0 0 0-.854-.868q-.532-.322-1.246-.322-.7 0-1.246.322a2.15 2.15 0 0 0-.854.882q-.309.56-.308 1.288v.224q0 .742.336 1.33.35.574.966.896t1.414.322q.657 0 1.19-.224.546-.224.952-.672l.742.868a3.24 3.24 0 0 1-1.26.896 4.3 4.3 0 0 1-1.666.308m8.721 0q-1.134 0-2.03-.49a3.6 3.6 0 0 1-1.386-1.344q-.504-.854-.504-1.96t.504-1.96a3.5 3.5 0 0 1 1.386-1.33q.896-.49 2.03-.49 1.008 0 1.792.406.797.392 1.232 1.176l-1.022.658a2.2 2.2 0 0 0-.896-.798 2.4 2.4 0 0 0-1.12-.266q-.729 0-1.302.322a2.37 2.37 0 0 0-.91.91q-.336.574-.336 1.372t.336 1.386.91.91 1.302.322a2.5 2.5 0 0 0 1.12-.252q.531-.266.896-.812l1.022.644q-.434.77-1.232 1.19-.784.406-1.792.406m10.14-.084-2.87-3.612 1.106-.672 3.346 4.284zm-5.376 0v-7.42h1.344V509zm.938-3.136v-1.148h2.45v1.148zm2.786-.42-1.246-.168 2.842-3.696h1.442zm4.643 3.556v-7.42h1.344v5.404l4.55-5.404h1.218V509h-1.344v-5.404L297.41 509zm9.721 0v-7.42h1.344v5.404l4.55-5.404h1.218V509h-1.344v-5.404L307.131 509zm3.472-8.386q-1.023 0-1.61-.49-.575-.504-.588-1.442h.91q.014.533.35.84.35.308.924.308.573 0 .924-.308.35-.308.364-.84h.938q-.014.938-.602 1.442-.588.49-1.61.49M319.379 509v-7.42h6.874V509h-1.344v-6.58l.322.336h-4.83l.322-.336V509zm13.409.084q-.924 0-1.694-.42-.756-.434-1.218-1.274-.448-.84-.448-2.1t.434-2.1q.447-.84 1.204-1.26a3.54 3.54 0 0 1 1.722-.42q1.092 0 1.932.476t1.33 1.33q.49.84.49 1.974t-.49 1.988a3.5 3.5 0 0 1-1.33 1.33q-.84.476-1.932.476m-3.934 2.632V501.58h1.288v2.002l-.084 1.722.14 1.722v4.69zm3.822-3.808q.713 0 1.274-.322.573-.322.896-.91.336-.602.336-1.386 0-.798-.336-1.372a2.3 2.3 0 0 0-.896-.91 2.5 2.5 0 0 0-1.274-.322q-.7 0-1.274.322a2.4 2.4 0 0 0-.896.91q-.322.574-.322 1.372 0 .785.322 1.386.335.588.896.91.573.322 1.274.322m8.994 1.176q-1.12 0-1.988-.49a3.66 3.66 0 0 1-1.372-1.344q-.504-.868-.504-1.96 0-1.106.504-1.96a3.55 3.55 0 0 1 1.372-1.33q.869-.49 1.988-.49 1.107 0 1.974.49a3.4 3.4 0 0 1 1.372 1.33q.504.84.504 1.96 0 1.106-.504 1.96a3.5 3.5 0 0 1-1.372 1.344q-.867.49-1.974.49m0-1.176q.714 0 1.274-.322.575-.322.896-.91.322-.602.322-1.386 0-.798-.322-1.372a2.27 2.27 0 0 0-.896-.91 2.5 2.5 0 0 0-1.274-.322q-.713 0-1.274.322a2.4 2.4 0 0 0-.896.91q-.336.574-.336 1.372 0 .785.336 1.386.336.588.896.91t1.274.322m9.095 1.176q-1.19 0-2.1-.49a3.6 3.6 0 0 1-1.4-1.344q-.49-.854-.49-1.96t.476-1.96a3.5 3.5 0 0 1 1.33-1.33 3.8 3.8 0 0 1 1.918-.49q1.079 0 1.904.476.826.476 1.288 1.344.476.854.476 2.002 0 .084-.014.196 0 .112-.014.21h-6.314v-.966h5.614l-.546.336a2.5 2.5 0 0 0-.294-1.274 2.2 2.2 0 0 0-.854-.868q-.531-.322-1.246-.322-.7 0-1.246.322a2.16 2.16 0 0 0-.854.882 2.63 2.63 0 0 0-.308 1.288v.224q0 .742.336 1.33.351.574.966.896.616.322 1.414.322.659 0 1.19-.224.546-.224.952-.672l.742.868a3.24 3.24 0 0 1-1.26.896 4.3 4.3 0 0 1-1.666.308m10.863-.084-2.87-3.612 1.106-.672L363.21 509zm-5.376 0v-7.42h1.344V509zm.938-3.136v-1.148h2.45v1.148zm2.786-.42-1.246-.168 2.842-3.696h1.442zm5.99 3.556v-6.594l.336.35h-3.052v-1.176h6.776v1.176h-3.038l.322-.35V509zm5.841-1.036h-1.232l1.974-2.674-1.974-2.688h1.232l2.016 2.688zm2.688 0h-1.232l1.974-2.674-1.974-2.688h1.232l2.016 2.688zm-247.604 69.948.286-.88q.572.209 1.056.11.484-.11.869-.737l.374-.594.11-.121 2.827-5.39h1.089l-3.421 6.336q-.385.726-.902 1.1a2.05 2.05 0 0 1-1.1.396 2.5 2.5 0 0 1-1.188-.22m2.662-1.243-3.377-6.369h1.177l2.805 5.489zm6.437-.583q-1.056 0-1.672-.495-.605-.495-.605-1.529v-1.892h1.056v1.826q0 .627.385.924.396.297 1.056.297.418 0 .858-.11a5 5 0 0 0 .88-.308v.814a5.5 5.5 0 0 1-.957.352 4 4 0 0 1-1.001.121m1.881 1.914v-5.83h1.056V578zm6.197.066q-.726 0-1.331-.33a2.5 2.5 0 0 1-.957-1.001q-.352-.66-.352-1.65t.341-1.65q.352-.66.946-.99.605-.33 1.353-.33.858 0 1.518.374t1.045 1.045q.385.66.385 1.551t-.385 1.562a2.75 2.75 0 0 1-1.045 1.045q-.66.374-1.518.374m-3.091 2.068v-7.964h1.012v1.573l-.066 1.353.11 1.353v3.685zm3.003-2.992q.561 0 1.001-.253.451-.253.704-.715.264-.473.264-1.089 0-.627-.264-1.078a1.8 1.8 0 0 0-.704-.715 1.97 1.97 0 0 0-1.001-.253q-.55 0-1.001.253a1.9 1.9 0 0 0-.704.715q-.253.451-.253 1.078 0 .616.253 1.089.264.462.704.715.451.253 1.001.253m7.166.924q-.934 0-1.65-.385a2.83 2.83 0 0 1-1.1-1.056q-.384-.671-.385-1.54 0-.869.374-1.54a2.75 2.75 0 0 1 1.045-1.045q.672-.385 1.507-.385.848 0 1.496.374.65.373 1.012 1.056.375.671.374 1.573 0 .066-.011.154 0 .089-.011.165h-4.961v-.759h4.411l-.429.264a1.95 1.95 0 0 0-.231-1.001 1.7 1.7 0 0 0-.671-.682 1.85 1.85 0 0 0-.979-.253 1.9 1.9 0 0 0-.979.253 1.7 1.7 0 0 0-.671.693 2.1 2.1 0 0 0-.242 1.012v.176q0 .583.264 1.045.276.451.759.704a2.36 2.36 0 0 0 1.111.253q.518 0 .935-.176.43-.175.748-.528l.583.682a2.54 2.54 0 0 1-.99.704 3.4 3.4 0 0 1-1.309.242m11.069-.066-1.859-2.838.869-.528 2.244 3.366zm-7.799 0 2.233-3.366.869.528L155.67 578zm2.145-2.794-1.991-3.036h1.122l1.859 2.904zm.286.33v-.902h1.881v.902zm1.562 2.464v-5.83h1.056V578zm.737-2.464v-.902h1.892v.902zm2.178-.33-1.001-.132 1.859-2.904h1.133zm3.648 2.057-1.045-.187a.68.68 0 0 0 .55-.22q.21-.241.319-.66.122-.418.176-.946.055-.539.088-1.111l.088-1.969h4.521v5.335h-1.056v-4.411h-2.53l-.055 1.122q-.021.55-.077 1.067-.043.506-.154.935a1.9 1.9 0 0 1-.297.704.83.83 0 0 1-.528.341m-1.276 2.09v-2.277h6.864v2.277h-.99V578h-4.873v1.353zm10.836-1.287q-.934 0-1.65-.385a2.83 2.83 0 0 1-1.1-1.056q-.385-.671-.385-1.54t.374-1.54a2.75 2.75 0 0 1 1.045-1.045 2.97 2.97 0 0 1 1.507-.385q.847 0 1.496.374.65.373 1.012 1.056.374.671.374 1.573 0 .066-.011.154 0 .089-.011.165h-4.961v-.759h4.411l-.429.264a1.97 1.97 0 0 0-.231-1.001 1.7 1.7 0 0 0-.671-.682 1.85 1.85 0 0 0-.979-.253q-.55 0-.979.253-.43.241-.671.693a2.1 2.1 0 0 0-.242 1.012v.176q0 .583.264 1.045.275.451.759.704a2.36 2.36 0 0 0 1.111.253q.517 0 .935-.176.429-.175.748-.528l.583.682a2.54 2.54 0 0 1-.99.704 3.4 3.4 0 0 1-1.309.242m4.311-.066v-5.83h1.056v2.475h3.322v-2.475h1.056V578h-1.056v-2.442h-3.322V578zm7.488 0v-5.83h1.056v4.246l3.575-4.246h.957V578h-1.056v-4.246L187.299 578zm10.233.066q-.934 0-1.65-.385a2.83 2.83 0 0 1-1.1-1.056q-.384-.671-.385-1.54 0-.869.374-1.54a2.75 2.75 0 0 1 1.045-1.045q.672-.385 1.507-.385.848 0 1.496.374.65.373 1.012 1.056.375.671.374 1.573 0 .066-.011.154 0 .089-.011.165h-4.961v-.759h4.411l-.429.264a1.95 1.95 0 0 0-.231-1.001 1.7 1.7 0 0 0-.671-.682 1.85 1.85 0 0 0-.979-.253 1.9 1.9 0 0 0-.979.253 1.7 1.7 0 0 0-.671.693 2.1 2.1 0 0 0-.242 1.012v.176q0 .583.264 1.045.276.451.759.704a2.36 2.36 0 0 0 1.111.253q.518 0 .935-.176.43-.175.748-.528l.583.682a2.54 2.54 0 0 1-.99.704 3.4 3.4 0 0 1-1.309.242m4.543-4.444a.74.74 0 0 1-.528-.209.75.75 0 0 1-.22-.55q0-.33.22-.539a.74.74 0 0 1 .528-.209q.297 0 .506.209.22.209.22.539a.75.75 0 0 1-.22.55.7.7 0 0 1-.506.209m0 4.444a.74.74 0 0 1-.528-.209.75.75 0 0 1-.22-.55q0-.33.22-.539a.74.74 0 0 1 .528-.209q.297 0 .506.209.22.209.22.539a.75.75 0 0 1-.22.55.7.7 0 0 1-.506.209M212.02 578v-7.7h1.1v7.7zm-5.522 0v-7.7h1.1v7.7zm.99-3.432v-.957h4.631v.957zM218.92 578v-1.232l-.055-.231v-2.101q0-.67-.396-1.034-.384-.374-1.166-.374-.517 0-1.012.176-.495.165-.836.451l-.44-.792q.451-.363 1.078-.55a4.5 4.5 0 0 1 1.331-.198q1.2 0 1.848.583.65.583.649 1.782V578zm-1.914.066a2.8 2.8 0 0 1-1.144-.22 1.77 1.77 0 0 1-.748-.605 1.57 1.57 0 0 1-.264-.891q0-.472.22-.858.231-.385.737-.616.517-.231 1.386-.231h1.848v.759h-1.804q-.792 0-1.067.264a.85.85 0 0 0-.275.638q0 .429.341.693.342.253.946.253a1.97 1.97 0 0 0 1.034-.264q.451-.264.649-.77l.209.726q-.209.518-.737.825-.528.297-1.331.297m6.522.011q-.66 0-1.298-.165a4 4 0 0 1-1.122-.495l.319-.803q.417.264.957.418a4.2 4.2 0 0 0 1.089.143q.506 0 .869-.121.374-.122.572-.33a.73.73 0 0 0 .198-.506.7.7 0 0 0-.363-.627q-.364-.22-1.012-.22h-1.254v-.759h1.188q.384 0 .671-.088a.94.94 0 0 0 .44-.264.63.63 0 0 0 .165-.429.62.62 0 0 0-.187-.451 1.2 1.2 0 0 0-.528-.286 2.7 2.7 0 0 0-.781-.099 4.4 4.4 0 0 0-.902.121 4.6 4.6 0 0 0-.924.341l-.286-.825a5.7 5.7 0 0 1 1.034-.385 4.2 4.2 0 0 1 1.023-.154 3.9 3.9 0 0 1 1.353.176q.593.187.935.55.352.363.352.858 0 .418-.264.748a1.8 1.8 0 0 1-.704.506 2.6 2.6 0 0 1-1.012.187l.044-.253q.978 0 1.54.385.561.385.561 1.045 0 .528-.352.935-.353.396-.957.627-.594.22-1.364.22m4.278-.077v-5.83h2.706q1.023 0 1.606.396.594.385.594 1.1t-.561 1.111q-.55.385-1.463.385l.165-.286q1.046 0 1.551.385.507.385.506 1.133 0 .759-.572 1.188-.56.418-1.727.418zm1.034-.814h1.694q.66 0 .99-.198.33-.208.33-.66 0-.462-.308-.671-.297-.22-.946-.22h-1.76zm0-2.508h1.584q.606 0 .913-.22a.74.74 0 0 0 .319-.638q0-.419-.319-.627-.307-.209-.913-.209h-1.584zm9.298 3.322v-1.232l-.055-.231v-2.101q0-.67-.396-1.034-.385-.374-1.166-.374-.517 0-1.012.176-.495.165-.836.451l-.44-.792q.451-.363 1.078-.55a4.5 4.5 0 0 1 1.331-.198q1.198 0 1.848.583t.649 1.782V578zm-1.914.066q-.65 0-1.144-.22a1.77 1.77 0 0 1-.748-.605 1.57 1.57 0 0 1-.264-.891q0-.472.22-.858.231-.385.737-.616.518-.231 1.386-.231h1.848v.759h-1.804q-.792 0-1.067.264a.85.85 0 0 0-.275.638q0 .429.341.693.341.253.946.253a1.97 1.97 0 0 0 1.034-.264q.451-.264.649-.77l.209.726q-.209.518-.737.825-.528.297-1.331.297m4.817-.066v-5.83h1.056v2.475h3.322v-2.475h1.056V578h-1.056v-2.442h-3.322V578zm7.487 0v-5.83h1.056v4.246l3.575-4.246h.957V578h-1.056v-4.246L249.496 578zm10.234.066q-.936 0-1.65-.385a2.8 2.8 0 0 1-1.1-1.056q-.385-.671-.385-1.54t.374-1.54a2.75 2.75 0 0 1 1.045-1.045 2.97 2.97 0 0 1 1.507-.385q.846 0 1.496.374.649.373 1.012 1.056.374.671.374 1.573 0 .066-.011.154 0 .089-.011.165h-4.961v-.759h4.411l-.429.264a1.97 1.97 0 0 0-.231-1.001 1.7 1.7 0 0 0-.671-.682 1.85 1.85 0 0 0-.979-.253q-.55 0-.979.253-.43.241-.671.693a2.06 2.06 0 0 0-.242 1.012v.176q0 .583.264 1.045.274.451.759.704.483.253 1.111.253.516 0 .935-.176.429-.175.748-.528l.583.682a2.54 2.54 0 0 1-.99.704 3.4 3.4 0 0 1-1.309.242M132.721 589v-7.7h1.1v7.7zm-5.522 0v-7.7h1.1v7.7zm.99-3.432v-.957h4.631v.957zM139.621 589v-1.232l-.055-.231v-2.101q0-.67-.396-1.034-.384-.374-1.166-.374-.516 0-1.012.176-.495.165-.836.451l-.44-.792q.451-.363 1.078-.55a4.5 4.5 0 0 1 1.331-.198q1.2 0 1.848.583.65.583.649 1.782V589zm-1.914.066a2.8 2.8 0 0 1-1.144-.22 1.77 1.77 0 0 1-.748-.605 1.57 1.57 0 0 1-.264-.891q0-.472.22-.858.231-.385.737-.616.518-.231 1.386-.231h1.848v.759h-1.804q-.791 0-1.067.264a.85.85 0 0 0-.275.638q0 .429.341.693.342.253.946.253a1.97 1.97 0 0 0 1.034-.264q.451-.264.649-.77l.209.726q-.209.518-.737.825-.528.297-1.331.297m7.358 0q-.891 0-1.595-.385a2.85 2.85 0 0 1-1.089-1.056q-.396-.671-.396-1.54t.396-1.54a2.77 2.77 0 0 1 1.089-1.045q.704-.385 1.595-.385.792 0 1.408.319.627.308.968.924l-.803.517a1.74 1.74 0 0 0-.704-.627 1.9 1.9 0 0 0-.88-.209q-.571 0-1.023.253a1.86 1.86 0 0 0-.715.715q-.264.451-.264 1.078t.264 1.089.715.715q.452.253 1.023.253.473 0 .88-.198.418-.209.704-.638l.803.506q-.34.605-.968.935-.616.32-1.408.319m6.253 0q-.934 0-1.65-.385a2.83 2.83 0 0 1-1.1-1.056q-.384-.671-.385-1.54 0-.869.374-1.54a2.75 2.75 0 0 1 1.045-1.045q.672-.385 1.507-.385.848 0 1.496.374.65.373 1.012 1.056.375.671.374 1.573 0 .066-.011.154 0 .089-.011.165h-4.961v-.759h4.411l-.429.264a1.95 1.95 0 0 0-.231-1.001 1.7 1.7 0 0 0-.671-.682 1.85 1.85 0 0 0-.979-.253 1.9 1.9 0 0 0-.979.253 1.7 1.7 0 0 0-.671.693 2.1 2.1 0 0 0-.242 1.012v.176q0 .583.264 1.045.276.451.759.704a2.36 2.36 0 0 0 1.111.253q.518 0 .935-.176.43-.175.748-.528l.583.682a2.54 2.54 0 0 1-.99.704 3.4 3.4 0 0 1-1.309.242m3.896.022a1.6 1.6 0 0 1-.308-.033 4 4 0 0 1-.341-.066l.066-.891.143.022a1 1 0 0 0 .121.011.67.67 0 0 0 .55-.242q.209-.242.308-.638.099-.407.143-.913t.066-1.012l.099-2.156h4.477V589h-1.056v-5.214l.253.308h-2.992l.242-.319-.077 1.617q-.033.77-.121 1.441-.089.671-.275 1.177-.177.505-.495.792-.309.286-.803.286m9.962-.022q-.936 0-1.65-.385a2.8 2.8 0 0 1-1.1-1.056q-.385-.671-.385-1.54t.374-1.54a2.75 2.75 0 0 1 1.045-1.045 2.97 2.97 0 0 1 1.507-.385q.846 0 1.496.374.649.373 1.012 1.056.374.671.374 1.573 0 .066-.011.154 0 .089-.011.165h-4.961v-.759h4.411l-.429.264a1.97 1.97 0 0 0-.231-1.001 1.7 1.7 0 0 0-.671-.682 1.85 1.85 0 0 0-.979-.253q-.55 0-.979.253-.43.241-.671.693a2.06 2.06 0 0 0-.242 1.012v.176q0 .583.264 1.045.275.451.759.704.483.253 1.111.253.516 0 .935-.176.429-.175.748-.528l.583.682a2.54 2.54 0 0 1-.99.704 3.4 3.4 0 0 1-1.309.242m4.311-.066v-5.83h1.056v2.475h3.322v-2.475h1.056V589h-1.056v-2.442h-3.322V589zm7.487 0v-5.83h1.056v2.475h3.322v-2.475h1.056V589h-1.056v-2.442h-3.322V589zm9.94.011-2.453-.011v-5.83h1.056v1.969l1.573.011q1.111.01 1.683.506.583.495.583 1.397 0 .946-.638 1.463-.627.505-1.804.495m-.077-.803q.705.01 1.078-.286.375-.297.374-.88 0-.572-.374-.836-.363-.264-1.078-.275l-1.32-.022v2.288zm3.388.792v-5.83h1.056V589zm3.11 0v-5.83h1.056v4.246l3.575-4.246h.957V589h-1.056v-4.246L194.303 589zm2.728-6.589q-.804 0-1.265-.385-.452-.396-.462-1.133h.715q.01.418.275.66.274.242.726.242.45 0 .726-.242.274-.241.286-.66h.737q-.012.737-.473 1.133-.462.385-1.265.385m7.863 6.589v-5.83h5.401V589h-1.056v-5.17l.253.264h-3.795l.253-.264V589zm7.742 2.2q-.418 0-.814-.143a1.85 1.85 0 0 1-.682-.396l.451-.792q.22.209.484.319t.561.11q.384 0 .638-.198.252-.198.473-.704l.363-.803.11-.132 2.288-5.291h1.034l-2.827 6.413q-.254.616-.572.968-.309.353-.682.495-.375.154-.825.154m1.386-2.013-2.662-6.017h1.1l2.266 5.192zm4.601-.187v-5.83h1.056v2.475h3.322v-2.475h1.056V589h-1.056v-2.442h-3.322V589zm11.711 0-2.255-2.838.869-.528 2.629 3.366zm-4.224 0v-5.83h1.056V589zm.737-2.464v-.902h1.925v.902zm2.189-.33-.979-.132 2.233-2.904h1.133zm4.707 2.794v-5.181l.264.275h-2.398v-.924h5.324v.924h-2.387l.253-.275V589zm4.5-4.378a.74.74 0 0 1-.528-.209.75.75 0 0 1-.22-.55q0-.33.22-.539a.74.74 0 0 1 .528-.209.7.7 0 0 1 .506.209q.22.209.22.539t-.22.55a.7.7 0 0 1-.506.209m0 4.444a.74.74 0 0 1-.528-.209.75.75 0 0 1-.22-.55q0-.33.22-.539a.74.74 0 0 1 .528-.209.7.7 0 0 1 .506.209q.22.209.22.539t-.22.55a.7.7 0 0 1-.506.209m10.914-.066v-7.7h1.1v7.7zm-5.522 0v-7.7h1.1v7.7zm.99-3.432v-.957h4.631v.957zM255.089 589v-1.232l-.055-.231v-2.101q0-.67-.396-1.034-.384-.374-1.166-.374-.516 0-1.012.176-.495.165-.836.451l-.44-.792q.451-.363 1.078-.55a4.5 4.5 0 0 1 1.331-.198q1.2 0 1.848.583.65.583.649 1.782V589zm-1.914.066a2.8 2.8 0 0 1-1.144-.22 1.77 1.77 0 0 1-.748-.605 1.57 1.57 0 0 1-.264-.891q0-.472.22-.858.231-.385.737-.616.517-.231 1.386-.231h1.848v.759h-1.804q-.792 0-1.067.264a.85.85 0 0 0-.275.638q0 .429.341.693.342.253.946.253a1.97 1.97 0 0 0 1.034-.264q.451-.264.649-.77l.209.726q-.209.518-.737.825-.528.297-1.331.297m6.522.011q-.66 0-1.298-.165a4 4 0 0 1-1.122-.495l.319-.803q.417.264.957.418a4.2 4.2 0 0 0 1.089.143q.506 0 .869-.121.374-.122.572-.33a.73.73 0 0 0 .198-.506.7.7 0 0 0-.363-.627q-.363-.22-1.012-.22h-1.254v-.759h1.188q.384 0 .671-.088a.94.94 0 0 0 .44-.264.63.63 0 0 0 .165-.429.62.62 0 0 0-.187-.451 1.2 1.2 0 0 0-.528-.286 2.7 2.7 0 0 0-.781-.099 4.4 4.4 0 0 0-.902.121 4.6 4.6 0 0 0-.924.341l-.286-.825a5.7 5.7 0 0 1 1.034-.385 4.2 4.2 0 0 1 1.023-.154 3.9 3.9 0 0 1 1.353.176q.593.187.935.55.351.363.352.858 0 .418-.264.748a1.8 1.8 0 0 1-.704.506 2.6 2.6 0 0 1-1.012.187l.044-.253q.978 0 1.54.385.561.385.561 1.045 0 .528-.352.935-.352.396-.957.627-.594.22-1.364.22m4.278-.077v-5.83h2.706q1.023 0 1.606.396.594.385.594 1.1t-.561 1.111q-.55.385-1.463.385l.165-.286q1.046 0 1.551.385.506.385.506 1.133 0 .759-.572 1.188-.561.418-1.727.418zm1.034-.814h1.694q.66 0 .99-.198.33-.208.33-.66 0-.462-.308-.671-.297-.22-.946-.22h-1.76zm0-2.508h1.584q.605 0 .913-.22a.74.74 0 0 0 .319-.638q0-.419-.319-.627-.308-.209-.913-.209h-1.584zm9.298 3.322v-1.232l-.055-.231v-2.101q0-.67-.396-1.034-.385-.374-1.166-.374-.517 0-1.012.176-.495.165-.836.451l-.44-.792q.451-.363 1.078-.55a4.5 4.5 0 0 1 1.331-.198q1.199 0 1.848.583.65.583.649 1.782V589zm-1.914.066q-.65 0-1.144-.22a1.77 1.77 0 0 1-.748-.605 1.57 1.57 0 0 1-.264-.891q0-.472.22-.858.231-.385.737-.616.518-.231 1.386-.231h1.848v.759h-1.804q-.792 0-1.067.264a.85.85 0 0 0-.275.638q0 .429.341.693.341.253.946.253a1.97 1.97 0 0 0 1.034-.264q.451-.264.649-.77l.209.726q-.209.518-.737.825-.528.297-1.331.297m4.817-.066v-5.83h1.056v2.475h3.322v-2.475h1.056V589h-1.056v-2.442h-3.322V589zm7.487 0v-5.83h1.056v4.246l3.575-4.246h.957V589h-1.056v-4.246L285.665 589zm10.234.066q-.936 0-1.65-.385a2.8 2.8 0 0 1-1.1-1.056q-.385-.671-.385-1.54t.374-1.54a2.75 2.75 0 0 1 1.045-1.045 2.97 2.97 0 0 1 1.507-.385q.846 0 1.496.374.648.373 1.012 1.056.374.671.374 1.573 0 .066-.011.154 0 .089-.011.165h-4.961v-.759h4.411l-.429.264a1.97 1.97 0 0 0-.231-1.001 1.7 1.7 0 0 0-.671-.682 1.85 1.85 0 0 0-.979-.253q-.55 0-.979.253-.43.241-.671.693a2.06 2.06 0 0 0-.242 1.012v.176q0 .583.264 1.045.274.451.759.704.483.253 1.111.253.516 0 .935-.176.429-.175.748-.528l.583.682a2.54 2.54 0 0 1-.99.704 3.4 3.4 0 0 1-1.309.242M132.721 600v-7.7h1.1v7.7zm-5.522 0v-7.7h1.1v7.7zm.99-3.432v-.957h4.631v.957zm10.354 3.498q-.88 0-1.562-.385a2.9 2.9 0 0 1-1.078-1.056 3 3 0 0 1-.396-1.54q0-.869.396-1.54a2.8 2.8 0 0 1 1.078-1.045q.683-.385 1.562-.385.87 0 1.551.385.694.374 1.078 1.045.396.66.396 1.54 0 .869-.396 1.54a2.76 2.76 0 0 1-1.078 1.056q-.681.385-1.551.385m0-.924q.561 0 1.001-.253.452-.253.704-.715.253-.473.253-1.089 0-.627-.253-1.078a1.8 1.8 0 0 0-.704-.715 1.97 1.97 0 0 0-1.001-.253 1.97 1.97 0 0 0-1.001.253 1.9 1.9 0 0 0-.704.715q-.264.451-.264 1.078 0 .616.264 1.089.264.462.704.715a1.97 1.97 0 0 0 1.001.253m4.55.858v-5.83h1.089l2.508 4.312h-.44l2.574-4.312h.99V600h-.957v-4.642l.176.099-2.354 3.883h-.462l-2.365-3.96.209-.044V600zm8.777 0v-5.83h1.056v4.246l3.575-4.246h.957V600h-1.056v-4.246L152.838 600zm7.637 0v-5.83h1.056v2.475h3.322v-2.475h1.056V600h-1.056v-2.442h-3.322V600zm11.063 0v-1.232l-.055-.231v-2.101q0-.67-.396-1.034-.386-.374-1.166-.374-.517 0-1.012.176-.495.165-.836.451l-.44-.792q.45-.363 1.078-.55a4.5 4.5 0 0 1 1.331-.198q1.198 0 1.848.583.648.583.649 1.782V600zm-1.914.066q-.65 0-1.144-.22a1.77 1.77 0 0 1-.748-.605 1.57 1.57 0 0 1-.264-.891q0-.472.22-.858.23-.385.737-.616.516-.231 1.386-.231h1.848v.759h-1.804q-.792 0-1.067.264a.85.85 0 0 0-.275.638q0 .429.341.693.34.253.946.253.594 0 1.034-.264a1.5 1.5 0 0 0 .649-.77l.209.726q-.21.518-.737.825-.528.297-1.331.297m4.816-.066v-5.83h1.056v4.906h3.19v-4.906h1.056V600zm5.225 1.353v-1.408l.264.055h-1.243v-.924h1.98v2.277zm2.37-1.353v-5.83h1.056v4.246l3.575-4.246h.957V600h-1.056v-4.246L182.035 600zm11.367 0v-2.046l.165.198h-1.859q-1.166 0-1.826-.495-.65-.495-.649-1.441 0-1.012.693-1.529.703-.517 1.87-.517h2.552V600zm-4.224 0 1.584-2.233h1.089l-1.54 2.233zm4.224-2.376v-2.827l.165.297h-1.738q-.726 0-1.122.275-.396.264-.396.88 0 1.144 1.474 1.144h1.782zm3.237-2.002a.74.74 0 0 1-.528-.209.75.75 0 0 1-.22-.55q0-.33.22-.539a.74.74 0 0 1 .528-.209.7.7 0 0 1 .506.209q.22.209.22.539t-.22.55a.7.7 0 0 1-.506.209m0 4.444a.74.74 0 0 1-.528-.209.75.75 0 0 1-.22-.55q0-.33.22-.539a.74.74 0 0 1 .528-.209.7.7 0 0 1 .506.209q.22.209.22.539t-.22.55a.7.7 0 0 1-.506.209m10.913-.066v-7.7h1.1v7.7zm-5.522 0v-7.7h1.1v7.7zm.99-3.432v-.957h4.631v.957zM213.485 600v-1.232l-.055-.231v-2.101q0-.67-.396-1.034-.386-.374-1.166-.374-.517 0-1.012.176-.495.165-.836.451l-.44-.792q.45-.363 1.078-.55a4.5 4.5 0 0 1 1.331-.198q1.198 0 1.848.583.648.583.649 1.782V600zm-1.914.066q-.65 0-1.144-.22a1.77 1.77 0 0 1-.748-.605 1.57 1.57 0 0 1-.264-.891q0-.472.22-.858.23-.385.737-.616.516-.231 1.386-.231h1.848v.759h-1.804q-.792 0-1.067.264a.85.85 0 0 0-.275.638q0 .429.341.693.34.253.946.253.593 0 1.034-.264a1.5 1.5 0 0 0 .649-.77l.209.726q-.21.518-.737.825-.528.297-1.331.297m6.521.011q-.66 0-1.298-.165a4 4 0 0 1-1.122-.495l.319-.803q.419.264.957.418.54.143 1.089.143.506 0 .869-.121.375-.122.572-.33a.73.73 0 0 0 .198-.506.7.7 0 0 0-.363-.627q-.363-.22-1.012-.22h-1.254v-.759h1.188q.386 0 .671-.088a.93.93 0 0 0 .44-.264.63.63 0 0 0 .165-.429.6.6 0 0 0-.187-.451q-.186-.187-.528-.286a2.7 2.7 0 0 0-.781-.099 4.4 4.4 0 0 0-.902.121q-.45.11-.924.341l-.286-.825a6 6 0 0 1 1.034-.385 4.2 4.2 0 0 1 1.023-.154 3.9 3.9 0 0 1 1.353.176q.594.187.935.55.352.363.352.858 0 .418-.264.748a1.8 1.8 0 0 1-.704.506q-.44.187-1.012.187l.044-.253q.98 0 1.54.385.561.385.561 1.045 0 .528-.352.935-.351.396-.957.627-.593.22-1.364.22m4.279-.077v-5.83h2.706q1.023 0 1.606.396.594.385.594 1.1t-.561 1.111q-.55.385-1.463.385l.165-.286q1.044 0 1.551.385t.506 1.133q0 .759-.572 1.188-.561.418-1.727.418zm1.034-.814h1.694q.66 0 .99-.198.33-.208.33-.66 0-.462-.308-.671-.298-.22-.946-.22h-1.76zm0-2.508h1.584q.604 0 .913-.22a.75.75 0 0 0 .319-.638q0-.419-.319-.627-.309-.209-.913-.209h-1.584zm9.297 3.322v-1.232l-.055-.231v-2.101q0-.67-.396-1.034-.384-.374-1.166-.374-.516 0-1.012.176-.494.165-.836.451l-.44-.792q.451-.363 1.078-.55a4.5 4.5 0 0 1 1.331-.198q1.2 0 1.848.583.65.583.649 1.782V600zm-1.914.066a2.8 2.8 0 0 1-1.144-.22 1.77 1.77 0 0 1-.748-.605 1.57 1.57 0 0 1-.264-.891q0-.472.22-.858.231-.385.737-.616.517-.231 1.386-.231h1.848v.759h-1.804q-.791 0-1.067.264a.85.85 0 0 0-.275.638q0 .429.341.693.342.253.946.253a1.97 1.97 0 0 0 1.034-.264q.451-.264.649-.77l.209.726q-.209.518-.737.825-.528.297-1.331.297m4.817-.066v-5.83h1.056v2.475h3.322v-2.475h1.056V600h-1.056v-2.442h-3.322V600zm7.487 0v-5.83h1.056v4.246l3.575-4.246h.957V600h-1.056v-4.246L244.06 600zm10.234.066q-.934 0-1.65-.385a2.83 2.83 0 0 1-1.1-1.056q-.385-.671-.385-1.54t.374-1.54a2.75 2.75 0 0 1 1.045-1.045 2.97 2.97 0 0 1 1.507-.385q.847 0 1.496.374.65.373 1.012 1.056.374.671.374 1.573 0 .066-.011.154 0 .089-.011.165h-4.961v-.759h4.411l-.429.264a1.97 1.97 0 0 0-.231-1.001 1.7 1.7 0 0 0-.671-.682 1.85 1.85 0 0 0-.979-.253q-.55 0-.979.253-.43.241-.671.693a2.1 2.1 0 0 0-.242 1.012v.176q0 .583.264 1.045.275.451.759.704a2.36 2.36 0 0 0 1.111.253q.517 0 .935-.176.429-.175.748-.528l.583.682a2.54 2.54 0 0 1-.99.704 3.4 3.4 0 0 1-1.309.242M127.24 644.33l-.95-.17a.61.61 0 0 0 .5-.2q.19-.22.29-.6.11-.38.16-.86.05-.49.08-1.01l.08-1.79h4.11v4.85h-.96v-4.01h-2.3l-.05 1.02q-.02.5-.07.97-.04.46-.14.85-.09.39-.27.64a.75.75 0 0 1-.48.31m-1.16 1.9v-2.07h6.24v2.07h-.9V645h-4.43v1.23zm10.741-1.23v-1.12l-.05-.21v-1.91q0-.61-.36-.94-.35-.34-1.06-.34-.47 0-.92.16a2.3 2.3 0 0 0-.76.41l-.4-.72q.41-.33.98-.5.58-.18 1.21-.18 1.089 0 1.68.53.59.53.59 1.62v3.2zm-1.74.06q-.59 0-1.04-.2a1.6 1.6 0 0 1-.68-.55q-.24-.36-.24-.81 0-.43.2-.78.21-.35.67-.56.47-.21 1.26-.21h1.68v.69h-1.64q-.72 0-.97.24a.77.77 0 0 0-.25.58q0 .39.31.63.31.23.86.23.54 0 .94-.24.41-.24.59-.7l.19.66q-.19.47-.67.75-.48.27-1.21.27m5.428-.06v-4.71l.24.25h-2.18v-.84h4.84v.84h-2.17l.23-.25V645zm7.132 0v-1.12l-.05-.21v-1.91q0-.61-.36-.94-.35-.34-1.06-.34-.47 0-.92.16-.45.15-.76.41l-.4-.72q.41-.33.98-.5.58-.18 1.21-.18 1.09 0 1.68.53t.59 1.62v3.2zm-1.74.06q-.59 0-1.04-.2a1.6 1.6 0 0 1-.68-.55q-.24-.36-.24-.81 0-.43.2-.78.21-.35.67-.56.47-.21 1.26-.21h1.68v.69h-1.64q-.72 0-.97.24a.77.77 0 0 0-.25.58q0 .39.31.63.31.23.86.23.54 0 .94-.24.41-.24.59-.7l.19.66q-.19.47-.67.75-.48.27-1.21.27m7.064-.06v-5.3h2.46q.93 0 1.46.36.54.35.54 1t-.51 1.01q-.5.35-1.33.35l.15-.26q.95 0 1.41.35t.46 1.03q0 .69-.52 1.08-.51.38-1.57.38zm.94-.74h1.54q.6 0 .9-.18.3-.19.3-.6 0-.42-.28-.61-.27-.2-.86-.2h-1.6zm0-2.28h1.44q.55 0 .83-.2a.68.68 0 0 0 .29-.58q0-.38-.29-.57-.28-.19-.83-.19h-1.44zm7.433 3.03-2.23-.01v-5.3h.96v1.79l1.43.01q1.01.01 1.53.46.53.45.53 1.27 0 .86-.58 1.33-.57.46-1.64.45m-.07-.73q.64.01.98-.26t.34-.8q0-.52-.34-.76-.33-.24-.98-.25l-1.2-.02v2.08zm3.08.72v-5.3h.96v5.3zm3.136-.67-.95-.17a.61.61 0 0 0 .5-.2q.19-.22.29-.6.11-.38.16-.86.05-.49.08-1.01l.08-1.79h4.11v4.85h-.96v-4.01h-2.3l-.05 1.02q-.02.5-.07.97-.04.46-.14.85-.09.39-.27.64a.75.75 0 0 1-.48.31m-1.16 1.9v-2.07h6.24v2.07h-.9V645h-4.43v1.23zm10.741-1.23v-1.12l-.05-.21v-1.91q0-.61-.36-.94-.35-.34-1.06-.34-.47 0-.92.16a2.3 2.3 0 0 0-.76.41l-.4-.72q.41-.33.98-.5.58-.18 1.21-.18 1.089 0 1.68.53.59.53.59 1.62v3.2zm-1.74.06q-.59 0-1.04-.2a1.6 1.6 0 0 1-.68-.55q-.24-.36-.24-.81 0-.43.2-.78.21-.35.67-.56.47-.21 1.26-.21h1.68v.69h-1.64q-.72 0-.97.24a.77.77 0 0 0-.25.58q0 .39.31.63.31.23.86.23.54 0 .94-.24.41-.24.59-.7l.19.66q-.19.47-.67.75-.48.27-1.21.27m5.938-1.8q-.96 0-1.52-.45-.55-.45-.55-1.39v-1.72h.96v1.66q0 .57.35.84.36.27.96.27.381 0 .78-.1.41-.1.8-.28v.74q-.42.2-.87.32-.44.11-.91.11m1.71 1.74v-5.3h.96v5.3zm2.824 0v-5.3h.96v3.86l3.25-3.86h.87v5.3h-.96v-3.86l-3.24 3.86zm-56.057 28.06q-.66 0-1.21-.3-.54-.31-.87-.91-.32-.6-.32-1.5t.31-1.5q.32-.6.86-.9.55-.3 1.23-.3.78 0 1.38.34t.95.95q.35.6.35 1.41t-.35 1.42-.95.95-1.38.34m-2.81 1.88v-7.24h.92v1.43l-.06 1.23.1 1.23v3.35zm2.73-2.72q.51 0 .91-.23.41-.23.64-.65.24-.43.24-.99 0-.57-.24-.98a1.6 1.6 0 0 0-.64-.65 1.8 1.8 0 0 0-.91-.23q-.5 0-.91.23-.4.23-.64.65-.23.41-.23.98 0 .56.23.99.24.42.64.65.41.23.91.23m4.278 2.78q-.38 0-.74-.13-.36-.12-.62-.36l.41-.72q.2.19.44.29t.51.1a.9.9 0 0 0 .58-.18q.23-.18.43-.64l.33-.73.1-.12 2.08-4.81h.94l-2.57 5.83q-.23.56-.52.88a1.6 1.6 0 0 1-.62.45q-.339.14-.75.14m1.26-1.83-2.42-5.47h1l2.06 4.72zm8.023-.17-2.05-2.58.79-.48 2.39 3.06zm-3.84 0v-5.3h.96v5.3zm.67-2.24v-.82h1.75v.82zm1.99-.3-.89-.12 2.03-2.64h1.03zm5.43 2.6a2.84 2.84 0 0 1-1.42-.35 2.6 2.6 0 0 1-.98-.96q-.36-.62-.36-1.4 0-.79.36-1.4t.98-.95q.62-.35 1.42-.35.79 0 1.41.35.63.34.98.95.36.6.36 1.4 0 .79-.36 1.4-.35.61-.98.96a2.8 2.8 0 0 1-1.41.35m0-.84q.51 0 .91-.23.41-.23.64-.65.23-.43.23-.99 0-.57-.23-.98a1.6 1.6 0 0 0-.64-.65 1.8 1.8 0 0 0-.91-.23q-.51 0-.91.23t-.64.65q-.24.41-.24.98 0 .56.24.99.24.42.64.65t.91.23m4.137.78v-5.3h2.46q.93 0 1.46.36.54.35.54 1t-.51 1.01q-.5.35-1.33.35l.15-.26q.95 0 1.41.35t.46 1.03q0 .69-.52 1.08-.51.38-1.57.38zm.94-.74h1.54q.6 0 .9-.18.3-.19.3-.6 0-.42-.28-.61-.27-.2-.86-.2h-1.6zm0-2.28h1.44q.55 0 .83-.2a.68.68 0 0 0 .29-.58q0-.38-.29-.57-.28-.19-.83-.19h-1.44zm7.472 3.08a2.84 2.84 0 0 1-1.42-.35 2.6 2.6 0 0 1-.98-.96q-.36-.62-.36-1.4 0-.79.36-1.4t.98-.95q.62-.35 1.42-.35.79 0 1.41.35.63.34.98.95.36.6.36 1.4 0 .79-.36 1.4-.35.61-.98.96a2.8 2.8 0 0 1-1.41.35m0-.84q.51 0 .91-.23.41-.23.64-.65.23-.43.23-.99 0-.57-.23-.98a1.6 1.6 0 0 0-.64-.65 1.8 1.8 0 0 0-.91-.23q-.51 0-.91.23t-.64.65q-.24.41-.24.98 0 .56.24.99.24.42.64.65t.91.23m4.408.11-.95-.17a.61.61 0 0 0 .5-.2q.19-.22.29-.6.11-.38.16-.86.05-.49.079-1.01l.081-1.79h4.109v4.85h-.959v-4.01h-2.3l-.05 1.02q-.02.5-.07.97-.04.46-.14.85-.09.39-.27.64a.75.75 0 0 1-.48.31m-1.16 1.9v-2.07h6.24v2.07h-.9V673h-4.43v1.23zm7.49-1.23v-5.3h.96v3.86l3.25-3.86h.87v5.3h-.96v-3.86l-3.24 3.86zm7.993 0v-4.71l.24.25h-2.18v-.84h4.84v.84h-2.17l.23-.25V673zm6.008.06q-.85 0-1.5-.35a2.56 2.56 0 0 1-1-.96q-.35-.61-.35-1.4t.34-1.4q.35-.61.95-.95.61-.35 1.37-.35.77 0 1.36.34t.92.96q.34.61.34 1.43 0 .06-.01.14 0 .08-.01.15h-4.51v-.69h4.01l-.39.24a1.8 1.8 0 0 0-.21-.91 1.56 1.56 0 0 0-.61-.62 1.7 1.7 0 0 0-.89-.23q-.5 0-.89.23-.39.22-.61.63-.22.4-.22.92v.16q0 .53.24.95.249.41.69.64t1.01.23q.47 0 .85-.16.39-.16.68-.48l.53.62q-.36.42-.9.64-.53.22-1.19.22m3.541.02q-.13 0-.28-.03a3 3 0 0 1-.31-.06l.06-.81.13.02q.06.01.11.01a.61.61 0 0 0 .5-.22q.19-.22.28-.58.09-.37.13-.83t.06-.92l.09-1.96h4.07v5.3h-.96v-4.74l.23.28h-2.72l.22-.29-.07 1.47q-.03.7-.11 1.31a5 5 0 0 1-.25 1.07q-.16.46-.45.72-.28.26-.73.26m8.996-.07-2.3-.01v-5.3h.96v1.79l1.49.01q1.01.01 1.54.46t.53 1.27q0 .86-.58 1.33-.58.46-1.64.45m-.08-.73q.65.01.98-.26.34-.27.34-.8 0-.52-.33-.76t-.99-.25l-1.26-.02v2.08z"/><path fill="#07f" d="M191.388 486v-9.8h4.564q1.708 0 2.66.658t.952 1.876q0 1.204-.896 1.876-.896.658-2.38.658l.266-.588q1.652 0 2.562.658t.91 1.904q0 1.288-.98 2.03-.966.728-2.828.728zm2.254-1.68h2.492q.784 0 1.19-.308t.406-.952q0-.616-.406-.91-.406-.308-1.19-.308h-2.492zm0-4.06h2.114q.742 0 1.12-.294.378-.308.378-.896t-.378-.882q-.378-.308-1.12-.308h-2.114zm12.812 5.908a6 6 0 0 1-2.114-.364 4.98 4.98 0 0 1-2.8-2.674 5.1 5.1 0 0 1-.392-2.03q0-1.106.392-2.03a5 5 0 0 1 1.12-1.61 5 5 0 0 1 1.694-1.05 5.8 5.8 0 0 1 2.114-.378q1.273 0 2.296.448a4.4 4.4 0 0 1 1.736 1.288l-1.456 1.344a3.3 3.3 0 0 0-1.12-.854 3.1 3.1 0 0 0-1.344-.294 3.4 3.4 0 0 0-1.26.224 2.85 2.85 0 0 0-.994.644q-.42.42-.658.994-.224.574-.224 1.274t.224 1.274q.237.574.658.994.42.42.994.644a3.4 3.4 0 0 0 1.26.224q.727 0 1.344-.28.615-.294 1.12-.882l1.456 1.344a4.55 4.55 0 0 1-1.736 1.302q-1.023.448-2.31.448m7.61-6.02h4.718v1.764h-4.718zm.168 4.032h5.334V486h-7.588v-9.8h7.406v1.82h-5.152zm7.166 1.82v-9.8h4.242q1.315 0 2.268.434.951.42 1.47 1.218.518.798.518 1.904 0 1.092-.518 1.89-.519.798-1.47 1.232-.953.42-2.268.42h-2.982l1.008-1.022V486zm2.268-3.472-1.008-1.078h2.856q1.05 0 1.568-.448t.518-1.246q0-.812-.518-1.26t-1.568-.448h-2.856l1.008-1.078zm12.553 3.64a6 6 0 0 1-2.156-.378 5.2 5.2 0 0 1-1.708-1.064 5 5 0 0 1-1.12-1.61 5.1 5.1 0 0 1-.392-2.016q0-1.092.392-2.016a4.9 4.9 0 0 1 1.134-1.61 5.2 5.2 0 0 1 1.708-1.064 5.9 5.9 0 0 1 2.128-.378q1.161 0 2.128.378a5 5 0 0 1 1.694 1.064 4.9 4.9 0 0 1 1.134 1.61q.406.91.406 2.016 0 1.092-.406 2.03a4.9 4.9 0 0 1-1.134 1.61 5.1 5.1 0 0 1-1.694 1.05 5.8 5.8 0 0 1-2.114.378m-.014-1.932q.657 0 1.204-.224.56-.224.98-.644t.644-.994q.237-.574.238-1.274 0-.7-.238-1.274a2.9 2.9 0 0 0-.644-.994 2.7 2.7 0 0 0-.966-.644 3.3 3.3 0 0 0-1.218-.224q-.659 0-1.218.224a2.9 2.9 0 0 0-.966.644q-.42.42-.658.994-.224.574-.224 1.274 0 .686.224 1.274.237.574.644.994.42.42.98.644t1.218.224m11.743 1.932a6 6 0 0 1-2.114-.364 4.98 4.98 0 0 1-2.8-2.674 5.1 5.1 0 0 1-.392-2.03q0-1.106.392-2.03a5 5 0 0 1 1.12-1.61 5 5 0 0 1 1.694-1.05 5.8 5.8 0 0 1 2.114-.378q1.273 0 2.296.448a4.4 4.4 0 0 1 1.736 1.288l-1.456 1.344a3.3 3.3 0 0 0-1.12-.854 3.1 3.1 0 0 0-1.344-.294 3.4 3.4 0 0 0-1.26.224 2.85 2.85 0 0 0-.994.644q-.42.42-.658.994-.224.574-.224 1.274t.224 1.274q.237.574.658.994.42.42.994.644a3.4 3.4 0 0 0 1.26.224q.728 0 1.344-.28.615-.294 1.12-.882l1.456 1.344a4.55 4.55 0 0 1-1.736 1.302q-1.023.448-2.31.448m9.953 0a6 6 0 0 1-2.114-.364 4.98 4.98 0 0 1-2.8-2.674 5.1 5.1 0 0 1-.392-2.03q0-1.106.392-2.03a5 5 0 0 1 1.12-1.61 5 5 0 0 1 1.694-1.05 5.8 5.8 0 0 1 2.114-.378q1.273 0 2.296.448a4.4 4.4 0 0 1 1.736 1.288l-1.456 1.344a3.3 3.3 0 0 0-1.12-.854 3.1 3.1 0 0 0-1.344-.294 3.4 3.4 0 0 0-1.26.224 2.85 2.85 0 0 0-.994.644q-.42.42-.658.994-.225.574-.224 1.274 0 .7.224 1.274.237.574.658.994.42.42.994.644a3.4 3.4 0 0 0 1.26.224q.728 0 1.344-.28.615-.294 1.12-.882l1.456 1.344a4.55 4.55 0 0 1-1.736 1.302q-1.023.448-2.31.448m5.524-.168v-9.8h2.254v6.384l4.676-6.384h2.128v9.8h-2.24v-6.37l-4.676 6.37zm11.498 0v-9.8h2.254v6.384l4.676-6.384h2.128v9.8h-2.24v-6.37l-4.676 6.37zm4.522-10.43q-1.4 0-2.058-.56-.644-.56-.658-1.582h1.554q.014.504.294.77.294.252.868.252.56 0 .854-.252.294-.266.308-.77h1.554q-.014 1.022-.672 1.582t-2.044.56m11.61 10.598a6 6 0 0 1-2.114-.364 5.1 5.1 0 0 1-1.68-1.064 5 5 0 0 1-1.12-1.61 5.2 5.2 0 0 1-.392-2.03q0-1.106.392-2.03a5 5 0 0 1 1.12-1.61 5 5 0 0 1 1.694-1.05 5.8 5.8 0 0 1 2.114-.378q1.274 0 2.296.448a4.4 4.4 0 0 1 1.736 1.288l-1.456 1.344a3.3 3.3 0 0 0-1.12-.854 3.1 3.1 0 0 0-1.344-.294q-.685 0-1.26.224a2.85 2.85 0 0 0-.994.644q-.42.42-.658.994a3.5 3.5 0 0 0-.224 1.274q0 .7.224 1.274.238.574.658.994t.994.644 1.26.224q.728 0 1.344-.28.616-.294 1.12-.882l1.456 1.344a4.55 4.55 0 0 1-1.736 1.302q-1.022.448-2.31.448m11.866-.168-3.052-4.718 1.834-1.106 3.794 5.824zm-6.37 0v-9.8h2.254v9.8zm1.596-3.948v-1.89h3.416v1.89zm3.766-.7-2.086-.252 3.178-4.9h2.394zM306.56 486v-9.8h2.254v6.384l4.676-6.384h2.128v9.8h-2.24v-6.37l-4.676 6.37zm11.498 0v-9.8h2.254v6.384l4.676-6.384h2.128v9.8h-2.24v-6.37L320.2 486zm4.522-10.43q-1.4 0-2.058-.56-.644-.56-.658-1.582h1.554q.014.504.294.77.294.252.868.252.56 0 .854-.252.294-.266.308-.77h1.554q-.014 1.022-.672 1.582t-2.044.56M339.863 486l-3.052-4.718 1.834-1.106 3.794 5.824zm-6.37 0v-9.8h2.254v9.8zm1.596-3.948v-1.89h3.416v1.89zm3.766-.7-2.086-.252 3.178-4.9h2.394zm9.295 4.816a6 6 0 0 1-2.156-.378 5.2 5.2 0 0 1-1.708-1.064 5 5 0 0 1-1.12-1.61 5.1 5.1 0 0 1-.392-2.016q0-1.092.392-2.016a4.9 4.9 0 0 1 1.134-1.61 5.2 5.2 0 0 1 1.708-1.064 5.9 5.9 0 0 1 2.128-.378q1.162 0 2.128.378a5 5 0 0 1 1.694 1.064q.729.686 1.134 1.61a4.9 4.9 0 0 1 .406 2.016q0 1.092-.406 2.03a4.9 4.9 0 0 1-1.134 1.61 5.1 5.1 0 0 1-1.694 1.05 5.8 5.8 0 0 1-2.114.378m-.014-1.932q.658 0 1.204-.224a2.88 2.88 0 0 0 1.624-1.638 3.3 3.3 0 0 0 .238-1.274 3.3 3.3 0 0 0-.238-1.274 2.85 2.85 0 0 0-.644-.994 2.7 2.7 0 0 0-.966-.644 3.3 3.3 0 0 0-1.218-.224q-.657 0-1.218.224a2.9 2.9 0 0 0-.966.644q-.42.42-.658.994a3.5 3.5 0 0 0-.224 1.274q0 .686.224 1.274.239.574.644.994.42.42.98.644.561.224 1.218.224m13.829-8.036h2.268v9.8h-2.268zm-4.452 9.8h-2.268v-9.8h2.268zm4.62-4.018h-4.788v-1.918h4.788zM373.031 486l-3.052-4.718 1.834-1.106 3.794 5.824zm-6.37 0v-9.8h2.254v9.8zm1.596-3.948v-1.89h3.416v1.89zm3.766-.7-2.086-.252 3.178-4.9h2.394zm5.146 2.8q.813.238 1.358.14.56-.112.994-.784l.476-.714.21-.238 3.248-6.356h2.226l-4.172 7.756q-.56 1.05-1.33 1.61a3.16 3.16 0 0 1-1.666.63q-.909.084-1.89-.322zm2.996.294-4.424-8.246h2.422l3.248 6.58zm6.594 1.554v-9.8h4.242q1.315 0 2.268.434.952.42 1.47 1.218t.518 1.904q0 1.092-.518 1.89t-1.47 1.232q-.952.42-2.268.42h-2.982l1.008-1.022V486zm2.268-3.472-1.008-1.078h2.856q1.05 0 1.568-.448t.518-1.246q0-.812-.518-1.26t-1.568-.448h-2.856l1.008-1.078zm12.497 3.64a6 6 0 0 1-2.114-.364 5.1 5.1 0 0 1-1.68-1.064 5 5 0 0 1-1.12-1.61 5.2 5.2 0 0 1-.392-2.03q0-1.106.392-2.03a5 5 0 0 1 1.12-1.61 5 5 0 0 1 1.694-1.05 5.8 5.8 0 0 1 2.114-.378q1.274 0 2.296.448a4.4 4.4 0 0 1 1.736 1.288l-1.456 1.344a3.3 3.3 0 0 0-1.12-.854 3.1 3.1 0 0 0-1.344-.294q-.685 0-1.26.224a2.85 2.85 0 0 0-.994.644q-.42.42-.658.994a3.5 3.5 0 0 0-.224 1.274q0 .7.224 1.274.238.574.658.994t.994.644 1.26.224q.727 0 1.344-.28.616-.294 1.12-.882l1.456 1.344a4.55 4.55 0 0 1-1.736 1.302q-1.022.448-2.31.448"/><path fill="#a8a8a8" d="M433.404 109.08a4.1 4.1 0 0 1-1.48-.26 3.6 3.6 0 0 1-1.17-.75 3.57 3.57 0 0 1-1.05-2.57q0-.78.28-1.43.279-.65.78-1.13a3.4 3.4 0 0 1 1.17-.75q.68-.27 1.48-.27.81 0 1.49.28.69.27 1.17.81l-.65.63a2.5 2.5 0 0 0-.9-.62q-.5-.21-1.07-.21-.59 0-1.1.2-.501.2-.87.56-.37.36-.58.86-.2.49-.2 1.07t.2 1.08a2.6 2.6 0 0 0 1.45 1.41q.51.2 1.1.2.57 0 1.07-.2a2.6 2.6 0 0 0 .9-.64l.65.63q-.48.54-1.17.82-.681.28-1.5.28m3.887-.08v-5.3h2.46q.93 0 1.46.36.54.35.54 1t-.51 1.01q-.5.35-1.33.35l.15-.26q.951 0 1.41.35.46.35.46 1.03 0 .69-.52 1.08-.51.38-1.57.38zm.94-.74h1.54q.6 0 .9-.18.3-.19.3-.6 0-.42-.28-.61-.27-.2-.86-.2h-1.6zm0-2.28h1.44q.55 0 .83-.2a.68.68 0 0 0 .29-.58q0-.38-.29-.57-.28-.19-.83-.19h-1.44zm5.203 3.02v-5.3h.96v3.86l3.25-3.86h.87v5.3h-.96v-3.86l-3.24 3.86zm7.253-.67-.95-.17a.61.61 0 0 0 .5-.2q.19-.22.29-.6a5 5 0 0 0 .16-.86q.05-.49.08-1.01l.08-1.79h4.11v4.85h-.96v-4.01h-2.3l-.05 1.02q-.02.5-.07.97-.04.46-.14.85-.09.39-.27.64a.75.75 0 0 1-.48.31m-1.16 1.9v-2.07h6.24v2.07h-.9V109h-4.43v1.23zm9.851-1.17q-.85 0-1.5-.35a2.56 2.56 0 0 1-1-.96 2.77 2.77 0 0 1-.35-1.4q0-.79.34-1.4.35-.61.95-.95.61-.35 1.37-.35.77 0 1.36.34t.92.96q.34.61.34 1.43 0 .06-.01.14 0 .08-.01.15h-4.51v-.69h4.01l-.39.24a1.8 1.8 0 0 0-.21-.91 1.56 1.56 0 0 0-.61-.62 1.7 1.7 0 0 0-.89-.23q-.5 0-.89.23a1.55 1.55 0 0 0-.61.63q-.22.4-.22.92v.16q0 .53.24.95.25.41.69.64t1.01.23q.47 0 .85-.16.39-.16.68-.48l.53.62q-.36.42-.9.64a3.1 3.1 0 0 1-1.19.22m4.745-.06v-4.71l.24.25h-2.18v-.84h4.84v.84h-2.17l.23-.25V109zm6.007.06q-.85 0-1.5-.35a2.56 2.56 0 0 1-1-.96 2.77 2.77 0 0 1-.35-1.4q0-.79.34-1.4.35-.61.95-.95.61-.35 1.37-.35.77 0 1.36.34t.92.96q.34.61.34 1.43 0 .06-.01.14 0 .08-.01.15h-4.51v-.69h4.01l-.39.24a1.8 1.8 0 0 0-.21-.91 1.56 1.56 0 0 0-.61-.62 1.7 1.7 0 0 0-.89-.23q-.5 0-.89.23a1.55 1.55 0 0 0-.61.63q-.22.4-.22.92v.16q0 .53.24.95.25.41.69.64t1.01.23q.47 0 .85-.16.39-.16.68-.48l.53.62q-.36.42-.9.64a3.1 3.1 0 0 1-1.19.22m3.541.02q-.13 0-.28-.03a3 3 0 0 1-.31-.06l.06-.81.13.02q.06.01.11.01.32 0 .5-.22.19-.22.28-.58.09-.37.13-.83t.06-.92l.09-1.96h4.07v5.3h-.96v-4.74l.23.28h-2.72l.22-.29-.07 1.47a15 15 0 0 1-.11 1.31 5 5 0 0 1-.25 1.07q-.159.46-.45.72-.28.26-.73.26m8.997-.07-2.3-.01v-5.3h.96v1.79l1.49.01q1.01.01 1.54.46t.53 1.27q0 .86-.58 1.33-.58.46-1.64.45m-.08-.73q.65.01.98-.26.34-.27.34-.8 0-.52-.33-.76t-.99-.25l-1.26-.02v2.08zm5.841.78q-.81 0-1.45-.35a2.6 2.6 0 0 1-.99-.96 2.7 2.7 0 0 1-.36-1.4q0-.79.36-1.4t.99-.95q.64-.35 1.45-.35.72 0 1.28.29.57.28.88.84l-.73.47a1.57 1.57 0 0 0-.64-.57 1.7 1.7 0 0 0-.8-.19q-.519 0-.93.23-.41.23-.65.65-.24.41-.24.98t.24.99.65.65q.411.23.93.23.43 0 .8-.18.38-.19.64-.58l.73.46q-.31.55-.88.85-.56.29-1.28.29m4.385-.06v-4.71l.24.25h-2.18v-.84h4.84v.84h-2.17l.23-.25V109zm3.882 0v-5.3h2.46q.93 0 1.46.36.54.35.54 1t-.51 1.01q-.5.35-1.33.35l.15-.26q.95 0 1.41.35t.46 1.03q0 .69-.52 1.08-.51.38-1.57.38zm.94-.74h1.54q.6 0 .9-.18.3-.19.3-.6 0-.42-.28-.61-.27-.2-.86-.2h-1.6zm0-2.28h1.44q.55 0 .83-.2a.68.68 0 0 0 .29-.58q0-.38-.29-.57-.28-.19-.83-.19h-1.44zm7.472 3.08a2.84 2.84 0 0 1-1.42-.35 2.6 2.6 0 0 1-.98-.96q-.36-.62-.36-1.4 0-.79.36-1.4t.98-.95q.62-.35 1.42-.35.79 0 1.41.35.63.34.98.95.36.6.36 1.4 0 .79-.36 1.4-.35.61-.98.96a2.8 2.8 0 0 1-1.41.35m0-.84q.51 0 .91-.23.41-.23.64-.65.23-.43.23-.99 0-.57-.23-.98a1.6 1.6 0 0 0-.64-.65 1.8 1.8 0 0 0-.91-.23q-.51 0-.91.23t-.64.65q-.24.41-.24.98 0 .56.24.99.24.42.64.65t.91.23m-99.072 10.84a2.84 2.84 0 0 1-1.42-.35 2.6 2.6 0 0 1-.98-.96q-.36-.62-.36-1.4 0-.79.36-1.4t.98-.95q.62-.35 1.42-.35.79 0 1.41.35.63.34.98.95.36.6.36 1.4 0 .79-.36 1.4-.35.61-.98.96a2.8 2.8 0 0 1-1.41.35m0-.84q.51 0 .91-.23.41-.23.64-.65.23-.43.23-.99 0-.57-.23-.98a1.6 1.6 0 0 0-.64-.65 1.8 1.8 0 0 0-.91-.23q-.51 0-.91.23t-.64.65q-.24.41-.24.98 0 .56.24.99.24.42.64.65t.91.23m9.632.84q-.66 0-1.21-.3-.54-.31-.87-.91-.32-.6-.32-1.5t.31-1.5q.32-.6.86-.9.549-.3 1.23-.3.78 0 1.38.34t.95.95q.35.6.35 1.41t-.35 1.42-.95.95-1.38.34m-2.81 1.88v-7.24h.92v1.43l-.06 1.23.1 1.23v3.35zm2.73-2.72q.51 0 .91-.23.41-.23.64-.65.24-.43.24-.99 0-.57-.24-.98a1.63 1.63 0 0 0-.64-.65 1.8 1.8 0 0 0-.91-.23q-.5 0-.91.23-.4.23-.64.65-.23.41-.23.98 0 .56.23.99.24.42.64.65.41.23.91.23m6.515.84q-.85 0-1.5-.35a2.56 2.56 0 0 1-1-.96q-.35-.61-.35-1.4t.34-1.4q.35-.61.95-.95.61-.35 1.37-.35.77 0 1.36.34t.92.96q.34.61.34 1.43 0 .06-.01.14 0 .08-.01.15h-4.51v-.69h4.01l-.39.24a1.8 1.8 0 0 0-.21-.91 1.56 1.56 0 0 0-.61-.62 1.7 1.7 0 0 0-.89-.23q-.5 0-.89.23-.39.22-.61.63-.22.4-.22.92v.16q0 .53.24.95.249.41.69.64t1.01.23q.47 0 .85-.16.39-.16.68-.48l.53.62q-.36.42-.9.64-.53.22-1.19.22m3.919-.06v-5.3h3.9v.84h-3.17l.23-.22V119zm4.883 0v-5.3h.96v3.86l3.25-3.86h.87v5.3h-.96v-3.86l-3.24 3.86zm9.253.06q-.81 0-1.45-.35a2.6 2.6 0 0 1-.99-.96 2.7 2.7 0 0 1-.36-1.4q0-.79.36-1.4t.99-.95q.64-.35 1.45-.35.72 0 1.28.29.57.28.88.84l-.73.47a1.6 1.6 0 0 0-.64-.57 1.7 1.7 0 0 0-.8-.19 1.87 1.87 0 0 0-.93.23q-.41.23-.65.65-.24.41-.24.98t.24.99.65.65.93.23q.43 0 .8-.18a1.66 1.66 0 0 0 .64-.58l.73.46q-.31.55-.88.85-.56.29-1.28.29m4.385-.06v-4.71l.24.25h-2.18v-.84h4.84v.84h-2.17l.229-.25V119zm6.691.06q-.66 0-1.21-.3-.54-.31-.87-.91-.32-.6-.32-1.5t.31-1.5q.32-.6.86-.9.55-.3 1.23-.3.78 0 1.38.34t.95.95q.35.6.35 1.41t-.35 1.42-.95.95-1.38.34m-2.81 1.88v-7.24h.92v1.43l-.06 1.23.1 1.23v3.35zm2.73-2.72q.51 0 .91-.23.41-.23.64-.65.24-.43.24-.99 0-.57-.24-.98a1.6 1.6 0 0 0-.64-.65 1.8 1.8 0 0 0-.91-.23q-.5 0-.91.23-.4.23-.64.65-.23.41-.23.98 0 .56.23.99.24.42.64.65.41.23.91.23m7.356.78v-1.12l-.05-.21v-1.91q0-.61-.36-.94-.35-.34-1.06-.34-.47 0-.92.16-.45.15-.76.41l-.4-.72q.41-.33.98-.5.58-.18 1.21-.18 1.09 0 1.68.53t.59 1.62v3.2zm-1.74.06q-.59 0-1.04-.2a1.6 1.6 0 0 1-.68-.55q-.24-.36-.24-.81 0-.43.2-.78.21-.35.67-.56.47-.21 1.26-.21h1.68v.69h-1.64q-.72 0-.97.24a.77.77 0 0 0-.25.58q0 .39.31.63.31.23.86.23.54 0 .94-.24.41-.24.59-.7l.19.66q-.19.47-.67.75-.48.27-1.21.27m4.379-.06v-5.3h.96v4.46h2.9v-4.46h.96v5.3zm4.75 1.23v-1.28l.24.05h-1.13v-.84h1.8v2.07zm2.154-1.23v-5.3h.96v3.86l3.25-3.86h.87v5.3h-.96v-3.86l-3.24 3.86zm6.943 0v-5.3h.96v3.86l3.25-3.86h.87v5.3h-.96v-3.86l-3.24 3.86zm12.919.08a4.1 4.1 0 0 1-1.48-.26 3.6 3.6 0 0 1-1.17-.75 3.7 3.7 0 0 1-.77-1.14 3.6 3.6 0 0 1-.28-1.43q0-.78.28-1.43t.78-1.13a3.4 3.4 0 0 1 1.17-.75q.68-.27 1.48-.27.81 0 1.49.28.69.27 1.17.81l-.65.63a2.5 2.5 0 0 0-.9-.62q-.5-.21-1.07-.21-.59 0-1.1.2a2.6 2.6 0 0 0-.87.56 2.6 2.6 0 0 0-.58.86q-.2.49-.2 1.07t.2 1.08a2.6 2.6 0 0 0 1.45 1.41q.51.2 1.1.2.57 0 1.07-.2.501-.21.9-.64l.65.63q-.48.54-1.17.82-.68.28-1.5.28m4.048-.08v-7h.82l3.14 5.29h-.44l3.1-5.29h.82l.01 7h-.96l-.01-5.49h.23l-2.76 4.64h-.46l-2.78-4.64h.25V119zm9.629 0v-7h.99v5.4l4.14-5.4h.92v7h-.98v-5.39l-4.15 5.39zm8.282-3.98a.67.67 0 0 1-.48-.19.68.68 0 0 1-.2-.5q0-.3.2-.49a.67.67 0 0 1 .48-.19q.27 0 .46.19.2.19.2.49t-.2.5a.62.62 0 0 1-.46.19m0 4.04a.67.67 0 0 1-.48-.19.68.68 0 0 1-.2-.5q0-.3.2-.49a.67.67 0 0 1 .48-.19q.27 0 .46.19.2.19.2.49t-.2.5a.62.62 0 0 1-.46.19m-90.405 10.02q-.84 0-1.55-.28a3.1 3.1 0 0 1-1.18-.82l.63-.63q.42.43.93.63.52.2 1.12.2.55 0 1.02-.2a2.44 2.44 0 0 0 1.35-1.4q.19-.5.19-1.08t-.19-1.07a2.4 2.4 0 0 0-.54-.85 2.4 2.4 0 0 0-.81-.56 2.6 2.6 0 0 0-1.02-.2q-.6 0-1.12.2-.51.2-.93.63l-.63-.63q.48-.54 1.18-.82.71-.28 1.55-.28.76 0 1.4.27a3.2 3.2 0 0 1 1.11.75q.48.48.74 1.13.27.65.27 1.43t-.27 1.43q-.26.65-.74 1.14a3.4 3.4 0 0 1-1.11.75q-.64.26-1.4.26m-.9-3.23v-.82h3.75v.82zm5.425 3.23q-.13 0-.28-.03a3 3 0 0 1-.31-.06l.06-.81.13.02q.06.01.11.01a.61.61 0 0 0 .5-.22q.19-.22.28-.58.09-.37.13-.83.039-.46.06-.92l.09-1.96h4.07v5.3h-.96v-4.74l.23.28h-2.72l.22-.29-.07 1.47q-.03.7-.11 1.31a5 5 0 0 1-.25 1.07q-.16.46-.45.72-.28.26-.73.26m6.906-.02a.67.67 0 0 1-.48-.19.68.68 0 0 1-.2-.5q0-.3.2-.49a.67.67 0 0 1 .48-.19q.27 0 .46.19.2.19.2.49a.68.68 0 0 1-.2.5.63.63 0 0 1-.46.19m4.861-.06v-7h.82l4.63 5.75h-.43V122h1v7h-.82l-4.63-5.75h.43V129zm7.13-2.39v-.65h3.16v.65zm1.58-1.44a1.95 1.95 0 0 1-.92-.21 1.6 1.6 0 0 1-.63-.57 1.56 1.56 0 0 1-.23-.84q0-.47.23-.83.23-.37.63-.57.41-.21.92-.21.52 0 .92.21.4.2.62.57.23.36.23.83t-.23.84q-.22.36-.62.57a1.95 1.95 0 0 1-.92.21m0-.58q.49 0 .79-.29a.98.98 0 0 0 .31-.75q0-.47-.31-.75-.3-.29-.79-.29t-.8.29q-.31.28-.31.75a1 1 0 0 0 .31.75q.31.29.8.29m6.791 3.94q-1.28 0-2.19-.35-.91-.36-1.39-1.04t-.48-1.65.48-1.65 1.39-1.04 2.19-.36h.25q1.28 0 2.18.36.91.36 1.39 1.04t.48 1.65q0 .96-.48 1.65-.47.68-1.37 1.04-.89.35-2.16.35zm.11-.78h.08q1.02-.01 1.72-.26.7-.26 1.06-.76.37-.51.37-1.25 0-.73-.37-1.23t-1.07-.76q-.69-.26-1.69-.26h-.1q-1.03 0-1.75.26-.71.25-1.08.75t-.37 1.25.38 1.25 1.09.76q.72.25 1.73.25m-.45 1.51v-7.52h.93v7.52zm9.308-.18a4.1 4.1 0 0 1-1.48-.26 3.6 3.6 0 0 1-1.17-.75 3.57 3.57 0 0 1-1.05-2.57q0-.78.28-1.43.279-.65.78-1.13a3.4 3.4 0 0 1 1.17-.75q.68-.27 1.48-.27.81 0 1.49.28.69.27 1.17.81l-.65.63a2.5 2.5 0 0 0-.9-.62q-.5-.21-1.07-.21-.59 0-1.1.2-.501.2-.87.56-.37.36-.58.86-.2.49-.2 1.07t.2 1.08a2.6 2.6 0 0 0 1.45 1.41q.51.2 1.1.2.57 0 1.07-.2a2.6 2.6 0 0 0 .9-.64l.65.63q-.48.54-1.17.82-.681.28-1.5.28m7.333-.08 2.97-6.58.26.45h-4.16l.5-.49v1.74h-.96V122h5.28v.68l-2.83 6.32zm5.977 0 2.97-6.58.26.45h-4.16l.5-.49v1.74h-.96V122h5.28v.68L474.6 129zm4.358-2.33v-.83h2.69v.83zm4.851 2.33 2.97-6.58.26.45h-4.16l.5-.49v1.74h-.96V122h5.28v.68l-2.83 6.32zm4.012-1.72v-.7l3.58-4.58h1.08l-3.55 4.58-.51-.16h5.59v.86zm3.89 1.72v-1.72l.03-.86v-1.52h.94v4.1zm5.15.08q-.741 0-1.44-.23-.69-.23-1.13-.62l.46-.79q.35.33.91.54t1.19.21q.8 0 1.23-.34t.43-.91q0-.39-.19-.68t-.66-.44q-.46-.16-1.27-.16h-1.59l.37-3.66h3.95v.87h-3.58l.52-.49-.29 2.89-.52-.48h1.35q1.05 0 1.69.27t.93.75q.29.47.29 1.09 0 .6-.29 1.1-.29.49-.88.79-.58.29-1.48.29m3.323-.08v-.68l2.85-2.75q.38-.36.56-.63a1.7 1.7 0 0 0 .32-.97q0-.54-.38-.85t-1.11-.31q-.56 0-1.01.19-.45.18-.78.57l-.68-.59q.4-.51 1.07-.78.68-.28 1.49-.28.73 0 1.27.24.54.23.83.67.3.44.3 1.04 0 .34-.09.67t-.34.7a5.6 5.6 0 0 1-.72.83l-2.54 2.45-.24-.39h4.23v.87zm5.567-1.72v-.7l3.58-4.58h1.08l-3.55 4.58-.51-.16h5.59v.86zm3.89 1.72v-1.72l.03-.86v-1.52h.94v4.1zm-57.233 10.06a2.84 2.84 0 0 1-1.42-.35 2.6 2.6 0 0 1-.98-.96q-.36-.62-.36-1.4 0-.79.36-1.4t.98-.95q.62-.35 1.42-.35.79 0 1.41.35.63.34.98.95.36.6.36 1.4 0 .79-.36 1.4-.35.61-.98.96a2.8 2.8 0 0 1-1.41.35m0-.84q.51 0 .91-.23.41-.23.64-.65.23-.43.23-.99 0-.57-.23-.98a1.6 1.6 0 0 0-.64-.65 1.8 1.8 0 0 0-.91-.23q-.51 0-.91.23t-.64.65q-.24.41-.24.98 0 .56.24.99.24.42.64.65t.91.23m4.991.78v-4.71l.24.25h-2.18v-.84h4.84v.84h-2.17l.23-.25V139zm6.008 0v-.68l2.85-2.75q.38-.36.56-.63a1.73 1.73 0 0 0 .32-.97q0-.54-.38-.85-.381-.31-1.11-.31-.56 0-1.01.19-.45.18-.78.57l-.68-.59q.4-.51 1.07-.78.68-.28 1.49-.28.73 0 1.27.24.54.23.83.67.3.44.3 1.04 0 .34-.09.67a2.4 2.4 0 0 1-.34.7 5.6 5.6 0 0 1-.72.83l-2.54 2.45-.24-.39h4.23v.87zm5.566-1.72v-.7l3.58-4.58h1.08l-3.55 4.58-.51-.16h5.59v.86zm3.89 1.72v-1.72l.03-.86v-1.52h.94v4.1zm3.755.06a.67.67 0 0 1-.48-.19.68.68 0 0 1-.2-.5q0-.3.2-.49a.67.67 0 0 1 .48-.19q.27 0 .46.19.2.19.2.49a.68.68 0 0 1-.2.5.63.63 0 0 1-.46.19m2.659-.06v-6.6l.43.47h-2.01V132h2.57v7zm2.411 0v-.68l2.85-2.75q.38-.36.56-.63a1.73 1.73 0 0 0 .32-.97q0-.54-.38-.85-.381-.31-1.11-.31-.56 0-1.01.19-.45.18-.78.57l-.68-.59q.4-.51 1.07-.78.68-.28 1.49-.28.73 0 1.27.24.54.23.83.67.3.44.3 1.04 0 .34-.09.67a2.4 2.4 0 0 1-.34.7 5.6 5.6 0 0 1-.72.83l-2.54 2.45-.24-.39h4.23v.87zm6.61.06a.67.67 0 0 1-.48-.19.68.68 0 0 1-.2-.5q0-.3.2-.49a.67.67 0 0 1 .48-.19q.27 0 .46.19.2.19.2.49a.68.68 0 0 1-.2.5.63.63 0 0 1-.46.19m1.593-.06v-.68l2.85-2.75q.38-.36.56-.63a1.7 1.7 0 0 0 .32-.97q0-.54-.38-.85t-1.11-.31q-.56 0-1.01.19-.45.18-.78.57l-.68-.59q.4-.51 1.07-.78.68-.28 1.49-.28.73 0 1.27.24.54.23.83.67.3.44.3 1.04 0 .34-.09.67t-.34.7a5.6 5.6 0 0 1-.72.83l-2.54 2.45-.24-.39h4.23v.87zm8.702.08q-.819 0-1.47-.42-.639-.42-1.02-1.22-.37-.8-.37-1.94t.37-1.94q.381-.8 1.02-1.22.651-.42 1.47-.42.81 0 1.46.42.651.42 1.02 1.22.37.8.37 1.94t-.37 1.94-1.02 1.22-1.46.42m0-.89q.55 0 .96-.3.42-.3.65-.9.24-.6.24-1.49t-.24-1.49q-.23-.6-.65-.9a1.58 1.58 0 0 0-.96-.3q-.55 0-.97.3t-.66.9q-.23.6-.23 1.49t.23 1.49q.24.6.66.9t.97.3m4.99.81v-6.6l.43.47h-2.01V132h2.57v7zm5.251.08q-.849 0-1.47-.25-.62-.25-.96-.71a1.83 1.83 0 0 1-.34-1.1q0-.62.32-1.05.33-.44.95-.66.621-.23 1.5-.23.88 0 1.5.23.63.22.96.66t.33 1.05q0 .63-.34 1.1-.34.46-.97.71t-1.48.25m0-.81q.84 0 1.31-.34.48-.35.48-.94 0-.58-.48-.91-.47-.34-1.31-.34-.83 0-1.3.34-.47.33-.47.91 0 .59.47.94.47.34 1.3.34m0-3.29q.73 0 1.14-.3.42-.3.42-.82a.96.96 0 0 0-.43-.83q-.43-.3-1.13-.3t-1.12.3a.97.97 0 0 0-.41.83q0 .52.4.82.41.3 1.13.3m0 .64q-.8 0-1.36-.21-.56-.22-.86-.62-.3-.41-.3-.97 0-.59.31-1.01.32-.43.89-.66t1.32-.23q.76 0 1.33.23t.89.66q.32.42.32 1.01 0 .56-.3.97-.3.4-.87.62-.57.21-1.37.21"/><path stroke="#000" d="M126 632.5h74"/><path fill="#000" d="M83.09 152v-7h3.01q1.14 0 1.79.46t.65 1.34q0 .86-.62 1.32-.62.45-1.63.45l.18-.3q1.17 0 1.79.47.63.46.63 1.35 0 .9-.66 1.41-.65.5-1.94.5zm.99-.79h2.19q.8 0 1.2-.29.41-.3.41-.91t-.41-.89q-.4-.28-1.2-.28h-2.19zm0-3.13h1.95q.73 0 1.11-.29.39-.29.39-.85 0-.57-.39-.86-.38-.29-1.11-.29h-1.95zm8.63 3.98q-.81 0-1.45-.35a2.6 2.6 0 0 1-.99-.96 2.7 2.7 0 0 1-.36-1.4q0-.79.36-1.4t.99-.95q.64-.35 1.45-.35.72 0 1.28.29.57.28.88.84l-.73.47a1.6 1.6 0 0 0-.64-.57 1.7 1.7 0 0 0-.8-.19q-.519 0-.93.23a1.7 1.7 0 0 0-.65.65q-.24.41-.24.98t.24.99.65.65.93.23q.43 0 .8-.18a1.66 1.66 0 0 0 .64-.58l.73.46q-.31.55-.88.85-.56.29-1.28.29m5.686 0q-.85 0-1.5-.35a2.56 2.56 0 0 1-1-.96q-.35-.61-.35-1.4t.34-1.4a2.5 2.5 0 0 1 .95-.95q.61-.35 1.37-.35.77 0 1.36.34t.919.96q.34.61.34 1.43 0 .06-.01.14 0 .08-.01.15h-4.51v-.69h4.01l-.39.24a1.8 1.8 0 0 0-.21-.91 1.56 1.56 0 0 0-.61-.62 1.7 1.7 0 0 0-.89-.23q-.5 0-.89.23-.39.22-.61.63-.22.4-.22.92v.16q0 .53.24.95.25.41.69.64t1.01.23q.47 0 .85-.16a1.9 1.9 0 0 0 .68-.48l.53.62q-.36.42-.9.64-.53.22-1.19.22m6.729 0q-.66 0-1.21-.3-.54-.31-.87-.91-.32-.6-.32-1.5t.31-1.5q.32-.6.86-.9.549-.3 1.23-.3.78 0 1.38.34t.95.95q.35.6.35 1.41t-.35 1.42-.95.95-1.38.34m-2.81 1.88v-7.24h.92v1.43l-.06 1.23.1 1.23v3.35zm2.73-2.72q.51 0 .91-.23.41-.23.64-.65.24-.43.24-.99 0-.57-.24-.98a1.63 1.63 0 0 0-.64-.65 1.8 1.8 0 0 0-.91-.23q-.5 0-.91.23-.4.23-.64.65-.23.41-.23.98 0 .56.23.99.24.42.64.65.41.23.91.23m6.425.84q-.8 0-1.42-.35a2.6 2.6 0 0 1-.98-.96q-.36-.62-.36-1.4 0-.79.36-1.4t.98-.95q.62-.35 1.42-.35.789 0 1.41.35.63.34.98.95.36.6.36 1.4 0 .79-.36 1.4-.35.61-.98.96-.621.35-1.41.35m0-.84q.51 0 .91-.23.41-.23.64-.65.23-.43.23-.99 0-.57-.23-.98a1.63 1.63 0 0 0-.64-.65 1.8 1.8 0 0 0-.91-.23q-.51 0-.91.23t-.64.65q-.24.41-.24.98 0 .56.24.99.24.42.64.65t.91.23m6.446.84q-.81 0-1.45-.35a2.6 2.6 0 0 1-.99-.96 2.7 2.7 0 0 1-.36-1.4q0-.79.36-1.4t.99-.95q.64-.35 1.45-.35.72 0 1.28.29.57.28.88.84l-.73.47a1.6 1.6 0 0 0-.64-.57 1.7 1.7 0 0 0-.8-.19 1.87 1.87 0 0 0-.93.23q-.41.23-.65.65-.24.41-.24.98t.24.99.65.65.93.23q.43 0 .8-.18.38-.19.64-.58l.73.46q-.31.55-.88.85-.56.29-1.28.29m5.635 0q-.81 0-1.45-.35a2.6 2.6 0 0 1-.99-.96 2.7 2.7 0 0 1-.36-1.4q0-.79.36-1.4t.99-.95q.64-.35 1.45-.35.72 0 1.28.29.57.28.88.84l-.73.47a1.6 1.6 0 0 0-.64-.57 1.7 1.7 0 0 0-.8-.19 1.87 1.87 0 0 0-.93.23q-.41.23-.65.65-.24.41-.24.98t.24.99.65.65.93.23q.43 0 .8-.18.38-.19.64-.58l.73.46q-.31.55-.88.85-.56.29-1.28.29m3.402-.06v-5.3h.96v3.86l3.25-3.86h.87v5.3h-.96v-3.86l-3.24 3.86zm6.944 0v-5.3h.96v3.86l3.25-3.86h.87v5.3h-.96v-3.86l-3.24 3.86zm2.48-5.99q-.73 0-1.15-.35-.411-.36-.42-1.03h.65q.01.38.25.6.249.22.66.22.41 0 .66-.22t.26-.6h.67q-.01.67-.43 1.03-.42.35-1.15.35m6.773 6.05q-.81 0-1.45-.35a2.6 2.6 0 0 1-.99-.96 2.7 2.7 0 0 1-.36-1.4q0-.79.36-1.4t.99-.95q.64-.35 1.45-.35.72 0 1.28.29.57.28.88.84l-.73.47a1.6 1.6 0 0 0-.64-.57 1.7 1.7 0 0 0-.8-.19 1.87 1.87 0 0 0-.93.23q-.41.23-.65.65-.24.41-.24.98t.24.99.65.65.93.23q.43 0 .8-.18a1.66 1.66 0 0 0 .64-.58l.73.46q-.31.55-.88.85-.56.29-1.28.29m7.243-.06-2.05-2.58.79-.48 2.39 3.06zm-3.84 0v-5.3h.96v5.3zm.67-2.24v-.82h1.75v.82zm1.99-.3-.89-.12 2.03-2.64h1.03zm3.317 2.54v-5.3h.96v3.86l3.25-3.86h.87v5.3h-.96v-3.86l-3.24 3.86zm9.303.06q-.85 0-1.5-.35a2.56 2.56 0 0 1-1-.96 2.77 2.77 0 0 1-.35-1.4q0-.79.34-1.4.35-.61.95-.95.61-.35 1.37-.35.77 0 1.36.34t.92.96q.34.61.34 1.43 0 .06-.01.14 0 .08-.01.15h-4.51v-.69h4.01l-.39.24a1.8 1.8 0 0 0-.21-.91 1.56 1.56 0 0 0-.61-.62 1.7 1.7 0 0 0-.89-.23q-.5 0-.89.23a1.55 1.55 0 0 0-.61.63q-.22.4-.22.92v.16q0 .53.24.95.25.41.69.64t1.01.23q.47 0 .85-.16.39-.16.68-.48l.53.62q-.36.42-.9.64a3.1 3.1 0 0 1-1.19.22m10.445-.06-2.05-2.58.79-.48 2.39 3.06zm-3.84 0v-5.3h.96v5.3zm.67-2.24v-.82h1.75v.82zm1.99-.3-.89-.12 2.03-2.64h1.03zm5.411 2.6q-.8 0-1.42-.35a2.6 2.6 0 0 1-.98-.96q-.36-.62-.36-1.4 0-.79.36-1.4t.98-.95q.62-.35 1.42-.35.789 0 1.41.35.63.34.98.95.36.6.36 1.4 0 .79-.36 1.4-.35.61-.98.96-.621.35-1.41.35m0-.84q.51 0 .91-.23.41-.23.64-.65.23-.43.23-.99 0-.57-.23-.98a1.63 1.63 0 0 0-.64-.65 1.8 1.8 0 0 0-.91-.23q-.51 0-.91.23t-.64.65q-.24.41-.24.98 0 .56.24.99.24.42.64.65t.91.23m4.136.78v-5.3h.96v2.25h3.02v-2.25h.96v5.3h-.96v-2.22h-3.02V152zm10.646 0-2.05-2.58.79-.48 2.39 3.06zm-3.84 0v-5.3h.96v5.3zm.67-2.24v-.82h1.75v.82zm1.99-.3-.89-.12 2.03-2.64h1.03zm3.284 4.54q-.38 0-.74-.13-.36-.12-.62-.36l.41-.72q.2.19.44.29t.51.1a.9.9 0 0 0 .58-.18q.23-.18.43-.64l.33-.73.1-.12 2.08-4.81h.94l-2.57 5.83q-.23.56-.52.88a1.6 1.6 0 0 1-.62.45q-.339.14-.75.14m1.26-1.83-2.42-5.47h1l2.06 4.72zm6.993-.11q-.66 0-1.21-.3-.54-.31-.87-.91-.32-.6-.32-1.5t.31-1.5q.32-.6.86-.9.55-.3 1.23-.3.78 0 1.38.34t.95.95q.35.6.35 1.41t-.35 1.42-.95.95-1.38.34m-2.81 1.88v-7.24h.92v1.43l-.06 1.23.1 1.23v3.35zm2.73-2.72q.51 0 .91-.23.41-.23.64-.65.24-.43.24-.99 0-.57-.24-.98a1.6 1.6 0 0 0-.64-.65 1.8 1.8 0 0 0-.91-.23q-.5 0-.91.23-.4.23-.64.65-.23.41-.23.98 0 .56.23.99.24.42.64.65.41.23.91.23m6.465.84q-.81 0-1.45-.35a2.6 2.6 0 0 1-.99-.96 2.7 2.7 0 0 1-.36-1.4q0-.79.36-1.4t.99-.95q.64-.35 1.45-.35.72 0 1.28.29.57.28.88.84l-.73.47a1.6 1.6 0 0 0-.64-.57 1.7 1.7 0 0 0-.8-.19 1.87 1.87 0 0 0-.93.23q-.41.23-.65.65-.24.41-.24.98t.24.99.65.65.93.23q.43 0 .8-.18a1.66 1.66 0 0 0 .64-.58l.73.46q-.31.55-.88.85-.56.29-1.28.29m8.643-.06v-5.3h.96v5.3zm-2.85-3.5q1.01.01 1.53.46.53.45.53 1.27 0 .86-.58 1.33-.57.46-1.64.45l-2.23-.01v-5.3h.96v1.79zm-.23 2.78q.64.01.98-.26t.34-.8q0-.52-.34-.76-.33-.24-.98-.25l-1.2-.02v2.08zM86.55 161.55v-4.01h-2.3l-.05 1.02q-.02.5-.07.97-.04.46-.14.85-.09.39-.27.64a.75.75 0 0 1-.48.31l-.95-.17a.61.61 0 0 0 .5-.2q.19-.22.29-.6.11-.38.16-.86.05-.49.08-1.01l.08-1.79h4.11v4.85zm-4.47 1.68v-2.07h6.24v2.07h-.9V162h-4.43v1.23zm6.61-1.24.06-.81.13.02q.06.01.11.01a.61.61 0 0 0 .5-.22q.19-.22.28-.58a5.6 5.6 0 0 0 .13-.83q.04-.46.06-.92l.09-1.96h4.07v5.3h-.96v-4.74l.23.28h-2.72l.22-.29-.07 1.47q-.03.7-.11 1.31a5 5 0 0 1-.25 1.07q-.159.46-.45.72-.28.26-.73.26-.13 0-.28-.03a3 3 0 0 1-.31-.06m10.677.01v-1.86l.15.18h-1.69q-1.06 0-1.66-.45-.59-.45-.59-1.31 0-.92.63-1.39.64-.47 1.7-.47h2.32v5.3zm-3.84 0 1.44-2.03h.99l-1.4 2.03zm3.84-2.16v-2.57l.15.27h-1.58q-.66 0-1.02.25-.36.24-.36.8 0 1.04 1.34 1.04h1.62zm5.418 2.16v-5.3h4.91v5.3h-.96v-4.7l.23.24h-3.45l.23-.24v4.7zm9.128.06q-.85 0-1.5-.35a2.56 2.56 0 0 1-1-.96 2.77 2.77 0 0 1-.35-1.4q0-.79.34-1.4.35-.61.95-.95.61-.35 1.37-.35.77 0 1.36.34t.92.96q.34.61.34 1.43 0 .06-.01.14 0 .08-.01.15h-4.51v-.69h4.01l-.39.24a1.8 1.8 0 0 0-.21-.91 1.56 1.56 0 0 0-.61-.62 1.7 1.7 0 0 0-.89-.23q-.5 0-.89.23a1.55 1.55 0 0 0-.61.63q-.22.4-.22.92v.16q0 .53.24.95.25.41.69.64t1.01.23q.47 0 .85-.16.39-.16.68-.48l.53.62q-.36.42-.9.64a3.1 3.1 0 0 1-1.19.22m7.451-.51v-4.01h-2.3l-.05 1.02q-.02.5-.07.97-.04.46-.14.85-.09.39-.27.64a.75.75 0 0 1-.48.31l-.95-.17a.61.61 0 0 0 .5-.2q.19-.22.29-.6a5 5 0 0 0 .16-.86q.05-.49.08-1.01l.08-1.79h4.11v4.85zm-4.47 1.68v-2.07h6.24v2.07h-.9V162h-4.43v1.23zm10.741-1.23v-1.12l-.05-.21v-1.91q0-.61-.36-.94-.35-.34-1.06-.34-.47 0-.92.16-.45.15-.76.41l-.4-.72q.41-.33.98-.5.58-.18 1.21-.18 1.09 0 1.68.53t.59 1.62v3.2zm-1.74.06q-.59 0-1.04-.2a1.6 1.6 0 0 1-.68-.55q-.24-.36-.24-.81 0-.43.2-.78.21-.35.67-.56.47-.21 1.26-.21h1.68v.69h-1.64q-.72 0-.97.24a.77.77 0 0 0-.25.58q0 .39.31.63.31.23.86.23.54 0 .94-.24.41-.24.59-.7l.19.66q-.19.47-.67.75-.48.27-1.21.27m4.379-.06v-5.3h3.9v.84h-3.17l.23-.22V162zm6.918.06a2.84 2.84 0 0 1-1.42-.35 2.6 2.6 0 0 1-.98-.96q-.36-.62-.36-1.4 0-.79.36-1.4t.98-.95q.62-.35 1.42-.35.79 0 1.41.35.63.34.98.95.36.6.36 1.4 0 .79-.36 1.4-.35.61-.98.96a2.8 2.8 0 0 1-1.41.35m0-.84q.51 0 .91-.23.41-.23.64-.65.23-.43.23-.99 0-.57-.23-.98a1.6 1.6 0 0 0-.64-.65 1.8 1.8 0 0 0-.91-.23q-.51 0-.91.23t-.64.65q-.24.41-.24.98 0 .56.24.99.24.42.64.65t.91.23m4.136.78v-5.3h3.9v.84h-3.17l.23-.22V162zm6.919.06a2.84 2.84 0 0 1-1.42-.35 2.6 2.6 0 0 1-.98-.96q-.36-.62-.36-1.4 0-.79.36-1.4t.98-.95q.62-.35 1.42-.35.79 0 1.41.35.63.34.98.95.36.6.36 1.4 0 .79-.36 1.4-.35.61-.98.96a2.8 2.8 0 0 1-1.41.35m0-.84q.51 0 .91-.23.41-.23.64-.65.23-.43.23-.99 0-.57-.23-.98a1.6 1.6 0 0 0-.64-.65 1.8 1.8 0 0 0-.91-.23q-.51 0-.91.23t-.64.65q-.24.41-.24.98 0 .56.24.99.24.42.64.65t.91.23m4.136.78v-5.3h2.46q.93 0 1.46.36.54.35.54 1t-.51 1.01q-.5.35-1.33.35l.15-.26q.95 0 1.41.35t.46 1.03q0 .69-.52 1.08-.51.38-1.57.38zm.94-.74h1.54q.6 0 .9-.18.3-.19.3-.6 0-.42-.28-.61-.27-.2-.86-.2h-1.6zm0-2.28h1.44q.55 0 .83-.2a.68.68 0 0 0 .29-.58q0-.38-.29-.57-.28-.19-.83-.19h-1.44zm7.888 3.02v-5.3h.96v3.86l3.25-3.86h.87v5.3h-.96v-3.86l-3.24 3.86zm13.149-.84-.22.25v-4.71h.96v4.71l-.24-.25h2.8l-.23.25v-4.71h.96v5.3h-7.55v-5.3h.96v4.71l-.23-.25zm9.734.84-2.05-2.58.79-.48 2.39 3.06zm-3.84 0v-5.3h.96v5.3zm.67-2.24v-.82h1.75v.82zm1.99-.3-.89-.12 2.03-2.64h1.03zm5.411 2.6a2.84 2.84 0 0 1-1.42-.35 2.6 2.6 0 0 1-.98-.96q-.36-.62-.36-1.4 0-.79.36-1.4t.98-.95q.62-.35 1.42-.35.79 0 1.41.35.63.34.98.95.36.6.36 1.4 0 .79-.36 1.4-.35.61-.98.96a2.8 2.8 0 0 1-1.41.35m0-.84q.51 0 .91-.23.41-.23.64-.65.23-.43.23-.99 0-.57-.23-.98a1.6 1.6 0 0 0-.64-.65 1.8 1.8 0 0 0-.91-.23q-.51 0-.91.23t-.64.65q-.24.41-.24.98 0 .56.24.99.24.42.64.65t.91.23m3.217.77.06-.81.13.02q.06.01.11.01.32 0 .5-.22.19-.22.28-.58.09-.37.13-.83t.06-.92l.09-1.96h4.07v5.3h-.96v-4.74l.23.28h-2.72l.22-.29-.07 1.47a15 15 0 0 1-.11 1.31 5 5 0 0 1-.25 1.07q-.159.46-.45.72-.28.26-.73.26-.13 0-.28-.03a3 3 0 0 1-.31-.06m9.736-3.49q1.01.01 1.54.46t.53 1.27q0 .86-.58 1.33-.58.46-1.64.45l-2.3-.01v-5.3h.96v1.79zm-.23 2.78q.65.01.98-.26.34-.27.34-.8 0-.52-.33-.76t-.99-.25l-1.26-.02v2.08zm3.532.72v-5.3h.96v2.25h3.02v-2.25h.96v5.3h-.96v-2.22h-3.02V162zm6.807 0v-5.3h.96v3.86l3.25-3.86h.87v5.3h-.96v-3.86l-3.24 3.86zm10.783 0-2.05-2.58.79-.48 2.39 3.06zm-3.84 0v-5.3h.96v5.3zm.67-2.24v-.82h1.75v.82zm1.99-.3-.89-.12 2.03-2.64h1.03zm5.411 2.6a2.84 2.84 0 0 1-1.42-.35 2.6 2.6 0 0 1-.98-.96q-.36-.62-.36-1.4 0-.79.36-1.4t.98-.95q.62-.35 1.42-.35.79 0 1.41.35.63.34.98.95.36.6.36 1.4 0 .79-.36 1.4-.35.61-.98.96a2.8 2.8 0 0 1-1.41.35m0-.84q.51 0 .91-.23.41-.23.64-.65.23-.43.23-.99 0-.57-.23-.98a1.6 1.6 0 0 0-.64-.65 1.8 1.8 0 0 0-.91-.23q-.51 0-.91.23t-.64.65q-.24.41-.24.98 0 .56.24.99.24.42.64.65t.91.23m4.136.78v-5.3h2.46q.93 0 1.46.36.54.35.54 1t-.51 1.01q-.5.35-1.33.35l.15-.26q.951 0 1.41.35.46.35.46 1.03 0 .69-.52 1.08-.51.38-1.57.38zm.94-.74h1.54q.6 0 .9-.18.3-.19.3-.6 0-.42-.28-.61-.27-.2-.86-.2h-1.6zm0-2.28h1.44q.55 0 .83-.2a.68.68 0 0 0 .29-.58q0-.38-.29-.57-.28-.19-.83-.19h-1.44z"/><path stroke="#000" d="M126 660.5h121"/></g><defs><clipPath id="a"><path fill="#fff" d="M0 0h595v842H0z"/></clipPath><clipPath id="b"><path fill="#fff" d="M82 90h160v44H82z"/></clipPath></defs></svg>