<svg width="150" height="51" viewBox="0 0 150 51" fill="none" xmlns="http://www.w3.org/2000/svg">
<path fill-rule="evenodd" clip-rule="evenodd" d="M0 25.1742C0 23.2578 0.174216 21.3414 0.609755 19.5993C0.609755 19.6864 0.696863 19.6864 0.696863 19.7735C0.783971 20.0348 0.958187 20.209 1.21951 20.3833C1.39373 20.4704 1.65505 20.6446 1.91637 20.7317L12.6306 24.3902C14.1986 24.9129 15.5052 25.5226 16.6376 26.2195C17.77 26.9163 18.7282 27.7003 19.4251 28.5714C20.209 29.4425 20.7317 30.4878 21.0801 31.6202C21.4285 32.7526 21.6028 34.0592 21.6028 35.6271V38.3275H3.65853C1.39373 34.4947 0 30.0522 0 25.1742ZM22.4738 11.0627C22.561 11.0627 22.561 11.0627 22.6481 11.0627C22.7352 11.0627 22.7352 11.0627 22.7352 11.0627C22.7352 11.0627 22.8223 11.0627 22.8223 11.1498V11.2369V13.5888H28.1359H28.223C28.223 13.5888 28.223 13.5888 28.3101 13.6759V13.7631C28.3101 13.8502 28.3101 13.8502 28.3101 13.9373C28.3101 14.0244 28.3101 14.1115 28.3101 14.1115C28.3101 14.1986 28.3101 14.1986 28.3101 14.1986C28.3101 14.1986 28.3101 14.2857 28.223 14.2857C28.223 14.2857 28.223 14.2857 28.1359 14.2857H22.4738C22.3867 14.2857 22.2996 14.2857 22.2125 14.1986C22.1254 14.1115 22.1254 14.1115 22.1254 14.0244V11.2369C22.1254 11.1498 22.1254 11.1498 22.2125 11.1498C22.2996 11.0627 22.3867 11.0627 22.4738 11.0627ZM2.61324 14.0244C6.70731 5.74912 15.331 0 25.1742 0C34.4947 0 42.5958 5.05226 46.9512 12.5435L46.777 12.6306L35.0174 17.2474C33.3623 17.8571 31.9686 18.554 30.7491 19.1637C29.5296 19.8606 28.5714 20.5575 27.7003 21.3414C26.8292 22.1254 26.1324 22.9965 25.6097 23.9547C25 24.9129 24.5644 25.9582 24.1289 27.1777H24.0418C23.6934 26.1324 23.3449 25.1742 22.8223 24.3902C22.2996 23.5191 21.6899 22.7352 20.8188 22.0383C20.0348 21.3414 19.0766 20.6446 17.9442 20.0348C16.8118 19.4251 15.5052 18.9024 13.9373 18.2927L3.65853 14.2857C3.3101 14.1986 2.96167 14.1115 2.61324 14.0244ZM49.5644 18.6411C50.1742 20.7317 50.4355 22.9965 50.4355 25.2613C50.4355 30.0522 49.0418 34.5818 46.777 38.4146H27.3519V35.6271C27.3519 34.0592 27.5261 32.7526 27.8745 31.5331C28.223 30.3136 28.7456 29.2683 29.5296 28.223C30.3136 27.2648 31.1846 26.3937 32.4041 25.6968C33.5365 24.9129 34.9303 24.3031 36.5853 23.6934L48.6062 19.1637C48.8675 19.0766 49.1289 18.9895 49.3031 18.8153C49.3902 18.7282 49.4773 18.6411 49.5644 18.6411ZM40.9407 44.9477C36.6724 48.3449 31.1846 50.4355 25.2613 50.4355C19.338 50.4355 13.8502 48.3449 9.58187 44.9477H40.9407Z" fill="#FFFFFF"/>
<path d="M70.0334 22.3881C69.5979 21.6041 69.2495 20.9072 68.9881 20.2975C68.6397 19.7748 68.3784 19.2522 68.1171 18.9037C67.8557 18.5553 67.5944 18.294 67.4202 18.0327C67.246 17.8585 66.9847 17.6842 66.8105 17.51C66.6362 17.4229 66.462 17.3358 66.2878 17.2487C66.5491 17.0745 66.9847 16.5518 67.5944 15.855C68.2042 15.1581 68.9881 14.1999 69.8592 12.9804H67.0718C66.5491 13.6773 66.1136 14.287 65.5909 14.8968C65.1554 15.5065 64.7199 16.0292 64.3714 16.4647C64.023 16.9003 63.6746 17.2487 63.4132 17.51V12.9804H61.1484V22.3881H63.4132V18.0327C63.6746 18.1198 63.8488 18.1198 64.1101 18.294C64.3714 18.3811 64.5457 18.5553 64.807 18.7295C65.0683 18.9037 65.3296 19.1651 65.5909 19.5135C65.8523 19.8619 66.1136 20.2104 66.3749 20.733C66.6362 21.1686 66.9847 21.7783 67.246 22.4752H70.0334V22.3881ZM79.0927 16.3776C79.0927 15.6808 79.0056 15.071 78.8313 14.6355C78.6571 14.1999 78.3958 13.7644 78.0474 13.5031C77.6989 13.2417 77.2634 13.0675 76.7408 12.8933C76.2181 12.8062 75.6084 12.7191 74.9115 12.7191C74.476 12.7191 74.0404 12.7191 73.5178 12.8062C73.0822 12.8933 72.6467 12.8933 72.2111 12.9804C71.7756 13.0675 71.4272 13.1546 71.0787 13.2417L71.5143 15.1581C71.7756 15.071 72.0369 14.9839 72.3854 14.8968C72.7338 14.8097 72.9951 14.8097 73.3435 14.7226C73.692 14.7226 74.0404 14.6355 74.3888 14.6355C74.9115 14.6355 75.2599 14.6355 75.6084 14.7226C75.9568 14.8097 76.131 14.8968 76.3052 15.071C76.4794 15.2452 76.5665 15.4194 76.6536 15.6808C76.7408 15.9421 76.7408 16.2905 76.7408 16.7261C76.3052 16.6389 75.9568 16.5518 75.6084 16.5518C75.2599 16.4647 74.8244 16.4647 74.476 16.4647C73.9533 16.4647 73.4307 16.4647 72.9951 16.5518C72.5596 16.6389 72.124 16.8132 71.8627 16.9874C71.5143 17.1616 71.253 17.51 71.0787 17.9456C70.9045 18.3811 70.8174 18.9037 70.8174 19.5135C70.8174 20.1233 70.9045 20.6459 70.9916 20.9943C71.1659 21.4299 71.3401 21.6912 71.6885 21.9525C72.0369 22.2139 72.3854 22.3881 72.908 22.4752C73.4307 22.5623 74.0404 22.6494 74.7373 22.6494C75.0857 22.6494 75.4341 22.6494 75.7826 22.5623C76.131 22.5623 76.5665 22.4752 76.915 22.3881C77.2634 22.301 77.6118 22.2138 78.0474 22.1267C78.3958 22.0396 78.7442 21.9525 79.0056 21.7783V16.3776H79.0927ZM76.915 20.5588C76.6537 20.6459 76.3052 20.733 76.0439 20.8201C75.6955 20.9072 75.347 20.9072 75.0857 20.9072C74.7373 20.9072 74.4759 20.9072 74.2146 20.8201C73.9533 20.8201 73.7791 20.733 73.692 20.6459C73.6049 20.5588 73.4307 20.3846 73.4307 20.2104C73.3436 20.0362 73.3435 19.7748 73.3435 19.4264C73.3435 19.1651 73.3436 18.9037 73.4307 18.7295C73.5178 18.5553 73.6049 18.3811 73.692 18.294C73.8662 18.2069 74.0404 18.1198 74.2146 18.1198C74.4759 18.1198 74.7373 18.0327 74.9986 18.1198C75.347 18.1198 75.6955 18.1198 75.9568 18.1198C76.3052 18.1198 76.5665 18.2069 76.8279 18.2069V20.5588H76.915ZM87.3679 18.5553C86.9324 17.5971 86.584 16.6389 86.1484 15.6808C85.8 14.8097 85.3644 13.9386 84.9289 12.9804H81.6188V22.3881H83.8836V15.5065C84.0578 15.9421 84.3191 16.4647 84.4934 16.9874C84.7547 17.51 84.9289 18.0327 85.1902 18.6424C85.4516 19.1651 85.6258 19.7748 85.8 20.2975C85.9742 20.8201 86.1484 21.3428 86.3226 21.7783H88.0648C88.239 21.3428 88.4132 20.8201 88.6745 20.2975C88.8488 19.7748 89.1101 19.2522 89.3714 18.6424C89.6327 18.1198 89.8069 17.51 90.0683 16.9874C90.3296 16.4647 90.5038 15.9421 90.7651 15.5065V22.3881H93.0299V12.9804H89.8069C89.3714 13.8515 88.9359 14.8097 88.5874 15.6808C88.1519 16.6389 87.8035 17.5971 87.3679 18.5553ZM102.612 20.2975C102.438 20.3846 102.176 20.3846 102.002 20.4717C101.741 20.5588 101.567 20.5588 101.305 20.5588C101.044 20.5588 100.783 20.6459 100.608 20.6459C100.347 20.6459 100.173 20.6459 99.9986 20.6459C99.563 20.6459 99.2146 20.6459 98.9533 20.5588C98.692 20.4717 98.4306 20.3846 98.1693 20.2104C97.9951 20.0362 97.8209 19.7748 97.7338 19.5135C97.6467 19.1651 97.5595 18.8166 97.5595 18.294H103.657C103.657 17.4229 103.657 16.6389 103.57 15.9421C103.483 15.3323 103.309 14.7226 103.134 14.3741C102.96 13.9386 102.699 13.5902 102.35 13.4159C102.002 13.1546 101.654 12.9804 101.131 12.8933C100.695 12.8062 100.173 12.7191 99.563 12.7191C98.8662 12.7191 98.2564 12.8062 97.7338 12.9804C97.2111 13.1546 96.7756 13.416 96.34 13.7644C95.9916 14.1128 95.6432 14.6355 95.469 15.2452C95.2947 15.855 95.2076 16.6389 95.2076 17.5971C95.2076 18.5553 95.2947 19.3393 95.5561 20.0362C95.7303 20.6459 96.0787 21.1686 96.5143 21.6041C96.9498 21.9525 97.3853 22.2139 97.9951 22.3881C98.5177 22.5623 99.2146 22.6494 99.8244 22.6494C100.086 22.6494 100.347 22.6494 100.608 22.6494C100.87 22.6494 101.218 22.5623 101.479 22.5623C101.741 22.5623 102.089 22.4752 102.35 22.3881C102.612 22.301 102.873 22.2139 103.134 22.2139L102.612 20.2975ZM99.6501 14.5484C99.9986 14.5484 100.26 14.5484 100.521 14.6355C100.783 14.7226 100.957 14.8097 101.044 14.8968C101.218 15.071 101.305 15.2452 101.392 15.5065C101.479 15.7679 101.479 16.1163 101.567 16.5518H97.5595C97.6467 16.0292 97.7338 15.5936 97.8209 15.3323C97.9951 15.071 98.1693 14.8097 98.4306 14.7226C98.7791 14.5484 99.2146 14.5484 99.6501 14.5484ZM111.671 18.3811V22.3881H113.936V12.9804H111.671V16.4647H108.012V12.9804H105.748V22.3881H108.012V18.3811H111.671ZM122.472 18.3811V22.3881H124.737V12.9804H122.472V16.4647H118.814V12.9804H116.549V22.3881H118.814V18.3811H122.472ZM132.403 20.6459H129.615V18.1198H132.316C132.664 18.1198 132.925 18.2069 133.1 18.3811C133.274 18.5553 133.361 18.9037 133.361 19.3393C133.361 19.7748 133.274 20.1233 133.1 20.2975C133.012 20.5588 132.751 20.6459 132.403 20.6459ZM129.615 16.3776V12.9804H127.35V22.3881H132.925C133.535 22.3881 134.145 22.301 134.493 22.1267C134.929 21.9525 135.277 21.6041 135.451 21.1686C135.713 20.733 135.8 20.1233 135.8 19.4264C135.8 18.4682 135.539 17.6842 135.103 17.2487C134.58 16.7261 133.884 16.4647 132.925 16.4647H129.615V16.3776ZM139.11 12.9804H136.758V22.3881H139.023V12.9804H139.11ZM147.734 22.3881H149.999V12.9804H147.734C147.472 13.5031 147.124 14.0257 146.863 14.5484C146.514 15.071 146.253 15.5936 145.904 16.1163C145.556 16.6389 145.208 17.1616 144.946 17.5971C144.598 18.1198 144.249 18.5553 143.988 18.9037V12.8933H141.723V22.301H143.988C144.424 21.6912 144.859 21.1686 145.295 20.4717C145.73 19.8619 146.166 19.1651 146.601 18.5553C147.037 17.8585 147.385 17.2487 147.821 16.5518V22.3881H147.734ZM143.03 9.49609C143.03 10.3672 143.291 10.9769 143.727 11.4125C144.162 11.848 144.859 12.0222 145.73 12.0222C146.601 12.0222 147.298 11.848 147.734 11.4125C148.169 10.9769 148.431 10.3672 148.431 9.49609H146.95C146.95 9.75742 146.95 10.0187 146.776 10.193C146.688 10.3672 146.514 10.4543 146.34 10.5414C146.166 10.6285 145.904 10.6285 145.73 10.6285C145.469 10.6285 145.208 10.6285 145.033 10.5414C144.859 10.4543 144.685 10.3672 144.598 10.193C144.511 10.0187 144.424 9.84453 144.424 9.49609H143.03ZM63.4132 29.9665H67.6815V27.963H61.1484V37.3706H63.4132V29.9665ZM73.0822 37.632C73.8662 37.632 74.4759 37.5448 75.0857 37.3706C75.6084 37.1964 76.131 36.9351 76.4794 36.5867C76.8279 36.2382 77.0892 35.7156 77.3505 35.0187C77.5247 34.409 77.6118 33.5379 77.6118 32.5797C77.6118 31.6215 77.5247 30.8375 77.3505 30.2278C77.1763 29.618 76.915 29.0954 76.4794 28.7469C76.131 28.3985 75.6084 28.1372 75.0857 27.963C74.5631 27.7888 73.8662 27.7016 73.0822 27.7016C72.2983 27.7016 71.6885 27.7888 71.1658 27.963C70.6432 28.1372 70.1206 28.3985 69.7721 28.7469C69.4237 29.0954 69.1624 29.618 68.901 30.2278C68.7268 30.8375 68.6397 31.6215 68.6397 32.5797C68.6397 33.5379 68.7268 34.3218 68.901 35.0187C69.0753 35.6285 69.3366 36.1511 69.7721 36.5867C70.1206 36.9351 70.6432 37.1964 71.1658 37.3706C71.6885 37.5448 72.2983 37.632 73.0822 37.632ZM73.0822 29.5309C73.5178 29.5309 73.8662 29.5309 74.1275 29.618C74.3888 29.7051 74.6502 29.8793 74.8244 30.0536C74.9986 30.2278 75.0857 30.5762 75.1728 31.0117C75.2599 31.4473 75.2599 31.9699 75.2599 32.6668C75.2599 33.2766 75.2599 33.7992 75.1728 34.2347C75.0857 34.6703 74.9986 34.9316 74.8244 35.1929C74.6502 35.4543 74.476 35.5414 74.1275 35.6285C73.8662 35.7156 73.5178 35.7156 73.0822 35.7156C72.6467 35.7156 72.3854 35.7156 72.0369 35.6285C71.7756 35.5414 71.5143 35.3671 71.4272 35.1929C71.253 34.9316 71.1658 34.6703 71.0787 34.2347C70.9916 33.7992 70.9916 33.2766 70.9916 32.6668C70.9916 31.9699 70.9916 31.4473 71.0787 31.0117C71.1658 30.5762 71.253 30.3149 71.4272 30.0536C71.6014 29.8793 71.7756 29.7051 72.0369 29.618C72.3854 29.618 72.6467 29.5309 73.0822 29.5309ZM82.0543 29.9665C82.2286 29.8793 82.4028 29.8793 82.577 29.7922C82.7512 29.7922 83.0125 29.7051 83.1867 29.7051C83.4481 29.7051 83.6223 29.7051 83.7965 29.7051C84.232 29.7051 84.5805 29.7051 84.8418 29.7922C85.1031 29.8793 85.3644 30.0536 85.5387 30.2278C85.7129 30.402 85.8 30.7504 85.8871 31.186C85.9742 31.6215 85.9742 32.1441 85.9742 32.7539C85.9742 33.3637 85.9742 33.7992 85.8871 34.2347C85.8 34.5832 85.7129 34.9316 85.5387 35.1058C85.3644 35.3671 85.1902 35.4543 84.8418 35.5414C84.5805 35.6285 84.232 35.7156 83.7965 35.7156C83.4481 35.7156 83.1867 35.7156 82.8383 35.6285C82.577 35.5414 82.3157 35.4543 82.1415 35.28C81.9672 35.1058 81.8801 35.0187 81.8801 34.7574V29.9665H82.0543ZM79.7895 40.8549H82.0543V37.0222C82.2286 37.1093 82.4028 37.1964 82.6641 37.2835C82.8383 37.3706 83.0996 37.4577 83.361 37.4577C83.6223 37.5448 83.9707 37.5448 84.3191 37.5448C84.9289 37.5448 85.5387 37.4577 85.9742 37.2835C86.4968 37.1093 86.9324 36.848 87.2808 36.4995C87.6292 36.1511 87.8906 35.6285 88.0648 34.9316C88.239 34.3218 88.3261 33.5379 88.3261 32.5797C88.3261 31.6215 88.239 30.8375 88.0648 30.2278C87.8906 29.618 87.6292 29.0954 87.2808 28.7469C86.9324 28.3985 86.4097 28.1372 85.8871 27.963C85.3644 27.7888 84.6676 27.7016 83.8836 27.7016C83.5352 27.7016 83.1867 27.7016 82.8383 27.7888C82.4899 27.7888 82.0543 27.8759 81.7059 27.963C81.3575 28.0501 81.009 28.1372 80.6606 28.2243C80.3122 28.3114 80.0509 28.3985 79.7895 28.4856V40.8549ZM94.7721 37.632C95.5561 37.632 96.1658 37.5448 96.7756 37.3706C97.2982 37.1964 97.8209 36.9351 98.1693 36.5867C98.5177 36.2382 98.7791 35.7156 99.0404 35.0187C99.2146 34.409 99.3017 33.5379 99.3017 32.5797C99.3017 31.6215 99.2146 30.8375 99.0404 30.2278C98.8662 29.618 98.6048 29.0954 98.1693 28.7469C97.8209 28.3985 97.2982 28.1372 96.7756 27.963C96.2529 27.7888 95.5561 27.7016 94.7721 27.7016C93.9881 27.7016 93.3784 27.7888 92.8557 27.963C92.3331 28.1372 91.8104 28.3985 91.462 28.7469C91.1136 29.0954 90.8522 29.618 90.5909 30.2278C90.4167 30.8375 90.3296 31.6215 90.3296 32.5797C90.3296 33.5379 90.4167 34.3218 90.5909 35.0187C90.7651 35.6285 91.0265 36.1511 91.462 36.5867C91.8104 36.9351 92.3331 37.1964 92.8557 37.3706C93.3784 37.5448 93.9881 37.632 94.7721 37.632ZM94.7721 29.5309C95.2076 29.5309 95.5561 29.5309 95.8174 29.618C96.0787 29.7051 96.34 29.8793 96.5143 30.0536C96.6885 30.2278 96.7756 30.5762 96.8627 31.0117C96.9498 31.4473 96.9498 31.9699 96.9498 32.6668C96.9498 33.2766 96.9498 33.7992 96.8627 34.2347C96.7756 34.6703 96.6885 34.9316 96.5143 35.1929C96.34 35.4543 96.1658 35.5414 95.8174 35.6285C95.5561 35.7156 95.2076 35.7156 94.7721 35.7156C94.3366 35.7156 94.0752 35.7156 93.7268 35.6285C93.4655 35.5414 93.2042 35.3671 93.117 35.1929C92.9428 34.9316 92.8557 34.6703 92.7686 34.2347C92.6815 33.7992 92.6815 33.2766 92.6815 32.6668C92.6815 31.9699 92.6815 31.4473 92.7686 31.0117C92.8557 30.5762 92.9428 30.3149 93.117 30.0536C93.2913 29.8793 93.4655 29.7051 93.7268 29.618C93.9881 29.618 94.3366 29.5309 94.7721 29.5309ZM103.222 27.963C103.134 29.2696 102.96 30.4891 102.786 31.7086C102.525 32.9281 102.263 34.1476 101.915 35.3671H100.26L100.783 39.9839H102.612V37.3706H109.668V39.9839H111.497L112.019 35.3671H110.19V27.963H103.222ZM108.012 29.9665V35.3671H104.354C104.528 34.7574 104.702 34.1476 104.79 33.5379C104.964 32.9281 105.051 32.3184 105.138 31.7086C105.225 31.0989 105.312 30.5762 105.312 29.9665H108.012Z" fill="#FFFFFF"/>
</svg>
