<svg id="Layer_1" data-name="Layer 1" xmlns="http://www.w3.org/2000/svg" viewBox="0 0 463.05 127.69"><defs><style>.cls-1,.cls-3{fill:#ffffff;}.cls-2{fill:#ffffff;}.cls-3{fill-rule:evenodd;}</style></defs><title>ФГОС цвет RGB</title><path class="cls-1" d="M227.27,425.73v-4.17a20.43,20.43,0,0,1-8.35-2.05,14,14,0,0,1-5.68-5.1,15.66,15.66,0,0,1,0-15.49,13.89,13.89,0,0,1,5.68-5.09,20.43,20.43,0,0,1,8.35-2.05v-4h8.88v4a20.48,20.48,0,0,1,8.37,2.05,13.89,13.89,0,0,1,5.68,5.09,15.66,15.66,0,0,1,0,15.49,14,14,0,0,1-5.68,5.1,20.48,20.48,0,0,1-8.37,2.05v4.17Zm0-11.56v-15a8.59,8.59,0,0,0-3.81,1.07A6.27,6.27,0,0,0,221,402.8a9.28,9.28,0,0,0,0,7.76,6.34,6.34,0,0,0,2.44,2.54A8.59,8.59,0,0,0,227.27,414.17Zm8.88,0a8.51,8.51,0,0,0,3.8-1.07,6.09,6.09,0,0,0,2.44-2.54,9.18,9.18,0,0,0,0-7.76,6,6,0,0,0-2.44-2.56,8.51,8.51,0,0,0-3.8-1.07Zm21.5,9.86V389.87h21.42v8.18H266.63v26Zm41.22.73a19.57,19.57,0,0,1-7.32-1.34,17.8,17.8,0,0,1-5.81-3.78,17.23,17.23,0,0,1-3.83-5.66,19.16,19.16,0,0,1,0-14.08,17.23,17.23,0,0,1,3.83-5.66,17.59,17.59,0,0,1,5.81-3.76,19.57,19.57,0,0,1,7.32-1.34,19,19,0,0,1,7.29,1.37,17.79,17.79,0,0,1,5.81,3.8,17.2,17.2,0,0,1,3.85,5.69,17.59,17.59,0,0,1,1.37,6.95,18,18,0,0,1-1.37,7,17,17,0,0,1-3.85,5.66,17.9,17.9,0,0,1-5.81,3.78A19.34,19.34,0,0,1,298.87,424.76Zm0-8.42a9.33,9.33,0,0,0,3.56-.66,8.16,8.16,0,0,0,2.83-1.88,8.74,8.74,0,0,0,1.85-3,10.85,10.85,0,0,0,.66-3.88,10.18,10.18,0,0,0-1.15-5,8.12,8.12,0,0,0-3.17-3.27,9.08,9.08,0,0,0-4.58-1.14,9.45,9.45,0,0,0-3.57.66,8.37,8.37,0,0,0-2.83,1.87,8.59,8.59,0,0,0-1.85,3A11.32,11.32,0,0,0,290,407a10.4,10.4,0,0,0,1.14,5,8.28,8.28,0,0,0,3.15,3.25A9.09,9.09,0,0,0,298.87,416.34Zm40.35,8.42a19.9,19.9,0,0,1-9.4-2.15,15.89,15.89,0,0,1-6.34-6.15,18.65,18.65,0,0,1-2.27-9.39,19.27,19.27,0,0,1,1.32-7.24,16.72,16.72,0,0,1,3.78-5.69,17,17,0,0,1,5.76-3.68,19.47,19.47,0,0,1,7.27-1.32,20.71,20.71,0,0,1,7.32,1.12,18,18,0,0,1,5.34,3.15l-4.44,7.37a8.64,8.64,0,0,0-3.32-2.17,12,12,0,0,0-4.32-.74,11.52,11.52,0,0,0-3.95.64,7.66,7.66,0,0,0-4.73,4.68,10.79,10.79,0,0,0-.61,3.76,9.82,9.82,0,0,0,1.12,4.85,7.66,7.66,0,0,0,3.22,3.13,11.29,11.29,0,0,0,5.1,1.07,14.87,14.87,0,0,0,4.39-.68,14.17,14.17,0,0,0,4.22-2.15l4.1,7.51a20,20,0,0,1-5.68,2.93A24.2,24.2,0,0,1,339.22,424.76Zm27.63-10.66v-7.76h14.73v7.76ZM213.53,472.82V438.66h30.4v34.16h-9v-26H222.51v26Zm38.17,0V438.66h14.15a16.57,16.57,0,0,1,6.88,1.37,11.07,11.07,0,0,1,4.75,4,10.9,10.9,0,0,1,1.74,6.22,11.64,11.64,0,0,1-1.61,6.27A10.34,10.34,0,0,1,273,460.4a18.09,18.09,0,0,1-7.32,1.34h-5v11.08Zm9-18.52h4.64a6.23,6.23,0,0,0,3.61-.9,4.19,4.19,0,0,0-.05-6.15,6,6,0,0,0-3.51-.93h-4.69Zm18.17,18.52,12.61-34.16H302l12.64,34.16H304.5l-2.14-6.52H290.82l-2.13,6.52Zm14-14h7.54l-3.76-10.78Zm46.74,14-13.67-17.54,12.4-16.62h11.22l-12.69,16.62L351,472.82Zm-21,0V438.66h9V451H334v8.19h-6.49v13.62Zm41.68,0v-26h-9v-8.18h26.93v8.18h-8.95v26Zm22.64,0V438.66h8.88v20.08l12.76-20.08h9v34.16h-8.91V452.47L391.8,472.82Zm59.33,0-13.66-17.54,12.4-16.62h11.22l-12.69,16.62,14.25,17.54Zm-21,0V438.66h9V451h6.49v8.19H430.2v13.62Zm38,.7-3.09-8.14a21,21,0,0,0,5.88-1.83,14.31,14.31,0,0,0,4.34-3.49,25.64,25.64,0,0,0,3.49-5.69l7.36-15.71h10.4l-9.91,19.84a43.14,43.14,0,0,1-3.95,6.63,23.59,23.59,0,0,1-4.25,4.49,16.93,16.93,0,0,1-4.73,2.66A24.56,24.56,0,0,1,459.21,473.52Zm8.91-9.75L454.9,438.66h10.85l8.44,17.62Zm22.76,9.05V438.66h8.64l12.66,21.15-3.58.05,11.95-21.2h8.61v34.16H520.5l.17-22.79,1.56.59L513,466.69h-5.88l-9.68-16.07,1.54-.59.17,22.79Z" transform="translate(-66.11 -357.1)"/><path class="cls-1" d="M125.48,444.68l-1,7h5.16v2.26H119v-2.26h3.14l1-7h-44c0,22.15,20.06,40.11,44.82,40.11s44.82-18,44.82-40.11Zm-1.89,39.38a28.85,28.85,0,0,0-8-15.12c5.26-5.11,6.07-13.05,6.07-13.05H124l0,14.1a2.2,2.2,0,0,0,0,4.27l0,9.81Zm1.94,0h-.48l0-9.81a2.2,2.2,0,0,0,0-4.27l0-14.1h2.35s.81,7.94,6.07,13.05A28.85,28.85,0,0,0,125.53,484.06Z" transform="translate(-66.11 -357.1)"/><path class="cls-2" d="M168.81,386.07v58.6H125.5l.23-1.58c10.35-14.18,32.6-14.21,32.81-14.21V387.66l4.18-1.59Z" transform="translate(-66.11 -357.1)"/><path class="cls-1" d="M183,378.36l-20.26,7.71-4.18,1.59V376.3c-28.71,1.33-34,24.28-34,24.28s-5.28-22.95-34-24.28v11.4l-24.46-9.26,58.43-21.34Z" transform="translate(-66.11 -357.1)"/><path class="cls-1" d="M123.11,445.22l-43.92-.07V386.64H90.57v42.11h.08c4.07,0,23.9.67,31.93,14l.73,1ZM80.17,444h42.19V444l-.41-.65c-7.71-12.81-27.34-13.46-31.3-13.46H90l-.59,0V387.75H80.17Z" transform="translate(-66.11 -357.1)"/><path class="cls-3" d="M144.71,397.17c-7,10-13.75,25.54-17.09,37.28-.31,1.11-.68,2.21-1,3.32-.17.58-.33,1.17-.48,1.76-.06.27-.13.54-.18.82,0,.1-.19.67-.12.77a.76.76,0,0,1,.17-.23c.56-.56,1.1-1.14,1.64-1.72q3.06-3.29,6.29-6.41c.25-.24.48-.51.72-.77,1.38-1.53,4.28-4.54,4.92-6.13-1.94.51-3.54,1.37-5.85,1.5,1.05-.87,7-3.42,8.72-7.14a2.15,2.15,0,0,1-.54.11l-.54.13-1.05.28c-1.09.29-2.18.51-3.29.7-.58.11.15-.38.3-.46a28.3,28.3,0,0,0,3.12-1.79,20.45,20.45,0,0,0,3.05-2.6,22.23,22.23,0,0,0,2.5-3.14,23.43,23.43,0,0,0,1.51-2.67,20.93,20.93,0,0,0,1.76-5.48c-1.53.59-4.32,2.62-7.25,2.93a18.88,18.88,0,0,1,2.58-1.53c2.73-1.69,4.6-3.17,6.13-6.06,2.38-4.51,2.36-8.43,1.74-13.93-3.08.22-7.67,2.55-9.78,3.94a5.81,5.81,0,0,0-1.45,1.09,6.49,6.49,0,0,0-.84,2.12c-.48,1.53-.92,3.07-1.32,4.63-.1.4-.2.8-.29,1.2a2,2,0,0,0-.09.65,13.47,13.47,0,0,1,.07-3.75c.06-.57.14-1.15.21-1.72,0-.27.08-.53.11-.8a4.41,4.41,0,0,0,.09-.73,1.55,1.55,0,0,0-.29.14,5.8,5.8,0,0,0-1.38,1.19c-.44.47-.93.9-1.35,1.38a3.15,3.15,0,0,0-.77,1.41,1.18,1.18,0,0,0,0,.2c-.38,2.26-.63,5-1.12,7.21a6.62,6.62,0,0,1-.33-1.87c-.06-.9-.06-1.81-.08-2.71,0-.26,0-.52,0-.77a6.61,6.61,0,0,0,0-.77,1.23,1.23,0,0,0-.37.31c-.14.14-.27.27-.39.41-.3.34-.57.7-.84,1.06-.65.88-1.23,1.8-1.8,2.73s-1.17,2-1.72,3c-.47.88-.93,1.77-1.37,2.66l-.36.77c-3.08,6.72-.94,9.51-.81,15.68a20.14,20.14,0,0,1-2.42-8.36l-1,2.56a33.34,33.34,0,0,0-1.11,16.05,18.9,18.9,0,0,0,1.89,5.48c.45-.69,1.57-5.34,1.93-6.58,3.26-11.22,11.12-28.84,18.8-37.5.38-.46.64-.84,1.25-1.59l1.59-1.82" transform="translate(-66.11 -357.1)"/></svg>