<svg width="150" height="212" viewBox="0 0 150 212" xmlns="http://www.w3.org/2000/svg">
  <defs>
    <linearGradient id="g6" x1="0%" y1="0%" x2="100%" y2="100%">
      <stop offset="0%" style="stop-color:#ecfdf5"/>
      <stop offset="100%" style="stop-color:#d1fae5"/>
    </linearGradient>
  </defs>
  <rect width="150" height="212" fill="url(#g6)"/>
  <rect x="6" y="6" width="138" height="200" fill="none" stroke="#059669" stroke-width="2" rx="5"/>
  <rect x="10" y="10" width="130" height="192" fill="white" opacity="0.85" rx="4"/>
  <circle cx="15" cy="15" r="3" fill="#10b981"/>
  <circle cx="135" cy="15" r="3" fill="#10b981"/>
  <circle cx="15" cy="197" r="3" fill="#10b981"/>
  <circle cx="135" cy="197" r="3" fill="#10b981"/>
  <text x="75" y="38" font-family="Georgia" font-size="12" font-weight="bold" fill="#064e3b" text-anchor="middle">ДИПЛОМ</text>
  <path d="M 65 60 L 65 65 L 62 70 L 68 75 L 82 75 L 88 70 L 85 65 L 85 60 Z" fill="#10b981" opacity="0.3" stroke="#059669" stroke-width="1"/>
  <rect x="68" y="75" width="15" height="4" fill="#059669"/>
  <rect x="22" y="98" width="106" height="14" fill="#f0fdf4" stroke="#10b981" stroke-width="1" rx="3"/>
  <rect x="18" y="145" width="114" height="32" fill="white" stroke="#6ee7b7" stroke-width="1" rx="3"/>
  <rect x="88" y="150" width="40" height="22" fill="#10b981" rx="2"/>
  <text x="108" y="164" font-family="Arial" font-size="7" fill="white" text-anchor="middle">УЧАСТНИК</text>
</svg>
