<svg width="150" height="212" viewBox="0 0 150 212" xmlns="http://www.w3.org/2000/svg">
  <defs>
    <linearGradient id="g5" x1="0%" y1="0%" x2="0%" y2="100%">
      <stop offset="0%" style="stop-color:#fef2f2"/>
      <stop offset="100%" style="stop-color:#fee2e2"/>
    </linearGradient>
  </defs>
  <rect width="150" height="212" fill="url(#g5)"/>
  <rect x="5" y="5" width="140" height="202" fill="none" stroke="#dc2626" stroke-width="2"/>
  <rect x="8" y="8" width="134" height="196" fill="none" stroke="#ef4444" stroke-width="1"/>
  <circle cx="75" cy="25" r="12" fill="#dc2626"/>
  <circle cx="75" cy="25" r="10" fill="#ef4444"/>
  <circle cx="75" cy="25" r="8" fill="#fca5a5"/>
  <path d="M 75 20 L 78 24 L 82 22 L 79 26 L 82 30 L 78 28 L 75 32 L 72 28 L 68 30 L 71 26 L 68 22 L 72 24 Z" fill="#dc2626"/>
  <text x="75" y="63" font-family="Georgia" font-size="13" font-weight="bold" fill="#7f1d1d" text-anchor="middle">ДИПЛОМ</text>
  <rect x="20" y="91" width="110" height="15" fill="#fff5f5" stroke="#dc2626" stroke-width="1" rx="3"/>
  <rect x="22" y="122" width="106" height="22" fill="white" stroke="#fca5a5" stroke-width="1" rx="3"/>
  <circle cx="75" cy="162" r="11" fill="#dc2626"/>
  <text x="75" y="166" font-family="Arial" font-size="8" font-weight="bold" fill="white" text-anchor="middle">1</text>
  <text x="75" y="174" font-family="Arial" font-size="4" fill="white" text-anchor="middle">МЕСТО</text>
</svg>
