<svg width="150" height="212" viewBox="0 0 150 212" xmlns="http://www.w3.org/2000/svg">
  <defs>
    <linearGradient id="g4" x1="0%" y1="0%" x2="100%" y2="100%">
      <stop offset="0%" style="stop-color:#f3e8ff"/>
      <stop offset="100%" style="stop-color:#e9d5ff"/>
    </linearGradient>
  </defs>
  <rect width="150" height="212" fill="url(#g4)"/>
  <path d="M 0 0 L 25 0 L 25 3 L 3 3 L 3 25 L 0 25 Z" fill="#9333ea"/>
  <path d="M 150 0 L 125 0 L 125 3 L 147 3 L 147 25 L 150 25 Z" fill="#9333ea"/>
  <path d="M 0 212 L 25 212 L 25 209 L 3 209 L 3 187 L 0 187 Z" fill="#9333ea"/>
  <path d="M 150 212 L 125 212 L 125 209 L 147 209 L 147 187 L 150 187 Z" fill="#9333ea"/>
  <rect x="10" y="10" width="130" height="192" fill="none" stroke="#a855f7" stroke-width="1"/>
  <text x="75" y="33" font-family="Georgia" font-size="11" font-weight="bold" fill="#581c87" text-anchor="middle">ДИПЛОМ</text>
  <path d="M 75 55 L 88 60 L 86 75 L 75 80 L 64 75 L 62 60 Z" fill="#a855f7" opacity="0.3" stroke="#9333ea" stroke-width="1"/>
  <text x="75" y="70" font-family="Arial" font-size="9" font-weight="bold" fill="#581c87" text-anchor="middle">3</text>
  <rect x="25" y="98" width="100" height="14" fill="#faf5ff" stroke="#a855f7" stroke-width="1" rx="3"/>
  <rect x="20" y="138" width="110" height="18" fill="white" stroke="#c084fc" stroke-width="1" rx="2"/>
</svg>
