<svg width="595" height="842" viewBox="0 0 595 842" fill="none" xmlns="http://www.w3.org/2000/svg">
<g clip-path="url(#clip0_1360_935)">
<rect width="595" height="842" fill="white"/>
<mask id="mask0_1360_935" style="mask-type:luminance" maskUnits="userSpaceOnUse" x="-1" y="-3" width="596" height="845">
<path d="M-1 842L595 842L595 -3.00002L-1.00004 -3L-1 842ZM552.674 39.6829L552.674 799.3L41.3263 799.3L41.3262 39.6829L552.674 39.6829Z" fill="white"/>
</mask>
<g mask="url(#mask0_1360_935)">
<path d="M-290.64 643.776L602.375 1529.56L603.814 1528.14L-289.201 642.358L-290.64 643.776Z" fill="#0077FF"/>
<path d="M-280.861 634.064L612.936 1519.07L614.373 1517.66L-279.423 632.645L-280.861 634.064Z" fill="#0077FF"/>
<path d="M-275.383 639.472L618.413 1524.48L619.85 1523.06L-273.946 638.053L-275.383 639.472Z" fill="#0077FF"/>
<path d="M-273.398 631.542L620.398 1516.55L621.836 1515.13L-271.96 630.123L-273.398 631.542Z" fill="#0077FF"/>
<path d="M-272.068 624.249L622.977 1508.02L624.412 1506.6L-270.633 622.828L-272.068 624.249Z" fill="#0077FF"/>
<path d="M-270.08 616.321L624.965 1500.1L626.4 1498.68L-268.645 614.9L-270.08 616.321Z" fill="#0077FF"/>
<path d="M-268.153 608.358L626.892 1492.13L628.327 1490.71L-266.718 606.936L-268.153 608.358Z" fill="#0077FF"/>
<path d="M-266.144 600.451L628.901 1484.23L630.337 1482.81L-264.708 599.03L-266.144 600.451Z" fill="#0077FF"/>
<path d="M-263.552 591.91L630.244 1476.92L631.682 1475.5L-262.115 590.491L-263.552 591.91Z" fill="#0077FF"/>
<path d="M-261.199 583.59L631.815 1469.37L633.254 1467.95L-259.761 582.172L-261.199 583.59Z" fill="#0077FF"/>
<path d="M-259.238 575.669L633.776 1461.45L635.215 1460.03L-257.8 574.251L-259.238 575.669Z" fill="#0077FF"/>
<path d="M-258.257 568.76L636.788 1452.54L638.223 1451.11L-256.821 567.339L-258.257 568.76Z" fill="#0077FF"/>
<path d="M-256.335 560.785L638.71 1444.56L640.145 1443.14L-254.9 559.364L-256.335 560.785Z" fill="#0077FF"/>
<path d="M-254.307 552.903L640.738 1436.68L642.174 1435.26L-252.871 551.482L-254.307 552.903Z" fill="#0077FF"/>
<path d="M-252.332 544.98L642.713 1428.76L644.148 1427.33L-250.897 543.558L-252.332 544.98Z" fill="#0077FF"/>
<path d="M-250.37 537.052L644.675 1420.83L646.11 1419.41L-248.935 535.631L-250.37 537.052Z" fill="#0077FF"/>
<path d="M-247.828 528.468L645.968 1413.48L647.405 1412.06L-246.391 527.049L-247.828 528.468Z" fill="#0077FF"/>
<path d="M-245.861 520.563L647.936 1405.57L649.373 1404.15L-244.423 519.143L-245.861 520.563Z" fill="#0077FF"/>
<path d="M-244.498 513.254L650.547 1397.03L651.982 1395.61L-243.063 511.832L-244.498 513.254Z" fill="#0077FF"/>
<path d="M-242.501 505.343L652.544 1389.12L653.979 1387.7L-241.066 503.921L-242.501 505.343Z" fill="#0077FF"/>
<path d="M-240.526 497.42L654.519 1381.2L655.954 1379.77L-239.091 495.998L-240.526 497.42Z" fill="#0077FF"/>
<path d="M-238.552 489.503L656.493 1373.28L657.929 1371.86L-237.116 488.082L-238.552 489.503Z" fill="#0077FF"/>
<path d="M-236.281 481.249L658.14 1365.64L659.576 1364.22L-234.845 479.829L-236.281 481.249Z" fill="#0077FF"/>
<path d="M-233.698 472.69L659.473 1358.32L660.911 1356.9L-232.26 471.272L-233.698 472.69Z" fill="#0077FF"/>
<path d="M-231.561 464.629L661.298 1350.56L662.737 1349.15L-230.122 463.212L-231.561 464.629Z" fill="#0077FF"/>
<path d="M-230.377 457.46L664.044 1341.85L665.48 1340.43L-228.94 456.039L-230.377 457.46Z" fill="#0077FF"/>
<path d="M-228.41 449.546L666.011 1333.94L667.447 1332.52L-226.974 448.126L-228.41 449.546Z" fill="#0077FF"/>
<path d="M-226.715 441.93L668.33 1325.71L669.765 1324.28L-225.279 440.509L-226.715 441.93Z" fill="#0077FF"/>
<path d="M-224.753 434.002L670.292 1317.78L671.727 1316.36L-223.318 432.581L-224.753 434.002Z" fill="#0077FF"/>
<path d="M-222.766 426.091L672.279 1309.87L673.715 1308.45L-221.33 424.67L-222.766 426.091Z" fill="#0077FF"/>
<path d="M-220.238 417.523L673.559 1302.53L674.996 1301.11L-218.8 416.104L-220.238 417.523Z" fill="#0077FF"/>
<path d="M-218.19 409.518L675.45 1294.68L676.888 1293.26L-216.752 408.099L-218.19 409.518Z" fill="#0077FF"/>
<path d="M-216.304 401.689L677.492 1286.7L678.93 1285.28L-214.867 400.269L-216.304 401.689Z" fill="#0077FF"/>
<path d="M-214.879 394.382L680.166 1278.16L681.601 1276.74L-213.444 392.96L-214.879 394.382Z" fill="#0077FF"/>
<path d="M-212.904 386.441L682.141 1270.22L683.576 1268.8L-211.469 385.019L-212.904 386.441Z" fill="#0077FF"/>
<path d="M-210.942 378.513L684.103 1262.29L685.538 1260.87L-209.507 377.092L-210.942 378.513Z" fill="#0077FF"/>
<path d="M-208.973 370.601L686.072 1254.38L687.508 1252.96L-207.537 369.18L-208.973 370.601Z" fill="#0077FF"/>
<path d="M-206.727 362.367L687.693 1246.76L689.13 1245.34L-205.291 360.947L-206.727 362.367Z" fill="#0077FF"/>
<path d="M-204.048 353.726L688.967 1239.51L690.405 1238.09L-202.609 352.308L-204.048 353.726Z" fill="#0077FF"/>
<path d="M-202.088 345.805L690.927 1231.59L692.365 1230.17L-200.649 344.387L-202.088 345.805Z" fill="#0077FF"/>
<path d="M-200.527 338.264L693.27 1223.27L694.707 1221.86L-199.089 336.845L-200.527 338.264Z" fill="#0077FF"/>
<path d="M-199.123 330.964L695.922 1214.74L697.357 1213.32L-197.688 329.543L-199.123 330.964Z" fill="#0077FF"/>
<path d="M-197.225 323.108L697.976 1206.73L699.411 1205.31L-195.79 321.686L-197.225 323.108Z" fill="#0077FF"/>
<path d="M-195.256 315.096L699.789 1198.87L701.224 1197.45L-193.82 313.674L-195.256 315.096Z" fill="#0077FF"/>
<path d="M-192.654 306.567L701.143 1191.58L702.58 1190.16L-191.216 305.147L-192.654 306.567Z" fill="#0077FF"/>
<path d="M-190.686 298.637L703.11 1183.65L704.548 1182.23L-189.248 297.218L-190.686 298.637Z" fill="#0077FF"/>
<path d="M-188.713 290.702L705.083 1175.71L706.52 1174.29L-187.276 289.283L-188.713 290.702Z" fill="#0077FF"/>
<path d="M-187.287 283.391L707.758 1167.17L709.193 1165.75L-185.852 281.97L-187.287 283.391Z" fill="#0077FF"/>
<path d="M-185.313 275.493L709.732 1159.27L711.168 1157.85L-183.877 274.072L-185.313 275.493Z" fill="#0077FF"/>
<path d="M-183.425 267.552L711.62 1151.33L713.056 1149.91L-181.989 266.131L-183.425 267.552Z" fill="#0077FF"/>
<path d="M-181.1 259.314L713.321 1143.71L714.758 1142.29L-179.663 257.893L-181.1 259.314Z" fill="#0077FF"/>
<path d="M-179.137 251.387L715.284 1135.78L716.721 1134.36L-177.7 249.967L-179.137 251.387Z" fill="#0077FF"/>
<path d="M-176.443 242.782L716.572 1128.56L718.011 1127.15L-175.004 241.364L-176.443 242.782Z" fill="#0077FF"/>
<path d="M-174.833 235.224L718.963 1120.23L720.4 1118.82L-173.396 233.805L-174.833 235.224Z" fill="#0077FF"/>
<path d="M-172.862 227.307L720.935 1112.32L722.372 1110.9L-171.424 225.888L-172.862 227.307Z" fill="#0077FF"/>
<path d="M-171.602 219.991L723.443 1103.77L724.879 1102.35L-170.166 218.57L-171.602 219.991Z" fill="#0077FF"/>
<path d="M-169.526 212.063L725.519 1095.84L726.954 1094.42L-168.091 210.641L-169.526 212.063Z" fill="#0077FF"/>
<path d="M-167.564 204.152L727.48 1087.93L728.916 1086.51L-166.129 202.73L-167.564 204.152Z" fill="#0077FF"/>
<path d="M-165.59 196.211L729.455 1079.99L730.89 1078.57L-164.154 194.789L-165.59 196.211Z" fill="#0077FF"/>
<path d="M-163.021 187.663L730.775 1072.67L732.213 1071.25L-161.583 186.243L-163.021 187.663Z" fill="#0077FF"/>
<path d="M-161.128 179.746L732.668 1064.76L734.105 1063.34L-159.691 178.327L-161.128 179.746Z" fill="#0077FF"/>
<path d="M-159.074 171.747L734.566 1056.91L736.004 1055.49L-157.636 170.328L-159.074 171.747Z" fill="#0077FF"/>
<path d="M-157.721 164.502L737.324 1048.28L738.76 1046.86L-156.285 163.081L-157.721 164.502Z" fill="#0077FF"/>
<path d="M-155.476 156.265L738.945 1040.66L740.382 1039.24L-154.039 154.845L-155.476 156.265Z" fill="#0077FF"/>
<path d="M-153.6 148.429L740.978 1032.67L742.414 1031.25L-152.163 147.009L-153.6 148.429Z" fill="#0077FF"/>
<path d="M-151.533 140.42L742.888 1024.81L744.324 1023.39L-150.097 138.999L-151.533 140.42Z" fill="#0077FF"/>
<path d="M-149.316 132.184L744.48 1017.19L745.918 1015.78L-147.878 130.765L-149.316 132.184Z" fill="#0077FF"/>
<path d="M-146.79 123.778L746.068 1009.71L747.507 1008.3L-145.351 122.36L-146.79 123.778Z" fill="#0077FF"/>
<path d="M-145.364 116.35L748.433 1001.36L749.87 999.942L-143.926 114.931L-145.364 116.35Z" fill="#0077FF"/>
<path d="M-143.909 109.013L751.136 992.789L752.571 991.367L-142.474 107.592L-143.909 109.013Z" fill="#0077FF"/>
<path d="M-142.023 101.173L753.178 984.794L754.613 983.372L-140.588 99.7511L-142.023 101.173Z" fill="#0077FF"/>
<path d="M-139.973 93.1609L755.072 976.937L756.508 975.515L-138.537 91.7396L-139.973 93.1609Z" fill="#0077FF"/>
<path d="M-137.997 85.2444L757.048 969.02L758.483 967.599L-136.562 83.8231L-137.997 85.2444Z" fill="#0077FF"/>
<path d="M-136.128 77.3215L758.917 961.097L760.352 959.676L-134.693 75.9002L-136.128 77.3215Z" fill="#0077FF"/>
<path d="M-133.447 68.7712L760.35 953.782L761.787 952.362L-132.009 67.352L-133.447 68.7712Z" fill="#0077FF"/>
<path d="M-131.584 60.8596L762.212 945.87L763.649 944.451L-130.147 59.4403L-131.584 60.8596Z" fill="#0077FF"/>
<path d="M-130.099 53.5417L764.946 937.317L766.382 935.896L-128.663 52.1204L-130.099 53.5417Z" fill="#0077FF"/>
<path d="M-127.885 45.3103L766.536 929.704L767.973 928.283L-126.448 43.89L-127.885 45.3103Z" fill="#0077FF"/>
<path d="M-126.284 37.6892L768.761 921.465L770.196 920.044L-124.849 36.2679L-126.284 37.6892Z" fill="#0077FF"/>
<path d="M-123.868 29.3756L770.396 913.923L771.833 912.503L-122.432 27.9555L-123.868 29.3756Z" fill="#0077FF"/>
<path d="M-121.963 21.5383L772.458 905.932L773.894 904.511L-120.526 20.118L-121.963 21.5383Z" fill="#0077FF"/>
<path d="M-119.636 13.2932L774.16 898.304L775.598 896.884L-118.199 11.8739L-119.636 13.2932Z" fill="#0077FF"/>
<path d="M-117.578 5.28442L776.062 890.449L777.499 889.03L-116.141 3.86536L-117.578 5.28442Z" fill="#0077FF"/>
<path d="M-115.697 -2.57056L778.1 882.44L779.537 881.021L-114.259 -3.98987L-115.697 -2.57056Z" fill="#0077FF"/>
<path d="M-114.343 -9.87625L780.702 873.899L782.138 872.478L-112.907 -11.2975L-114.343 -9.87625Z" fill="#0077FF"/>
<path d="M-112.503 -17.7703L782.542 866.005L783.977 864.584L-111.068 -19.1916L-112.503 -17.7703Z" fill="#0077FF"/>
<path d="M-110.162 -26.0227L784.259 858.371L785.695 856.95L-108.726 -27.443L-110.162 -26.0227Z" fill="#0077FF"/>
<path d="M-108.279 -33.884L786.298 850.355L787.734 848.934L-106.843 -35.3046L-108.279 -33.884Z" fill="#0077FF"/>
<path d="M-278.699 647.676L616.346 1531.45L617.781 1530.03L-277.264 646.255L-278.699 647.676Z" fill="#0077FF"/>
<path d="M-101.328 -36.8508L793.093 847.542L794.529 846.122L-99.8916 -38.2711L-101.328 -36.8508Z" fill="#0077FF"/>
<path d="M-91.1366 -46.9299L803.284 837.463L804.721 836.043L-89.7002 -48.3502L-91.1366 -46.9299Z" fill="#0077FF"/>
<path d="M-85.6933 -41.5442L808.728 842.849L810.164 841.429L-84.2569 -42.9645L-85.6933 -41.5442Z" fill="#0077FF"/>
<path d="M-84.3379 -48.8668L811.331 834.291L812.765 832.869L-82.9035 -50.2891L-84.3379 -48.8668Z" fill="#0077FF"/>
<path d="M-81.0305 -58.0798L811.984 827.702L813.423 826.284L-79.5918 -59.4979L-81.0305 -58.0798Z" fill="#0077FF"/>
<path d="M-79.0402 -66.0134L813.975 819.768L815.413 818.35L-77.6016 -67.4315L-79.0402 -66.0134Z" fill="#0077FF"/>
<path d="M-77.8046 -73.2473L816.616 811.146L818.053 809.726L-76.3682 -74.6676L-77.8046 -73.2473Z" fill="#0077FF"/>
<path d="M-75.83 -81.1619L818.591 803.231L820.027 801.811L-74.3936 -82.5822L-75.83 -81.1619Z" fill="#0077FF"/>
<path d="M-74.4833 -88.477L821.186 794.681L822.62 793.258L-73.0489 -89.8992L-74.4833 -88.477Z" fill="#0077FF"/>
<path d="M-71.9003 -97.0193L822.521 787.374L823.957 785.954L-70.4639 -98.4396L-71.9003 -97.0193Z" fill="#0077FF"/>
<path d="M-70.6372 -104.265L825.188 778.738L826.622 777.316L-69.203 -105.687L-70.6372 -104.265Z" fill="#0077FF"/>
<path d="M-67.2307 -113.567L825.784 772.214L827.223 770.796L-65.792 -114.985L-67.2307 -113.567Z" fill="#0077FF"/>
<path d="M-65.9608 -120.809L828.46 763.584L829.896 762.164L-64.5244 -122.229L-65.9608 -120.809Z" fill="#0077FF"/>
<path d="M-63.3752 -129.35L829.796 756.278L831.234 754.86L-61.9368 -130.768L-63.3752 -129.35Z" fill="#0077FF"/>
<path d="M-62.7573 -135.959L833.067 747.044L834.502 745.622L-61.3232 -137.381L-62.7573 -135.959Z" fill="#0077FF"/>
<path d="M-60.0527 -144.569L834.368 739.825L835.805 738.404L-58.6163 -145.989L-60.0527 -144.569Z" fill="#0077FF"/>
<path d="M-58.0733 -152.512L836.348 731.881L837.784 730.461L-56.6368 -153.932L-58.0733 -152.512Z" fill="#0077FF"/>
<path d="M-56.122 -160.427L838.299 723.967L839.735 722.546L-54.6856 -161.847L-56.122 -160.427Z" fill="#0077FF"/>
<path d="M841.708 714.609L840.272 716.029L-54.148 -168.364L-52.712 -169.783L841.708 714.609Z" fill="#0077FF"/>
<path d="M-51.5432 -176.911L841.628 708.717L843.066 707.298L-50.1047 -178.329L-51.5432 -176.911Z" fill="#0077FF"/>
<path d="M-49.5833 -184.831L843.588 700.796L845.026 699.378L-48.1449 -186.249L-49.5833 -184.831Z" fill="#0077FF"/>
<path d="M-48.1143 -192.22L846.15 692.328L847.587 690.908L-46.6777 -193.64L-48.1143 -192.22Z" fill="#0077FF"/>
<path d="M-46.2714 -200.073L848.149 684.32L849.586 682.9L-44.835 -201.493L-46.2714 -200.073Z" fill="#0077FF"/>
<path d="M-45.0122 -207.301L850.812 675.702L852.247 674.28L-43.578 -208.723L-45.0122 -207.301Z" fill="#0077FF"/>
<path d="M-42.3301 -215.918L852.091 668.475L853.527 667.055L-40.8937 -217.339L-42.3301 -215.918Z" fill="#0077FF"/>
<path d="M-41.0747 -223.151L854.75 659.853L856.184 658.43L-39.6405 -224.573L-41.0747 -223.151Z" fill="#0077FF"/>
<path d="M-37.759 -232.393L855.412 653.235L856.851 651.817L-36.3206 -233.811L-37.759 -232.393Z" fill="#0077FF"/>
<path d="M-36.3243 -239.785L857.94 644.763L859.377 643.343L-34.8876 -241.205L-36.3243 -239.785Z" fill="#0077FF"/>
<path d="M-34.4287 -247.617L859.992 636.777L861.429 635.357L-32.9924 -249.037L-34.4287 -247.617Z" fill="#0077FF"/>
<path d="M863.387 627.426L861.951 628.846L-32.4688 -255.547L-31.0328 -256.967L863.387 627.426Z" fill="#0077FF"/>
<path d="M-30.5995 -263.407L863.978 620.832L865.414 619.411L-29.1634 -264.828L-30.5995 -263.407Z" fill="#0077FF"/>
<path d="M-29.2534 -270.707L866.571 612.296L868.005 610.874L-27.8193 -272.129L-29.2534 -270.707Z" fill="#0077FF"/>
<path d="M-26.4366 -279.406L867.828 605.142L869.265 603.722L-25 -280.826L-26.4366 -279.406Z" fill="#0077FF"/>
<path d="M-23.8625 -287.944L869.152 597.838L870.591 596.42L-22.4238 -289.362L-23.8625 -287.944Z" fill="#0077FF"/>
<path d="M-22.6103 -295.177L871.811 589.216L873.247 587.796L-21.1739 -296.598L-22.6103 -295.177Z" fill="#0077FF"/>
<path d="M-19.9162 -303.802L873.099 581.979L874.537 580.561L-18.4775 -305.221L-19.9162 -303.802Z" fill="#0077FF"/>
<path d="M-19.5 -310.236L876.48 572.613L877.914 571.19L-18.0662 -311.658L-19.5 -310.236Z" fill="#0077FF"/>
<path d="M-16.701 -318.954L877.72 565.439L879.156 564.019L-15.2646 -320.375L-16.701 -318.954Z" fill="#0077FF"/>
<path d="M-15.3573 -326.278L880.312 556.88L881.746 555.458L-13.9229 -327.7L-15.3573 -326.278Z" fill="#0077FF"/>
<path d="M-12.0353 -335.498L880.979 550.284L882.418 548.866L-10.5967 -336.916L-12.0353 -335.498Z" fill="#0077FF"/>
<path d="M-10.7792 -342.727L883.642 541.667L885.078 540.246L-9.34285 -344.147L-10.7792 -342.727Z" fill="#0077FF"/>
<path d="M-8.08896 -351.362L884.926 534.419L886.364 533.001L-6.6503 -352.78L-8.08896 -351.362Z" fill="#0077FF"/>
<path d="M-6.94811 -358.509L887.629 525.73L889.065 524.31L-5.51199 -359.929L-6.94811 -358.509Z" fill="#0077FF"/>
<path d="M-4.85832 -366.515L889.562 517.878L890.999 516.458L-3.42191 -367.936L-4.85832 -366.515Z" fill="#0077FF"/>
<path d="M892.948 508.537L891.512 509.957L-2.90824 -374.436L-1.47228 -375.856L892.948 508.537Z" fill="#0077FF"/>
<path d="M-0.827304 -382.452L893.438 502.096L894.874 500.676L0.609354 -383.872L-0.827304 -382.452Z" fill="#0077FF"/>
<path d="M1.03914 -390.287L895.46 494.106L896.896 492.686L2.47551 -391.708L1.03914 -390.287Z" fill="#0077FF"/>
<path d="M2.99617 -398.218L897.417 486.175L898.853 484.755L4.43258 -399.638L2.99617 -398.218Z" fill="#0077FF"/>
<path d="M5.59454 -406.757L898.766 478.87L900.204 477.452L7.03292 -408.176L5.59454 -406.757Z" fill="#0077FF"/>
<path d="M6.85356 -413.996L901.431 470.243L902.867 468.823L8.28972 -415.416L6.85356 -413.996Z" fill="#0077FF"/>
<path d="M8.90926 -421.991L903.33 462.402L904.766 460.982L10.3456 -423.412L8.90926 -421.991Z" fill="#0077FF"/>
<path d="M10.2775 -429.293L905.946 453.864L907.381 452.442L11.7119 -430.716L10.2775 -429.293Z" fill="#0077FF"/>
<path d="M12.8643 -437.848L907.285 446.545L908.722 445.125L14.3007 -439.268L12.8643 -437.848Z" fill="#0077FF"/>
<path d="M14.1117 -445.073L909.937 437.93L911.371 436.508L15.5459 -446.496L14.1117 -445.073Z" fill="#0077FF"/>
<path d="M16.8283 -453.724L911.249 430.669L912.685 429.249L18.2647 -455.145L16.8283 -453.724Z" fill="#0077FF"/>
<path d="M18.7735 -461.626L913.194 422.767L914.631 421.347L20.2099 -463.047L18.7735 -461.626Z" fill="#0077FF"/>
<path d="M21.4735 -470.259L914.488 415.523L915.927 414.105L22.9121 -471.677L21.4735 -470.259Z" fill="#0077FF"/>
<path d="M22.8182 -477.571L917.083 406.977L918.52 405.557L24.2549 -478.991L22.8182 -477.571Z" fill="#0077FF"/>
<path d="M24.6652 -485.409L919.086 398.984L920.522 397.564L26.1016 -486.83L24.6652 -485.409Z" fill="#0077FF"/>
<path d="M26.6622 -493.328L921.083 391.065L922.519 389.645L28.0986 -494.749L26.6622 -493.328Z" fill="#0077FF"/>
<path d="M28.6241 -501.256L923.045 383.138L924.481 381.717L30.0605 -502.676L28.6241 -501.256Z" fill="#0077FF"/>
<path d="M30.5918 -509.186L925.013 375.207L926.449 373.787L32.0282 -510.607L30.5918 -509.186Z" fill="#0077FF"/>
<path d="M32.6768 -517.204L926.941 367.344L928.378 365.924L34.1134 -518.624L32.6768 -517.204Z" fill="#0077FF"/>
<path d="M35.3807 -525.819L928.239 360.117L929.678 358.699L36.8196 -527.237L35.3807 -525.819Z" fill="#0077FF"/>
<path d="M36.5137 -532.958L930.935 351.435L932.371 350.015L37.9502 -534.379L36.5137 -532.958Z" fill="#0077FF"/>
<path d="M38.4027 -540.809L932.979 343.43L934.416 342.01L39.8388 -542.229L38.4027 -540.809Z" fill="#0077FF"/>
<path d="M39.7192 -548.109L935.544 334.894L936.978 333.472L41.1533 -549.532L39.7192 -548.109Z" fill="#0077FF"/>
<path d="M42.4347 -556.747L936.855 327.646L938.292 326.226L43.8711 -558.167L42.4347 -556.747Z" fill="#0077FF"/>
<path d="M43.6733 -563.959L939.498 319.044L940.932 317.622L45.1074 -565.381L43.6733 -563.959Z" fill="#0077FF"/>
<path d="M47.1678 -573.371L940.026 312.565L941.465 311.147L48.6067 -574.789L47.1678 -573.371Z" fill="#0077FF"/>
<path d="M48.3488 -580.518L942.77 303.875L944.206 302.455L49.7852 -581.939L48.3488 -580.518Z" fill="#0077FF"/>
<path d="M50.9372 -589.056L944.108 296.572L945.547 295.153L52.3756 -590.474L50.9372 -589.056Z" fill="#0077FF"/>
<path d="M52.9959 -597.073L946.011 288.708L947.449 287.29L54.4346 -598.491L52.9959 -597.073Z" fill="#0077FF"/>
<path d="M54.2531 -604.309L948.674 280.084L950.11 278.664L55.6895 -605.729L54.2531 -604.309Z" fill="#0077FF"/>
<path d="M56.1973 -612.235L950.618 272.159L952.055 270.738L57.6337 -613.655L56.1973 -612.235Z" fill="#0077FF"/>
<path d="M58.2988 -620.237L952.563 264.311L954 262.891L59.7355 -621.657L58.2988 -620.237Z" fill="#0077FF"/>
<path d="M60.2791 -628.164L954.544 256.384L955.981 254.964L61.7158 -629.584L60.2791 -628.164Z" fill="#0077FF"/>
<path d="M62.0187 -635.909L956.596 248.33L958.032 246.909L63.4548 -637.33L62.0187 -635.909Z" fill="#0077FF"/>
<path d="M64.8231 -644.633L957.838 241.148L959.277 239.73L66.2618 -646.051L64.8231 -644.633Z" fill="#0077FF"/>
<path d="M66.084 -651.841L960.505 232.553L961.941 231.132L67.5204 -653.261L66.084 -651.841Z" fill="#0077FF"/>
<path d="M68.046 -659.783L962.467 224.61L963.903 223.19L69.4824 -661.203L68.046 -659.783Z" fill="#0077FF"/>
<path d="M69.4084 -667.1L965.077 216.058L966.512 214.635L70.8428 -668.522L69.4084 -667.1Z" fill="#0077FF"/>
<path d="M72.0877 -675.729L966.353 208.818L967.789 207.398L73.5244 -677.15L72.0877 -675.729Z" fill="#0077FF"/>
<path d="M73.3489 -682.934L969.018 200.223L970.452 198.801L74.7833 -684.357L73.3489 -682.934Z" fill="#0077FF"/>
<path d="M76.6511 -692.189L969.666 193.593L971.105 192.175L78.0898 -693.607L76.6511 -692.189Z" fill="#0077FF"/>
<path d="M77.8673 -699.401L972.288 184.993L973.724 183.572L79.3037 -700.821L77.8673 -699.401Z" fill="#0077FF"/>
<path d="M80.5976 -708.029L973.612 177.752L975.051 176.334L82.0362 -709.447L80.5976 -708.029Z" fill="#0077FF"/>
<path d="M81.7383 -715.184L976.315 169.055L977.752 167.635L83.1745 -716.604L81.7383 -715.184Z" fill="#0077FF"/>
<path d="M-87.6711 -34.656L805.344 851.125L806.782 849.707L-86.2325 -36.074L-87.6711 -34.656Z" fill="#0077FF"/>
</g>
<path d="M72.848 45.9333C72.5328 45.6043 46.8604 45.9333 46.8604 45.9333L46.8604 72.7725L72.848 45.9333Z" fill="#0077FF"/>
<path d="M47.1225 769.015C46.7898 769.344 47.1225 794.729 47.1225 794.729L74.2484 794.729L47.1225 769.015Z" fill="#0077FF"/>
<path d="M47.1748 54.0202L47.1748 782.331L49.2062 782.331L49.2062 54.0202L47.1748 54.0202Z" fill="#0077FF"/>
<path d="M48.1738 447.188L63.6543 418.375L48.1738 394.583L48.1738 447.188Z" fill="#0077FF"/>
<path d="M521.45 793.949C521.783 794.261 547.455 793.949 547.455 793.949L547.455 767.11L521.45 793.949Z" fill="#0077FF"/>
<path d="M547.21 70.8684C547.543 70.5394 547.21 45.1548 547.21 45.1548L520.084 45.1548L547.21 70.8684Z" fill="#0077FF"/>
<path d="M545.108 57.5521L545.108 785.845L547.14 785.845L547.14 57.5521L545.108 57.5521Z" fill="#0077FF"/>
<path d="M546.124 392.679L530.661 421.492L546.124 445.301L546.124 392.679Z" fill="#0077FF"/>
<g opacity="0.6">
<path d="M224.896 922.192L-36.2988 661" stroke="#B8BBC2" stroke-width="0.5588" stroke-miterlimit="10"/>
<path d="M224.896 934.118L-48.2241 661" stroke="#B8BBC2" stroke-width="0.5588" stroke-miterlimit="10"/>
<path d="M224.896 946.045L-60.146 661" stroke="#B8BBC2" stroke-width="0.5588" stroke-miterlimit="10"/>
<path d="M224.896 957.97L-72.0723 661" stroke="#B8BBC2" stroke-width="0.5588" stroke-miterlimit="10"/>
<path d="M224.896 969.896L-84 661" stroke="#B8BBC2" stroke-width="0.5588" stroke-miterlimit="10"/>
</g>
<g clip-path="url(#clip1_1360_935)">
<path d="M137.687 113.649V112.212C136.686 112.183 135.702 111.942 134.802 111.505C133.997 111.112 133.317 110.504 132.839 109.748C132.375 108.935 132.131 108.015 132.131 107.079C132.131 106.143 132.375 105.224 132.839 104.41C133.316 103.655 133.996 103.047 134.802 102.657C135.702 102.22 136.686 101.979 137.687 101.95V100.572H140.755V101.95C141.759 101.978 142.744 102.219 143.647 102.657C144.453 103.047 145.133 103.655 145.61 104.41C146.074 105.224 146.318 106.143 146.318 107.079C146.318 108.015 146.074 108.935 145.61 109.748C145.132 110.504 144.452 111.112 143.647 111.505C142.744 111.943 141.759 112.184 140.755 112.212V113.649H137.687ZM137.687 109.665V104.497C137.225 104.516 136.774 104.642 136.37 104.865C136.008 105.072 135.713 105.378 135.52 105.747C135.327 106.167 135.227 106.623 135.227 107.084C135.227 107.546 135.327 108.002 135.52 108.421C135.713 108.787 136.005 109.09 136.363 109.297C136.77 109.521 137.223 109.647 137.687 109.665ZM140.755 109.665C141.216 109.647 141.666 109.521 142.068 109.297C142.43 109.094 142.723 108.79 142.911 108.421C143.107 108.003 143.209 107.546 143.209 107.084C143.209 106.622 143.107 106.166 142.911 105.747C142.726 105.376 142.432 105.068 142.068 104.865C141.666 104.641 141.216 104.515 140.755 104.497V109.665ZM148.184 113.063V101.292H155.586V104.111H151.287V113.07L148.184 113.063ZM162.427 113.315C161.562 113.323 160.704 113.167 159.898 112.853C159.15 112.554 158.467 112.111 157.89 111.55C157.323 110.995 156.873 110.332 156.567 109.6C155.949 108.041 155.949 106.307 156.567 104.748C156.873 104.016 157.323 103.353 157.89 102.798C158.467 102.238 159.149 101.797 159.898 101.502C160.704 101.188 161.562 101.032 162.427 101.04C163.29 101.031 164.146 101.192 164.946 101.512C165.695 101.813 166.377 102.258 166.954 102.822C167.525 103.38 167.977 104.046 168.284 104.783C168.603 105.541 168.764 106.355 168.757 107.177C168.762 108.005 168.602 108.825 168.284 109.59C167.978 110.323 167.525 110.986 166.954 111.54C166.376 112.1 165.694 112.543 164.946 112.842C164.145 113.16 163.289 113.321 162.427 113.315ZM162.427 110.413C162.848 110.418 163.266 110.341 163.657 110.186C164.025 110.041 164.358 109.82 164.635 109.538C164.916 109.24 165.134 108.888 165.274 108.504C165.431 108.076 165.509 107.623 165.502 107.167C165.52 106.568 165.383 105.975 165.105 105.444C164.855 104.972 164.475 104.581 164.01 104.317C163.526 104.05 162.98 103.914 162.427 103.925C162.005 103.92 161.586 103.997 161.194 104.152C160.827 104.298 160.494 104.517 160.216 104.796C159.933 105.093 159.716 105.445 159.576 105.83C159.424 106.269 159.352 106.731 159.362 107.195C159.347 107.793 159.483 108.385 159.756 108.918C160.008 109.384 160.385 109.772 160.845 110.038C161.33 110.299 161.876 110.429 162.427 110.413ZM176.369 113.315C175.242 113.337 174.127 113.082 173.121 112.574C172.205 112.088 171.445 111.353 170.931 110.454C170.389 109.463 170.118 108.347 170.146 107.219C170.136 106.366 170.291 105.519 170.602 104.724C170.898 103.988 171.343 103.32 171.909 102.763C172.479 102.211 173.156 101.779 173.899 101.495C174.699 101.185 175.552 101.031 176.411 101.04C177.27 101.016 178.127 101.147 178.94 101.426C179.614 101.679 180.238 102.046 180.785 102.512L179.251 105.051C178.932 104.717 178.539 104.461 178.104 104.304C177.626 104.128 177.12 104.042 176.611 104.049C176.147 104.042 175.685 104.117 175.246 104.269C174.87 104.398 174.528 104.61 174.245 104.889C173.962 105.168 173.745 105.508 173.612 105.882C173.465 106.298 173.394 106.737 173.401 107.177C173.384 107.758 173.518 108.334 173.788 108.849C174.043 109.311 174.43 109.687 174.901 109.927C175.451 110.186 176.055 110.312 176.663 110.296C177.178 110.294 177.689 110.215 178.18 110.062C178.704 109.898 179.197 109.648 179.638 109.321L181.055 111.909C180.459 112.348 179.797 112.689 179.092 112.918C178.213 113.199 177.293 113.333 176.369 113.315ZM185.917 109.641V106.967H191.006V109.641H185.917ZM132.939 129.875V118.104H143.443V129.875H140.334V120.916H136.042V129.875H132.939ZM146.128 129.875V118.104H151.018C151.835 118.091 152.645 118.252 153.395 118.576C154.063 118.87 154.632 119.348 155.036 119.955C155.449 120.592 155.659 121.339 155.637 122.098C155.661 122.856 155.468 123.605 155.081 124.259C154.695 124.852 154.14 125.317 153.488 125.596C152.686 125.923 151.825 126.08 150.959 126.057H149.231V129.875H146.128ZM149.238 123.494H150.841C151.279 123.519 151.714 123.411 152.089 123.183C152.234 123.047 152.35 122.882 152.428 122.699C152.506 122.516 152.546 122.319 152.544 122.12C152.543 121.921 152.5 121.725 152.419 121.543C152.337 121.361 152.219 121.198 152.071 121.064C151.71 120.835 151.286 120.723 150.859 120.744H149.238V123.494ZM155.516 129.875L159.874 118.104H163.509L167.876 129.875H164.373L163.633 127.629H159.646L158.91 129.875H155.516ZM160.354 125.051H162.959L161.66 121.336L160.354 125.051ZM176.504 129.875L171.781 123.831L176.065 118.104H179.942L175.557 123.831L180.44 129.875H176.504ZM169.248 129.875V118.104H172.358V122.356H174.566V125.179H172.323V129.872L169.248 129.875ZM183.65 129.875V120.916H180.54V118.097H189.845V120.916H186.753V129.875H183.65ZM191.473 129.875V118.104H194.541V125.023L198.95 118.104H202.06V129.875H198.981V122.863L194.538 129.875H191.473ZM211.973 129.875L207.253 123.831L211.538 118.104H215.415L211.03 123.831L215.954 129.875H211.973ZM204.717 129.875V118.104H207.827V122.356H210.07V125.179H207.806V129.872L204.717 129.875ZM217.848 130.116L216.78 127.312C217.484 127.202 218.169 126.99 218.812 126.681C219.386 126.382 219.895 125.973 220.311 125.478C220.797 124.88 221.203 124.221 221.517 123.518L224.06 118.104H227.654L224.23 124.941C223.844 125.741 223.387 126.506 222.865 127.225C222.445 127.803 221.952 128.323 221.396 128.773C220.904 129.164 220.352 129.473 219.762 129.689C219.137 129.906 218.489 130.05 217.83 130.116H217.848ZM220.926 126.757L216.341 118.104H220.09L223.006 124.176L220.926 126.757ZM228.791 129.875V118.104H231.776L236.15 125.392L234.913 125.409L239.043 118.104H242.018V129.875H239.008L239.067 122.022L239.606 122.225L236.417 127.763H234.385L231.04 122.225L231.572 122.022L231.631 129.875H228.791Z" fill="#0077FF"/>
<path d="M102.514 120.179L102.169 122.591H103.951V123.37H100.275V122.591H101.36L101.705 120.179H86.502C86.502 127.811 93.4334 134 101.989 134C110.544 134 117.476 127.797 117.476 120.179H102.514ZM101.861 133.748C101.489 131.773 100.525 129.956 99.0967 128.538C100.914 126.778 101.194 124.042 101.194 124.042H102.003V128.9C101.838 128.941 101.692 129.036 101.587 129.169C101.483 129.302 101.426 129.467 101.426 129.636C101.426 129.805 101.483 129.969 101.587 130.103C101.692 130.236 101.838 130.331 102.003 130.372V133.752L101.861 133.748ZM102.531 133.748H102.365V130.368C102.53 130.327 102.676 130.233 102.781 130.099C102.885 129.966 102.942 129.802 102.942 129.632C102.942 129.463 102.885 129.299 102.781 129.165C102.676 129.032 102.53 128.938 102.365 128.897V124.038H103.177C103.177 124.038 103.457 126.774 105.275 128.535C103.853 129.957 102.897 131.774 102.531 133.748Z" fill="#0077FF"/>
<path d="M117.487 99.9827V120.175H102.521L102.601 119.631C106.177 114.745 113.865 114.734 113.938 114.734V100.531L115.382 99.9827H117.487Z" fill="#E73C3B"/>
<path d="M122.389 97.3259L115.389 99.9826L113.944 100.531V96.616C104.024 97.0743 102.196 104.983 102.196 104.983C102.196 104.983 100.372 97.0743 90.4479 96.616V100.544L81.9961 97.3534L102.186 90L122.389 97.3259Z" fill="#0077FF"/>
<path d="M101.695 120.365L86.5195 120.341V100.179H90.4517V114.689H90.4794C91.8857 114.689 98.7377 114.92 101.512 119.514L101.765 119.858L101.695 120.365ZM86.8582 119.944H101.436L101.295 119.72C98.6305 115.306 91.8477 115.082 90.4794 115.082H90.2548H90.0509V100.561H86.8582V119.944Z" fill="#0077FF"/>
<path fill-rule="evenodd" clip-rule="evenodd" d="M109.159 103.807C106.74 107.253 104.408 112.608 103.254 116.654C103.146 117.036 103.019 117.415 102.908 117.798C102.849 117.997 102.794 118.201 102.742 118.404C102.721 118.497 102.697 118.59 102.68 118.687C102.68 118.721 102.614 118.918 102.639 118.952C102.653 118.922 102.673 118.895 102.697 118.873C102.891 118.68 103.077 118.48 103.264 118.28C103.969 117.524 104.693 116.788 105.437 116.071C105.524 115.989 105.603 115.896 105.686 115.806C106.163 115.279 107.165 114.241 107.386 113.694C106.716 113.869 106.163 114.166 105.365 114.21C105.728 113.911 107.784 113.032 108.378 111.75C108.318 111.771 108.255 111.783 108.191 111.788L108.005 111.833L107.642 111.929C107.265 112.029 106.889 112.105 106.505 112.171C106.305 112.208 106.557 112.04 106.609 112.012C106.981 111.829 107.341 111.623 107.687 111.395C108.067 111.132 108.42 110.832 108.741 110.499C109.061 110.165 109.35 109.803 109.605 109.417C109.798 109.122 109.973 108.815 110.126 108.497C110.415 107.899 110.62 107.263 110.734 106.609C110.206 106.812 109.242 107.512 108.229 107.619C108.512 107.42 108.81 107.243 109.121 107.091C110.064 106.509 110.71 105.999 111.239 105.003C112.061 103.449 112.054 102.098 111.84 100.203C110.776 100.279 109.19 101.082 108.461 101.561C108.275 101.659 108.106 101.786 107.96 101.936C107.821 102.161 107.722 102.408 107.67 102.667C107.504 103.194 107.352 103.725 107.213 104.262C107.179 104.4 107.144 104.538 107.113 104.676C107.091 104.748 107.08 104.824 107.082 104.9C107.03 104.47 107.038 104.035 107.106 103.608C107.127 103.411 107.155 103.211 107.179 103.015C107.179 102.922 107.207 102.832 107.217 102.739C107.234 102.656 107.245 102.572 107.248 102.488C107.213 102.5 107.179 102.516 107.148 102.536C106.968 102.647 106.807 102.785 106.671 102.946C106.519 103.108 106.35 103.256 106.204 103.422C106.075 103.558 105.984 103.725 105.938 103.907C105.936 103.93 105.936 103.953 105.938 103.976C105.807 104.755 105.721 105.699 105.551 106.461C105.483 106.253 105.444 106.036 105.437 105.816C105.417 105.506 105.417 105.193 105.41 104.883C105.41 104.793 105.41 104.703 105.41 104.617C105.415 104.529 105.415 104.44 105.41 104.352C105.36 104.379 105.317 104.415 105.282 104.459C105.234 104.507 105.189 104.552 105.147 104.6C105.043 104.717 104.95 104.841 104.857 104.965C104.632 105.269 104.432 105.586 104.235 105.906C104.038 106.226 103.831 106.595 103.641 106.94C103.478 107.243 103.319 107.55 103.167 107.856L103.043 108.122C101.979 110.437 102.718 111.399 102.763 113.525C102.277 112.637 101.992 111.654 101.927 110.644L101.581 111.526C101.003 113.311 100.871 115.21 101.198 117.057C101.317 117.716 101.537 118.353 101.851 118.945C102.006 118.707 102.393 117.105 102.518 116.678C103.644 112.811 106.36 106.74 109.014 103.756C109.145 103.597 109.235 103.466 109.446 103.208L109.995 102.581" fill="#0077FF"/>
</g>
<path d="M433.404 109.08C432.87 109.08 432.377 108.993 431.924 108.82C431.477 108.64 431.087 108.39 430.754 108.07C430.427 107.743 430.17 107.363 429.984 106.93C429.797 106.497 429.704 106.02 429.704 105.5C429.704 104.98 429.797 104.503 429.984 104.07C430.17 103.637 430.43 103.26 430.764 102.94C431.097 102.613 431.487 102.363 431.934 102.19C432.387 102.01 432.88 101.92 433.414 101.92C433.954 101.92 434.45 102.013 434.904 102.2C435.364 102.38 435.754 102.65 436.074 103.01L435.424 103.64C435.157 103.36 434.857 103.153 434.524 103.02C434.19 102.88 433.834 102.81 433.454 102.81C433.06 102.81 432.694 102.877 432.354 103.01C432.02 103.143 431.73 103.33 431.484 103.57C431.237 103.81 431.044 104.097 430.904 104.43C430.77 104.757 430.704 105.113 430.704 105.5C430.704 105.887 430.77 106.247 430.904 106.58C431.044 106.907 431.237 107.19 431.484 107.43C431.73 107.67 432.02 107.857 432.354 107.99C432.694 108.123 433.06 108.19 433.454 108.19C433.834 108.19 434.19 108.123 434.524 107.99C434.857 107.85 435.157 107.637 435.424 107.35L436.074 107.98C435.754 108.34 435.364 108.613 434.904 108.8C434.45 108.987 433.95 109.08 433.404 109.08ZM437.291 109V103.7H439.751C440.371 103.7 440.858 103.82 441.211 104.06C441.571 104.293 441.751 104.627 441.751 105.06C441.751 105.493 441.581 105.83 441.241 106.07C440.908 106.303 440.465 106.42 439.911 106.42L440.061 106.16C440.695 106.16 441.165 106.277 441.471 106.51C441.778 106.743 441.931 107.087 441.931 107.54C441.931 108 441.758 108.36 441.411 108.62C441.071 108.873 440.548 109 439.841 109H437.291ZM438.231 108.26H439.771C440.171 108.26 440.471 108.2 440.671 108.08C440.871 107.953 440.971 107.753 440.971 107.48C440.971 107.2 440.878 106.997 440.691 106.87C440.511 106.737 440.225 106.67 439.831 106.67H438.231V108.26ZM438.231 105.98H439.671C440.038 105.98 440.315 105.913 440.501 105.78C440.695 105.64 440.791 105.447 440.791 105.2C440.791 104.947 440.695 104.757 440.501 104.63C440.315 104.503 440.038 104.44 439.671 104.44H438.231V105.98ZM443.434 109V103.7H444.394V107.56L447.644 103.7H448.514V109H447.554V105.14L444.314 109H443.434ZM450.687 108.33L449.737 108.16C449.944 108.167 450.111 108.1 450.237 107.96C450.364 107.813 450.461 107.613 450.527 107.36C450.601 107.107 450.654 106.82 450.687 106.5C450.721 106.173 450.747 105.837 450.767 105.49L450.847 103.7H454.957V108.55H453.997V104.54H451.697L451.647 105.56C451.634 105.893 451.611 106.217 451.577 106.53C451.551 106.837 451.504 107.12 451.437 107.38C451.377 107.64 451.287 107.853 451.167 108.02C451.047 108.187 450.887 108.29 450.687 108.33ZM449.527 110.23V108.16H455.767V110.23H454.867V109H450.437V110.23H449.527ZM459.378 109.06C458.811 109.06 458.311 108.943 457.878 108.71C457.451 108.477 457.118 108.157 456.878 107.75C456.645 107.343 456.528 106.877 456.528 106.35C456.528 105.823 456.641 105.357 456.868 104.95C457.101 104.543 457.418 104.227 457.818 104C458.225 103.767 458.681 103.65 459.188 103.65C459.701 103.65 460.155 103.763 460.548 103.99C460.941 104.217 461.248 104.537 461.468 104.95C461.695 105.357 461.808 105.833 461.808 106.38C461.808 106.42 461.805 106.467 461.798 106.52C461.798 106.573 461.795 106.623 461.788 106.67H457.278V105.98H461.288L460.898 106.22C460.905 105.88 460.835 105.577 460.688 105.31C460.541 105.043 460.338 104.837 460.078 104.69C459.825 104.537 459.528 104.46 459.188 104.46C458.855 104.46 458.558 104.537 458.298 104.69C458.038 104.837 457.835 105.047 457.688 105.32C457.541 105.587 457.468 105.893 457.468 106.24V106.4C457.468 106.753 457.548 107.07 457.708 107.35C457.875 107.623 458.105 107.837 458.398 107.99C458.691 108.143 459.028 108.22 459.408 108.22C459.721 108.22 460.005 108.167 460.258 108.06C460.518 107.953 460.745 107.793 460.938 107.58L461.468 108.2C461.228 108.48 460.928 108.693 460.568 108.84C460.215 108.987 459.818 109.06 459.378 109.06ZM464.123 109V104.29L464.363 104.54H462.183V103.7H467.023V104.54H464.853L465.083 104.29V109H464.123ZM470.13 109.06C469.563 109.06 469.063 108.943 468.63 108.71C468.203 108.477 467.87 108.157 467.63 107.75C467.397 107.343 467.28 106.877 467.28 106.35C467.28 105.823 467.393 105.357 467.62 104.95C467.853 104.543 468.17 104.227 468.57 104C468.977 103.767 469.433 103.65 469.94 103.65C470.453 103.65 470.907 103.763 471.3 103.99C471.693 104.217 472 104.537 472.22 104.95C472.447 105.357 472.56 105.833 472.56 106.38C472.56 106.42 472.557 106.467 472.55 106.52C472.55 106.573 472.547 106.623 472.54 106.67H468.03V105.98H472.04L471.65 106.22C471.657 105.88 471.587 105.577 471.44 105.31C471.293 105.043 471.09 104.837 470.83 104.69C470.577 104.537 470.28 104.46 469.94 104.46C469.607 104.46 469.31 104.537 469.05 104.69C468.79 104.837 468.587 105.047 468.44 105.32C468.293 105.587 468.22 105.893 468.22 106.24V106.4C468.22 106.753 468.3 107.07 468.46 107.35C468.627 107.623 468.857 107.837 469.15 107.99C469.443 108.143 469.78 108.22 470.16 108.22C470.473 108.22 470.757 108.167 471.01 108.06C471.27 107.953 471.497 107.793 471.69 107.58L472.22 108.2C471.98 108.48 471.68 108.693 471.32 108.84C470.967 108.987 470.57 109.06 470.13 109.06ZM473.671 109.08C473.585 109.08 473.491 109.07 473.391 109.05C473.298 109.037 473.195 109.017 473.081 108.99L473.141 108.18C473.188 108.187 473.231 108.193 473.271 108.2C473.311 108.207 473.348 108.21 473.381 108.21C473.595 108.21 473.761 108.137 473.881 107.99C474.008 107.843 474.101 107.65 474.161 107.41C474.221 107.163 474.265 106.887 474.291 106.58C474.318 106.273 474.338 105.967 474.351 105.66L474.441 103.7H478.511V109H477.551V104.26L477.781 104.54H475.061L475.281 104.25L475.211 105.72C475.191 106.187 475.155 106.623 475.101 107.03C475.048 107.437 474.965 107.793 474.851 108.1C474.745 108.407 474.595 108.647 474.401 108.82C474.215 108.993 473.971 109.08 473.671 109.08ZM482.668 109.01L480.368 109V103.7H481.328V105.49L482.818 105.5C483.491 105.507 484.004 105.66 484.358 105.96C484.711 106.26 484.888 106.683 484.888 107.23C484.888 107.803 484.694 108.247 484.308 108.56C483.921 108.867 483.374 109.017 482.668 109.01ZM482.588 108.28C483.021 108.287 483.348 108.2 483.568 108.02C483.794 107.84 483.908 107.573 483.908 107.22C483.908 106.873 483.798 106.62 483.578 106.46C483.358 106.3 483.028 106.217 482.588 106.21L481.328 106.19V108.27L482.588 108.28ZM488.429 109.06C487.889 109.06 487.406 108.943 486.979 108.71C486.559 108.477 486.229 108.157 485.989 107.75C485.749 107.343 485.629 106.877 485.629 106.35C485.629 105.823 485.749 105.357 485.989 104.95C486.229 104.543 486.559 104.227 486.979 104C487.406 103.767 487.889 103.65 488.429 103.65C488.909 103.65 489.336 103.747 489.709 103.94C490.089 104.127 490.383 104.407 490.589 104.78L489.859 105.25C489.686 104.99 489.473 104.8 489.219 104.68C488.973 104.553 488.706 104.49 488.419 104.49C488.073 104.49 487.763 104.567 487.489 104.72C487.216 104.873 486.999 105.09 486.839 105.37C486.679 105.643 486.599 105.97 486.599 106.35C486.599 106.73 486.679 107.06 486.839 107.34C486.999 107.62 487.216 107.837 487.489 107.99C487.763 108.143 488.073 108.22 488.419 108.22C488.706 108.22 488.973 108.16 489.219 108.04C489.473 107.913 489.686 107.72 489.859 107.46L490.589 107.92C490.383 108.287 490.089 108.57 489.709 108.77C489.336 108.963 488.909 109.06 488.429 109.06ZM492.814 109V104.29L493.054 104.54H490.874V103.7H495.714V104.54H493.544L493.774 104.29V109H492.814ZM496.696 109V103.7H499.156C499.776 103.7 500.262 103.82 500.616 104.06C500.976 104.293 501.156 104.627 501.156 105.06C501.156 105.493 500.986 105.83 500.646 106.07C500.312 106.303 499.869 106.42 499.316 106.42L499.466 106.16C500.099 106.16 500.569 106.277 500.876 106.51C501.182 106.743 501.336 107.087 501.336 107.54C501.336 108 501.162 108.36 500.816 108.62C500.476 108.873 499.952 109 499.246 109H496.696ZM497.636 108.26H499.176C499.576 108.26 499.876 108.2 500.076 108.08C500.276 107.953 500.376 107.753 500.376 107.48C500.376 107.2 500.282 106.997 500.096 106.87C499.916 106.737 499.629 106.67 499.236 106.67H497.636V108.26ZM497.636 105.98H499.076C499.442 105.98 499.719 105.913 499.906 105.78C500.099 105.64 500.196 105.447 500.196 105.2C500.196 104.947 500.099 104.757 499.906 104.63C499.719 104.503 499.442 104.44 499.076 104.44H497.636V105.98ZM505.108 109.06C504.575 109.06 504.102 108.943 503.688 108.71C503.275 108.477 502.948 108.157 502.708 107.75C502.468 107.337 502.348 106.87 502.348 106.35C502.348 105.823 502.468 105.357 502.708 104.95C502.948 104.543 503.275 104.227 503.688 104C504.102 103.767 504.575 103.65 505.108 103.65C505.635 103.65 506.105 103.767 506.518 104C506.938 104.227 507.265 104.543 507.498 104.95C507.738 105.35 507.858 105.817 507.858 106.35C507.858 106.877 507.738 107.343 507.498 107.75C507.265 108.157 506.938 108.477 506.518 108.71C506.105 108.943 505.635 109.06 505.108 109.06ZM505.108 108.22C505.448 108.22 505.752 108.143 506.018 107.99C506.292 107.837 506.505 107.62 506.658 107.34C506.812 107.053 506.888 106.723 506.888 106.35C506.888 105.97 506.812 105.643 506.658 105.37C506.505 105.09 506.292 104.873 506.018 104.72C505.752 104.567 505.448 104.49 505.108 104.49C504.768 104.49 504.465 104.567 504.198 104.72C503.932 104.873 503.718 105.09 503.558 105.37C503.398 105.643 503.318 105.97 503.318 106.35C503.318 106.723 503.398 107.053 503.558 107.34C503.718 107.62 503.932 107.837 504.198 107.99C504.465 108.143 504.768 108.22 505.108 108.22ZM406.036 119.06C405.503 119.06 405.029 118.943 404.616 118.71C404.203 118.477 403.876 118.157 403.636 117.75C403.396 117.337 403.276 116.87 403.276 116.35C403.276 115.823 403.396 115.357 403.636 114.95C403.876 114.543 404.203 114.227 404.616 114C405.029 113.767 405.503 113.65 406.036 113.65C406.563 113.65 407.033 113.767 407.446 114C407.866 114.227 408.193 114.543 408.426 114.95C408.666 115.35 408.786 115.817 408.786 116.35C408.786 116.877 408.666 117.343 408.426 117.75C408.193 118.157 407.866 118.477 407.446 118.71C407.033 118.943 406.563 119.06 406.036 119.06ZM406.036 118.22C406.376 118.22 406.679 118.143 406.946 117.99C407.219 117.837 407.433 117.62 407.586 117.34C407.739 117.053 407.816 116.723 407.816 116.35C407.816 115.97 407.739 115.643 407.586 115.37C407.433 115.09 407.219 114.873 406.946 114.72C406.679 114.567 406.376 114.49 406.036 114.49C405.696 114.49 405.393 114.567 405.126 114.72C404.859 114.873 404.646 115.09 404.486 115.37C404.326 115.643 404.246 115.97 404.246 116.35C404.246 116.723 404.326 117.053 404.486 117.34C404.646 117.62 404.859 117.837 405.126 117.99C405.393 118.143 405.696 118.22 406.036 118.22ZM415.668 119.06C415.228 119.06 414.824 118.96 414.458 118.76C414.098 118.553 413.808 118.25 413.588 117.85C413.374 117.45 413.268 116.95 413.268 116.35C413.268 115.75 413.371 115.25 413.578 114.85C413.791 114.45 414.078 114.15 414.438 113.95C414.804 113.75 415.214 113.65 415.668 113.65C416.188 113.65 416.648 113.763 417.048 113.99C417.448 114.217 417.764 114.533 417.998 114.94C418.231 115.34 418.348 115.81 418.348 116.35C418.348 116.89 418.231 117.363 417.998 117.77C417.764 118.177 417.448 118.493 417.048 118.72C416.648 118.947 416.188 119.06 415.668 119.06ZM412.858 120.94V113.7H413.778V115.13L413.718 116.36L413.818 117.59V120.94H412.858ZM415.588 118.22C415.928 118.22 416.231 118.143 416.498 117.99C416.771 117.837 416.984 117.62 417.138 117.34C417.298 117.053 417.378 116.723 417.378 116.35C417.378 115.97 417.298 115.643 417.138 115.37C416.984 115.09 416.771 114.873 416.498 114.72C416.231 114.567 415.928 114.49 415.588 114.49C415.254 114.49 414.951 114.567 414.678 114.72C414.411 114.873 414.198 115.09 414.038 115.37C413.884 115.643 413.808 115.97 413.808 116.35C413.808 116.723 413.884 117.053 414.038 117.34C414.198 117.62 414.411 117.837 414.678 117.99C414.951 118.143 415.254 118.22 415.588 118.22ZM422.103 119.06C421.536 119.06 421.036 118.943 420.603 118.71C420.176 118.477 419.843 118.157 419.603 117.75C419.369 117.343 419.253 116.877 419.253 116.35C419.253 115.823 419.366 115.357 419.593 114.95C419.826 114.543 420.143 114.227 420.543 114C420.949 113.767 421.406 113.65 421.913 113.65C422.426 113.65 422.879 113.763 423.273 113.99C423.666 114.217 423.973 114.537 424.193 114.95C424.419 115.357 424.533 115.833 424.533 116.38C424.533 116.42 424.529 116.467 424.523 116.52C424.523 116.573 424.519 116.623 424.513 116.67H420.003V115.98H424.013L423.623 116.22C423.629 115.88 423.559 115.577 423.413 115.31C423.266 115.043 423.063 114.837 422.803 114.69C422.549 114.537 422.253 114.46 421.913 114.46C421.579 114.46 421.283 114.537 421.023 114.69C420.763 114.837 420.559 115.047 420.413 115.32C420.266 115.587 420.193 115.893 420.193 116.24V116.4C420.193 116.753 420.273 117.07 420.433 117.35C420.599 117.623 420.829 117.837 421.123 117.99C421.416 118.143 421.753 118.22 422.133 118.22C422.446 118.22 422.729 118.167 422.983 118.06C423.243 117.953 423.469 117.793 423.663 117.58L424.193 118.2C423.953 118.48 423.653 118.693 423.293 118.84C422.939 118.987 422.543 119.06 422.103 119.06ZM426.022 119V113.7H429.922V114.54H426.752L426.982 114.32V119H426.022ZM430.905 119V113.7H431.865V117.56L435.115 113.7H435.985V119H435.025V115.14L431.785 119H430.905ZM440.158 119.06C439.618 119.06 439.135 118.943 438.708 118.71C438.288 118.477 437.958 118.157 437.718 117.75C437.478 117.343 437.358 116.877 437.358 116.35C437.358 115.823 437.478 115.357 437.718 114.95C437.958 114.543 438.288 114.227 438.708 114C439.135 113.767 439.618 113.65 440.158 113.65C440.638 113.65 441.065 113.747 441.438 113.94C441.818 114.127 442.111 114.407 442.318 114.78L441.588 115.25C441.415 114.99 441.201 114.8 440.948 114.68C440.701 114.553 440.435 114.49 440.148 114.49C439.801 114.49 439.491 114.567 439.218 114.72C438.945 114.873 438.728 115.09 438.568 115.37C438.408 115.643 438.328 115.97 438.328 116.35C438.328 116.73 438.408 117.06 438.568 117.34C438.728 117.62 438.945 117.837 439.218 117.99C439.491 118.143 439.801 118.22 440.148 118.22C440.435 118.22 440.701 118.16 440.948 118.04C441.201 117.913 441.415 117.72 441.588 117.46L442.318 117.92C442.111 118.287 441.818 118.57 441.438 118.77C441.065 118.963 440.638 119.06 440.158 119.06ZM444.543 119V114.29L444.783 114.54H442.603V113.7H447.443V114.54H445.273L445.502 114.29V119H444.543ZM451.234 119.06C450.794 119.06 450.391 118.96 450.024 118.76C449.664 118.553 449.374 118.25 449.154 117.85C448.941 117.45 448.834 116.95 448.834 116.35C448.834 115.75 448.937 115.25 449.144 114.85C449.357 114.45 449.644 114.15 450.004 113.95C450.371 113.75 450.781 113.65 451.234 113.65C451.754 113.65 452.214 113.763 452.614 113.99C453.014 114.217 453.331 114.533 453.564 114.94C453.797 115.34 453.914 115.81 453.914 116.35C453.914 116.89 453.797 117.363 453.564 117.77C453.331 118.177 453.014 118.493 452.614 118.72C452.214 118.947 451.754 119.06 451.234 119.06ZM448.424 120.94V113.7H449.344V115.13L449.284 116.36L449.384 117.59V120.94H448.424ZM451.154 118.22C451.494 118.22 451.797 118.143 452.064 117.99C452.337 117.837 452.551 117.62 452.704 117.34C452.864 117.053 452.944 116.723 452.944 116.35C452.944 115.97 452.864 115.643 452.704 115.37C452.551 115.09 452.337 114.873 452.064 114.72C451.797 114.567 451.494 114.49 451.154 114.49C450.821 114.49 450.517 114.567 450.244 114.72C449.977 114.873 449.764 115.09 449.604 115.37C449.451 115.643 449.374 115.97 449.374 116.35C449.374 116.723 449.451 117.053 449.604 117.34C449.764 117.62 449.977 117.837 450.244 117.99C450.517 118.143 450.821 118.22 451.154 118.22ZM458.51 119V117.88L458.46 117.67V115.76C458.46 115.353 458.34 115.04 458.1 114.82C457.867 114.593 457.513 114.48 457.04 114.48C456.727 114.48 456.42 114.533 456.12 114.64C455.82 114.74 455.567 114.877 455.36 115.05L454.96 114.33C455.233 114.11 455.56 113.943 455.94 113.83C456.327 113.71 456.73 113.65 457.15 113.65C457.877 113.65 458.437 113.827 458.83 114.18C459.223 114.533 459.42 115.073 459.42 115.8V119H458.51ZM456.77 119.06C456.377 119.06 456.03 118.993 455.73 118.86C455.437 118.727 455.21 118.543 455.05 118.31C454.89 118.07 454.81 117.8 454.81 117.5C454.81 117.213 454.877 116.953 455.01 116.72C455.15 116.487 455.373 116.3 455.68 116.16C455.993 116.02 456.413 115.95 456.94 115.95H458.62V116.64H456.98C456.5 116.64 456.177 116.72 456.01 116.88C455.843 117.04 455.76 117.233 455.76 117.46C455.76 117.72 455.863 117.93 456.07 118.09C456.277 118.243 456.563 118.32 456.93 118.32C457.29 118.32 457.603 118.24 457.87 118.08C458.143 117.92 458.34 117.687 458.46 117.38L458.65 118.04C458.523 118.353 458.3 118.603 457.98 118.79C457.66 118.97 457.257 119.06 456.77 119.06ZM461.149 119V113.7H462.109V118.16H465.009V113.7H465.969V119H461.149ZM465.899 120.23V118.95L466.139 119H465.009V118.16H466.809V120.23H465.899ZM468.053 119V113.7H469.013V117.56L472.263 113.7H473.133V119H472.173V115.14L468.933 119H468.053ZM474.996 119V113.7H475.956V117.56L479.206 113.7H480.076V119H479.116V115.14L475.876 119H474.996ZM487.915 119.08C487.382 119.08 486.889 118.993 486.435 118.82C485.989 118.64 485.599 118.39 485.265 118.07C484.939 117.743 484.682 117.363 484.495 116.93C484.309 116.497 484.215 116.02 484.215 115.5C484.215 114.98 484.309 114.503 484.495 114.07C484.682 113.637 484.942 113.26 485.275 112.94C485.609 112.613 485.999 112.363 486.445 112.19C486.899 112.01 487.392 111.92 487.925 111.92C488.465 111.92 488.962 112.013 489.415 112.2C489.875 112.38 490.265 112.65 490.585 113.01L489.935 113.64C489.669 113.36 489.369 113.153 489.035 113.02C488.702 112.88 488.345 112.81 487.965 112.81C487.572 112.81 487.205 112.877 486.865 113.01C486.532 113.143 486.242 113.33 485.995 113.57C485.749 113.81 485.555 114.097 485.415 114.43C485.282 114.757 485.215 115.113 485.215 115.5C485.215 115.887 485.282 116.247 485.415 116.58C485.555 116.907 485.749 117.19 485.995 117.43C486.242 117.67 486.532 117.857 486.865 117.99C487.205 118.123 487.572 118.19 487.965 118.19C488.345 118.19 488.702 118.123 489.035 117.99C489.369 117.85 489.669 117.637 489.935 117.35L490.585 117.98C490.265 118.34 489.875 118.613 489.415 118.8C488.962 118.987 488.462 119.08 487.915 119.08ZM491.963 119V112H492.783L495.923 117.29H495.483L498.583 112H499.403L499.413 119H498.453L498.443 113.51H498.673L495.913 118.15H495.453L492.673 113.51H492.923V119H491.963ZM501.592 119V112H502.582V117.4L506.722 112H507.642V119H506.662V113.61L502.512 119H501.592ZM509.874 115.02C509.688 115.02 509.528 114.957 509.394 114.83C509.261 114.697 509.194 114.53 509.194 114.33C509.194 114.13 509.261 113.967 509.394 113.84C509.528 113.713 509.688 113.65 509.874 113.65C510.054 113.65 510.208 113.713 510.334 113.84C510.468 113.967 510.534 114.13 510.534 114.33C510.534 114.53 510.468 114.697 510.334 114.83C510.208 114.957 510.054 115.02 509.874 115.02ZM509.874 119.06C509.688 119.06 509.528 118.997 509.394 118.87C509.261 118.737 509.194 118.57 509.194 118.37C509.194 118.17 509.261 118.007 509.394 117.88C509.528 117.753 509.688 117.69 509.874 117.69C510.054 117.69 510.208 117.753 510.334 117.88C510.468 118.007 510.534 118.17 510.534 118.37C510.534 118.57 510.468 118.737 510.334 118.87C510.208 118.997 510.054 119.06 509.874 119.06ZM419.469 129.08C418.909 129.08 418.393 128.987 417.919 128.8C417.453 128.613 417.059 128.34 416.739 127.98L417.369 127.35C417.649 127.637 417.959 127.847 418.299 127.98C418.646 128.113 419.019 128.18 419.419 128.18C419.786 128.18 420.126 128.113 420.439 127.98C420.753 127.847 421.023 127.663 421.249 127.43C421.483 127.19 421.663 126.907 421.789 126.58C421.916 126.247 421.979 125.887 421.979 125.5C421.979 125.113 421.916 124.757 421.789 124.43C421.663 124.097 421.483 123.813 421.249 123.58C421.023 123.34 420.753 123.153 420.439 123.02C420.126 122.887 419.786 122.82 419.419 122.82C419.019 122.82 418.646 122.887 418.299 123.02C417.959 123.153 417.649 123.363 417.369 123.65L416.739 123.02C417.059 122.66 417.453 122.387 417.919 122.2C418.393 122.013 418.909 121.92 419.469 121.92C419.976 121.92 420.443 122.01 420.869 122.19C421.296 122.363 421.666 122.613 421.979 122.94C422.299 123.26 422.546 123.637 422.719 124.07C422.899 124.503 422.989 124.98 422.989 125.5C422.989 126.02 422.899 126.497 422.719 126.93C422.546 127.363 422.299 127.743 421.979 128.07C421.666 128.39 421.296 128.64 420.869 128.82C420.443 128.993 419.976 129.08 419.469 129.08ZM418.569 125.85V125.03H422.319V125.85H418.569ZM423.994 129.08C423.907 129.08 423.814 129.07 423.714 129.05C423.62 129.037 423.517 129.017 423.404 128.99L423.464 128.18C423.51 128.187 423.554 128.193 423.594 128.2C423.634 128.207 423.67 128.21 423.704 128.21C423.917 128.21 424.084 128.137 424.204 127.99C424.33 127.843 424.424 127.65 424.484 127.41C424.544 127.163 424.587 126.887 424.614 126.58C424.64 126.273 424.66 125.967 424.674 125.66L424.764 123.7H428.834V129H427.874V124.26L428.104 124.54H425.384L425.604 124.25L425.534 125.72C425.514 126.187 425.477 126.623 425.424 127.03C425.37 127.437 425.287 127.793 425.174 128.1C425.067 128.407 424.917 128.647 424.724 128.82C424.537 128.993 424.294 129.08 423.994 129.08ZM430.9 129.06C430.713 129.06 430.553 128.997 430.42 128.87C430.286 128.737 430.22 128.57 430.22 128.37C430.22 128.17 430.286 128.007 430.42 127.88C430.553 127.753 430.713 127.69 430.9 127.69C431.08 127.69 431.233 127.753 431.36 127.88C431.493 128.007 431.56 128.17 431.56 128.37C431.56 128.57 431.493 128.737 431.36 128.87C431.233 128.997 431.08 129.06 430.9 129.06ZM435.761 129V122H436.581L441.211 127.75H440.781V122H441.781V129H440.961L436.331 123.25H436.761V129H435.761ZM442.891 126.61V125.96H446.051V126.61H442.891ZM444.471 125.17C444.124 125.17 443.818 125.1 443.551 124.96C443.284 124.82 443.074 124.63 442.921 124.39C442.768 124.143 442.691 123.863 442.691 123.55C442.691 123.237 442.768 122.96 442.921 122.72C443.074 122.473 443.284 122.283 443.551 122.15C443.824 122.01 444.131 121.94 444.471 121.94C444.818 121.94 445.124 122.01 445.391 122.15C445.658 122.283 445.864 122.473 446.011 122.72C446.164 122.96 446.241 123.237 446.241 123.55C446.241 123.863 446.164 124.143 446.011 124.39C445.864 124.63 445.658 124.82 445.391 124.96C445.124 125.1 444.818 125.17 444.471 125.17ZM444.471 124.59C444.798 124.59 445.061 124.493 445.261 124.3C445.468 124.107 445.571 123.857 445.571 123.55C445.571 123.237 445.468 122.987 445.261 122.8C445.061 122.607 444.798 122.51 444.471 122.51C444.144 122.51 443.878 122.607 443.671 122.8C443.464 122.987 443.361 123.237 443.361 123.55C443.361 123.85 443.464 124.1 443.671 124.3C443.878 124.493 444.144 124.59 444.471 124.59ZM451.262 128.53C450.409 128.53 449.679 128.413 449.072 128.18C448.465 127.94 448.002 127.593 447.682 127.14C447.362 126.687 447.202 126.137 447.202 125.49C447.202 124.843 447.362 124.293 447.682 123.84C448.002 123.387 448.465 123.04 449.072 122.8C449.679 122.56 450.409 122.44 451.262 122.44C451.275 122.44 451.299 122.44 451.332 122.44C451.372 122.44 451.409 122.44 451.442 122.44C451.482 122.44 451.505 122.44 451.512 122.44C452.365 122.44 453.092 122.56 453.692 122.8C454.299 123.04 454.762 123.387 455.082 123.84C455.402 124.293 455.562 124.843 455.562 125.49C455.562 126.13 455.402 126.68 455.082 127.14C454.769 127.593 454.312 127.94 453.712 128.18C453.119 128.413 452.399 128.53 451.552 128.53C451.539 128.53 451.509 128.53 451.462 128.53C451.422 128.53 451.382 128.53 451.342 128.53C451.302 128.53 451.275 128.53 451.262 128.53ZM451.372 127.75C451.385 127.75 451.402 127.75 451.422 127.75C451.442 127.75 451.452 127.75 451.452 127.75C452.132 127.743 452.705 127.657 453.172 127.49C453.639 127.317 453.992 127.063 454.232 126.73C454.479 126.39 454.602 125.973 454.602 125.48C454.602 124.993 454.479 124.583 454.232 124.25C453.985 123.917 453.629 123.663 453.162 123.49C452.702 123.317 452.139 123.23 451.472 123.23C451.465 123.23 451.449 123.23 451.422 123.23C451.402 123.23 451.385 123.23 451.372 123.23C450.685 123.23 450.102 123.317 449.622 123.49C449.149 123.657 448.789 123.907 448.542 124.24C448.295 124.573 448.172 124.99 448.172 125.49C448.172 125.99 448.299 126.407 448.552 126.74C448.805 127.073 449.169 127.327 449.642 127.5C450.122 127.667 450.699 127.75 451.372 127.75ZM450.922 129.26V121.74H451.852V129.26H450.922ZM460.23 129.08C459.696 129.08 459.203 128.993 458.75 128.82C458.303 128.64 457.913 128.39 457.58 128.07C457.253 127.743 456.996 127.363 456.81 126.93C456.623 126.497 456.53 126.02 456.53 125.5C456.53 124.98 456.623 124.503 456.81 124.07C456.996 123.637 457.256 123.26 457.59 122.94C457.923 122.613 458.313 122.363 458.76 122.19C459.213 122.01 459.706 121.92 460.24 121.92C460.78 121.92 461.276 122.013 461.73 122.2C462.19 122.38 462.58 122.65 462.9 123.01L462.25 123.64C461.983 123.36 461.683 123.153 461.35 123.02C461.016 122.88 460.66 122.81 460.28 122.81C459.886 122.81 459.52 122.877 459.18 123.01C458.846 123.143 458.556 123.33 458.31 123.57C458.063 123.81 457.87 124.097 457.73 124.43C457.596 124.757 457.53 125.113 457.53 125.5C457.53 125.887 457.596 126.247 457.73 126.58C457.87 126.907 458.063 127.19 458.31 127.43C458.556 127.67 458.846 127.857 459.18 127.99C459.52 128.123 459.886 128.19 460.28 128.19C460.66 128.19 461.016 128.123 461.35 127.99C461.683 127.85 461.983 127.637 462.25 127.35L462.9 127.98C462.58 128.34 462.19 128.613 461.73 128.8C461.276 128.987 460.776 129.08 460.23 129.08ZM467.563 129L470.533 122.42L470.793 122.87H466.633L467.133 122.38V124.12H466.173V122H471.453V122.68L468.623 129H467.563ZM473.54 129L476.51 122.42L476.77 122.87H472.61L473.11 122.38V124.12H472.15V122H477.43V122.68L474.6 129H473.54ZM477.898 126.67V125.84H480.588V126.67H477.898ZM482.749 129L485.719 122.42L485.979 122.87H481.819L482.319 122.38V124.12H481.359V122H486.639V122.68L483.809 129H482.749ZM486.761 127.28V126.58L490.341 122H491.421L487.871 126.58L487.361 126.42H492.951V127.28H486.761ZM490.651 129V127.28L490.681 126.42V124.9H491.621V129H490.651ZM495.801 129.08C495.307 129.08 494.827 129.003 494.361 128.85C493.901 128.697 493.524 128.49 493.231 128.23L493.691 127.44C493.924 127.66 494.227 127.84 494.601 127.98C494.974 128.12 495.371 128.19 495.791 128.19C496.324 128.19 496.734 128.077 497.021 127.85C497.307 127.623 497.451 127.32 497.451 126.94C497.451 126.68 497.387 126.453 497.261 126.26C497.134 126.067 496.914 125.92 496.601 125.82C496.294 125.713 495.871 125.66 495.331 125.66H493.741L494.111 122H498.061V122.87H494.481L495.001 122.38L494.711 125.27L494.191 124.79H495.541C496.241 124.79 496.804 124.88 497.231 125.06C497.657 125.24 497.967 125.49 498.161 125.81C498.354 126.123 498.451 126.487 498.451 126.9C498.451 127.3 498.354 127.667 498.161 128C497.967 128.327 497.674 128.59 497.281 128.79C496.894 128.983 496.401 129.08 495.801 129.08ZM499.124 129V128.32L501.974 125.57C502.227 125.33 502.414 125.12 502.534 124.94C502.661 124.753 502.744 124.583 502.784 124.43C502.831 124.27 502.854 124.117 502.854 123.97C502.854 123.61 502.727 123.327 502.474 123.12C502.221 122.913 501.851 122.81 501.364 122.81C500.991 122.81 500.654 122.873 500.354 123C500.054 123.12 499.794 123.31 499.574 123.57L498.894 122.98C499.161 122.64 499.517 122.38 499.964 122.2C500.417 122.013 500.914 121.92 501.454 121.92C501.941 121.92 502.364 122 502.724 122.16C503.084 122.313 503.361 122.537 503.554 122.83C503.754 123.123 503.854 123.47 503.854 123.87C503.854 124.097 503.824 124.32 503.764 124.54C503.704 124.76 503.591 124.993 503.424 125.24C503.257 125.487 503.017 125.763 502.704 126.07L500.164 128.52L499.924 128.13H504.154V129H499.124ZM504.691 127.28V126.58L508.271 122H509.351L505.801 126.58L505.291 126.42H510.881V127.28H504.691ZM508.581 129V127.28L508.611 126.42V124.9H509.551V129H508.581ZM451.348 139.06C450.815 139.06 450.342 138.943 449.928 138.71C449.515 138.477 449.188 138.157 448.948 137.75C448.708 137.337 448.588 136.87 448.588 136.35C448.588 135.823 448.708 135.357 448.948 134.95C449.188 134.543 449.515 134.227 449.928 134C450.342 133.767 450.815 133.65 451.348 133.65C451.875 133.65 452.345 133.767 452.758 134C453.178 134.227 453.505 134.543 453.738 134.95C453.978 135.35 454.098 135.817 454.098 136.35C454.098 136.877 453.978 137.343 453.738 137.75C453.505 138.157 453.178 138.477 452.758 138.71C452.345 138.943 451.875 139.06 451.348 139.06ZM451.348 138.22C451.688 138.22 451.992 138.143 452.258 137.99C452.532 137.837 452.745 137.62 452.898 137.34C453.052 137.053 453.128 136.723 453.128 136.35C453.128 135.97 453.052 135.643 452.898 135.37C452.745 135.09 452.532 134.873 452.258 134.72C451.992 134.567 451.688 134.49 451.348 134.49C451.008 134.49 450.705 134.567 450.438 134.72C450.172 134.873 449.958 135.09 449.798 135.37C449.638 135.643 449.558 135.97 449.558 136.35C449.558 136.723 449.638 137.053 449.798 137.34C449.958 137.62 450.172 137.837 450.438 137.99C450.705 138.143 451.008 138.22 451.348 138.22ZM456.339 139V134.29L456.579 134.54H454.399V133.7H459.239V134.54H457.069L457.299 134.29V139H456.339ZM462.347 139V138.32L465.197 135.57C465.45 135.33 465.637 135.12 465.757 134.94C465.883 134.753 465.967 134.583 466.007 134.43C466.053 134.27 466.077 134.117 466.077 133.97C466.077 133.61 465.95 133.327 465.697 133.12C465.443 132.913 465.073 132.81 464.587 132.81C464.213 132.81 463.877 132.873 463.577 133C463.277 133.12 463.017 133.31 462.797 133.57L462.117 132.98C462.383 132.64 462.74 132.38 463.187 132.2C463.64 132.013 464.137 131.92 464.677 131.92C465.163 131.92 465.587 132 465.947 132.16C466.307 132.313 466.583 132.537 466.777 132.83C466.977 133.123 467.077 133.47 467.077 133.87C467.077 134.097 467.047 134.32 466.987 134.54C466.927 134.76 466.813 134.993 466.647 135.24C466.48 135.487 466.24 135.763 465.927 136.07L463.387 138.52L463.147 138.13H467.377V139H462.347ZM467.913 137.28V136.58L471.493 132H472.573L469.023 136.58L468.513 136.42H474.103V137.28H467.913ZM471.803 139V137.28L471.833 136.42V134.9H472.773V139H471.803ZM475.558 139.06C475.371 139.06 475.211 138.997 475.078 138.87C474.945 138.737 474.878 138.57 474.878 138.37C474.878 138.17 474.945 138.007 475.078 137.88C475.211 137.753 475.371 137.69 475.558 137.69C475.738 137.69 475.891 137.753 476.018 137.88C476.151 138.007 476.218 138.17 476.218 138.37C476.218 138.57 476.151 138.737 476.018 138.87C475.891 138.997 475.738 139.06 475.558 139.06ZM478.217 139V132.4L478.647 132.87H476.637V132H479.207V139H478.217ZM480.628 139V138.32L483.478 135.57C483.731 135.33 483.918 135.12 484.038 134.94C484.164 134.753 484.248 134.583 484.288 134.43C484.334 134.27 484.358 134.117 484.358 133.97C484.358 133.61 484.231 133.327 483.978 133.12C483.724 132.913 483.354 132.81 482.868 132.81C482.494 132.81 482.158 132.873 481.858 133C481.558 133.12 481.298 133.31 481.078 133.57L480.398 132.98C480.664 132.64 481.021 132.38 481.468 132.2C481.921 132.013 482.418 131.92 482.958 131.92C483.444 131.92 483.868 132 484.228 132.16C484.588 132.313 484.864 132.537 485.058 132.83C485.258 133.123 485.358 133.47 485.358 133.87C485.358 134.097 485.328 134.32 485.268 134.54C485.208 134.76 485.094 134.993 484.928 135.24C484.761 135.487 484.521 135.763 484.208 136.07L481.668 138.52L481.428 138.13H485.658V139H480.628ZM487.238 139.06C487.051 139.06 486.891 138.997 486.758 138.87C486.624 138.737 486.558 138.57 486.558 138.37C486.558 138.17 486.624 138.007 486.758 137.88C486.891 137.753 487.051 137.69 487.238 137.69C487.418 137.69 487.571 137.753 487.698 137.88C487.831 138.007 487.898 138.17 487.898 138.37C487.898 138.57 487.831 138.737 487.698 138.87C487.571 138.997 487.418 139.06 487.238 139.06ZM488.831 139V138.32L491.681 135.57C491.934 135.33 492.121 135.12 492.241 134.94C492.368 134.753 492.451 134.583 492.491 134.43C492.538 134.27 492.561 134.117 492.561 133.97C492.561 133.61 492.434 133.327 492.181 133.12C491.928 132.913 491.558 132.81 491.071 132.81C490.698 132.81 490.361 132.873 490.061 133C489.761 133.12 489.501 133.31 489.281 133.57L488.601 132.98C488.868 132.64 489.224 132.38 489.671 132.2C490.124 132.013 490.621 131.92 491.161 131.92C491.648 131.92 492.071 132 492.431 132.16C492.791 132.313 493.068 132.537 493.261 132.83C493.461 133.123 493.561 133.47 493.561 133.87C493.561 134.097 493.531 134.32 493.471 134.54C493.411 134.76 493.298 134.993 493.131 135.24C492.964 135.487 492.724 135.763 492.411 136.07L489.871 138.52L489.631 138.13H493.861V139H488.831ZM497.533 139.08C496.987 139.08 496.497 138.94 496.063 138.66C495.637 138.38 495.297 137.973 495.043 137.44C494.797 136.907 494.673 136.26 494.673 135.5C494.673 134.74 494.797 134.093 495.043 133.56C495.297 133.027 495.637 132.62 496.063 132.34C496.497 132.06 496.987 131.92 497.533 131.92C498.073 131.92 498.56 132.06 498.993 132.34C499.427 132.62 499.767 133.027 500.013 133.56C500.26 134.093 500.383 134.74 500.383 135.5C500.383 136.26 500.26 136.907 500.013 137.44C499.767 137.973 499.427 138.38 498.993 138.66C498.56 138.94 498.073 139.08 497.533 139.08ZM497.533 138.19C497.9 138.19 498.22 138.09 498.493 137.89C498.773 137.69 498.99 137.39 499.143 136.99C499.303 136.59 499.383 136.093 499.383 135.5C499.383 134.907 499.303 134.41 499.143 134.01C498.99 133.61 498.773 133.31 498.493 133.11C498.22 132.91 497.9 132.81 497.533 132.81C497.167 132.81 496.843 132.91 496.563 133.11C496.283 133.31 496.063 133.61 495.903 134.01C495.75 134.41 495.673 134.907 495.673 135.5C495.673 136.093 495.75 136.59 495.903 136.99C496.063 137.39 496.283 137.69 496.563 137.89C496.843 138.09 497.167 138.19 497.533 138.19ZM502.523 139V132.4L502.953 132.87H500.943V132H503.513V139H502.523ZM507.774 139.08C507.208 139.08 506.718 138.997 506.304 138.83C505.891 138.663 505.571 138.427 505.344 138.12C505.118 137.807 505.004 137.44 505.004 137.02C505.004 136.607 505.111 136.257 505.324 135.97C505.544 135.677 505.861 135.457 506.274 135.31C506.688 135.157 507.188 135.08 507.774 135.08C508.361 135.08 508.861 135.157 509.274 135.31C509.694 135.457 510.014 135.677 510.234 135.97C510.454 136.263 510.564 136.613 510.564 137.02C510.564 137.44 510.451 137.807 510.224 138.12C509.998 138.427 509.674 138.663 509.254 138.83C508.834 138.997 508.341 139.08 507.774 139.08ZM507.774 138.27C508.334 138.27 508.771 138.157 509.084 137.93C509.404 137.697 509.564 137.383 509.564 136.99C509.564 136.603 509.404 136.3 509.084 136.08C508.771 135.853 508.334 135.74 507.774 135.74C507.221 135.74 506.788 135.853 506.474 136.08C506.161 136.3 506.004 136.603 506.004 136.99C506.004 137.383 506.161 137.697 506.474 137.93C506.788 138.157 507.221 138.27 507.774 138.27ZM507.774 134.98C508.261 134.98 508.641 134.88 508.914 134.68C509.194 134.48 509.334 134.207 509.334 133.86C509.334 133.507 509.191 133.23 508.904 133.03C508.618 132.83 508.241 132.73 507.774 132.73C507.308 132.73 506.934 132.83 506.654 133.03C506.381 133.23 506.244 133.507 506.244 133.86C506.244 134.207 506.378 134.48 506.644 134.68C506.918 134.88 507.294 134.98 507.774 134.98ZM507.774 135.62C507.241 135.62 506.788 135.55 506.414 135.41C506.041 135.263 505.754 135.057 505.554 134.79C505.354 134.517 505.254 134.193 505.254 133.82C505.254 133.427 505.358 133.09 505.564 132.81C505.778 132.523 506.074 132.303 506.454 132.15C506.834 131.997 507.274 131.92 507.774 131.92C508.281 131.92 508.724 131.997 509.104 132.15C509.484 132.303 509.781 132.523 509.994 132.81C510.208 133.09 510.314 133.427 510.314 133.82C510.314 134.193 510.214 134.517 510.014 134.79C509.814 135.057 509.524 135.263 509.144 135.41C508.764 135.55 508.308 135.62 507.774 135.62Z" fill="#A8A8A8"/>
<path d="M83.09 152V145H86.1C86.86 145 87.4567 145.153 87.89 145.46C88.3233 145.767 88.54 146.213 88.54 146.8C88.54 147.373 88.3333 147.813 87.92 148.12C87.5067 148.42 86.9633 148.57 86.29 148.57L86.47 148.27C87.25 148.27 87.8467 148.427 88.26 148.74C88.68 149.047 88.89 149.497 88.89 150.09C88.89 150.69 88.67 151.16 88.23 151.5C87.7967 151.833 87.15 152 86.29 152H83.09ZM84.08 151.21H86.27C86.8033 151.21 87.2033 151.113 87.47 150.92C87.7433 150.72 87.88 150.417 87.88 150.01C87.88 149.603 87.7433 149.307 87.47 149.12C87.2033 148.933 86.8033 148.84 86.27 148.84H84.08V151.21ZM84.08 148.08H86.03C86.5167 148.08 86.8867 147.983 87.14 147.79C87.4 147.597 87.53 147.313 87.53 146.94C87.53 146.56 87.4 146.273 87.14 146.08C86.8867 145.887 86.5167 145.79 86.03 145.79H84.08V148.08ZM92.7107 152.06C92.1707 152.06 91.6874 151.943 91.2607 151.71C90.8407 151.477 90.5107 151.157 90.2707 150.75C90.0307 150.343 89.9107 149.877 89.9107 149.35C89.9107 148.823 90.0307 148.357 90.2707 147.95C90.5107 147.543 90.8407 147.227 91.2607 147C91.6874 146.767 92.1707 146.65 92.7107 146.65C93.1907 146.65 93.6174 146.747 93.9907 146.94C94.3707 147.127 94.664 147.407 94.8707 147.78L94.1407 148.25C93.9674 147.99 93.754 147.8 93.5007 147.68C93.254 147.553 92.9874 147.49 92.7007 147.49C92.354 147.49 92.044 147.567 91.7707 147.72C91.4974 147.873 91.2807 148.09 91.1207 148.37C90.9607 148.643 90.8807 148.97 90.8807 149.35C90.8807 149.73 90.9607 150.06 91.1207 150.34C91.2807 150.62 91.4974 150.837 91.7707 150.99C92.044 151.143 92.354 151.22 92.7007 151.22C92.9874 151.22 93.254 151.16 93.5007 151.04C93.754 150.913 93.9674 150.72 94.1407 150.46L94.8707 150.92C94.664 151.287 94.3707 151.57 93.9907 151.77C93.6174 151.963 93.1907 152.06 92.7107 152.06ZM98.3955 152.06C97.8288 152.06 97.3288 151.943 96.8955 151.71C96.4688 151.477 96.1355 151.157 95.8955 150.75C95.6621 150.343 95.5455 149.877 95.5455 149.35C95.5455 148.823 95.6588 148.357 95.8855 147.95C96.1188 147.543 96.4355 147.227 96.8355 147C97.2421 146.767 97.6988 146.65 98.2055 146.65C98.7188 146.65 99.1721 146.763 99.5655 146.99C99.9588 147.217 100.265 147.537 100.485 147.95C100.712 148.357 100.825 148.833 100.825 149.38C100.825 149.42 100.822 149.467 100.815 149.52C100.815 149.573 100.812 149.623 100.805 149.67H96.2955V148.98H100.305L99.9155 149.22C99.9221 148.88 99.8521 148.577 99.7055 148.31C99.5588 148.043 99.3555 147.837 99.0955 147.69C98.8421 147.537 98.5455 147.46 98.2055 147.46C97.8721 147.46 97.5755 147.537 97.3155 147.69C97.0555 147.837 96.8521 148.047 96.7055 148.32C96.5588 148.587 96.4855 148.893 96.4855 149.24V149.4C96.4855 149.753 96.5655 150.07 96.7255 150.35C96.8921 150.623 97.1221 150.837 97.4155 150.99C97.7088 151.143 98.0455 151.22 98.4255 151.22C98.7388 151.22 99.0221 151.167 99.2755 151.06C99.5355 150.953 99.7621 150.793 99.9555 150.58L100.485 151.2C100.245 151.48 99.9455 151.693 99.5855 151.84C99.2321 151.987 98.8355 152.06 98.3955 152.06ZM105.125 152.06C104.685 152.06 104.281 151.96 103.915 151.76C103.555 151.553 103.265 151.25 103.045 150.85C102.831 150.45 102.725 149.95 102.725 149.35C102.725 148.75 102.828 148.25 103.035 147.85C103.248 147.45 103.535 147.15 103.895 146.95C104.261 146.75 104.671 146.65 105.125 146.65C105.645 146.65 106.105 146.763 106.505 146.99C106.905 147.217 107.221 147.533 107.455 147.94C107.688 148.34 107.805 148.81 107.805 149.35C107.805 149.89 107.688 150.363 107.455 150.77C107.221 151.177 106.905 151.493 106.505 151.72C106.105 151.947 105.645 152.06 105.125 152.06ZM102.315 153.94V146.7H103.235V148.13L103.175 149.36L103.275 150.59V153.94H102.315ZM105.045 151.22C105.385 151.22 105.688 151.143 105.955 150.99C106.228 150.837 106.441 150.62 106.595 150.34C106.755 150.053 106.835 149.723 106.835 149.35C106.835 148.97 106.755 148.643 106.595 148.37C106.441 148.09 106.228 147.873 105.955 147.72C105.688 147.567 105.385 147.49 105.045 147.49C104.711 147.49 104.408 147.567 104.135 147.72C103.868 147.873 103.655 148.09 103.495 148.37C103.341 148.643 103.265 148.97 103.265 149.35C103.265 149.723 103.341 150.053 103.495 150.34C103.655 150.62 103.868 150.837 104.135 150.99C104.408 151.143 104.711 151.22 105.045 151.22ZM111.47 152.06C110.936 152.06 110.463 151.943 110.05 151.71C109.636 151.477 109.31 151.157 109.07 150.75C108.83 150.337 108.71 149.87 108.71 149.35C108.71 148.823 108.83 148.357 109.07 147.95C109.31 147.543 109.636 147.227 110.05 147C110.463 146.767 110.936 146.65 111.47 146.65C111.996 146.65 112.466 146.767 112.88 147C113.3 147.227 113.626 147.543 113.86 147.95C114.1 148.35 114.22 148.817 114.22 149.35C114.22 149.877 114.1 150.343 113.86 150.75C113.626 151.157 113.3 151.477 112.88 151.71C112.466 151.943 111.996 152.06 111.47 152.06ZM111.47 151.22C111.81 151.22 112.113 151.143 112.38 150.99C112.653 150.837 112.866 150.62 113.02 150.34C113.173 150.053 113.25 149.723 113.25 149.35C113.25 148.97 113.173 148.643 113.02 148.37C112.866 148.09 112.653 147.873 112.38 147.72C112.113 147.567 111.81 147.49 111.47 147.49C111.13 147.49 110.826 147.567 110.56 147.72C110.293 147.873 110.08 148.09 109.92 148.37C109.76 148.643 109.68 148.97 109.68 149.35C109.68 149.723 109.76 150.053 109.92 150.34C110.08 150.62 110.293 150.837 110.56 150.99C110.826 151.143 111.13 151.22 111.47 151.22ZM117.916 152.06C117.376 152.06 116.892 151.943 116.466 151.71C116.046 151.477 115.716 151.157 115.476 150.75C115.236 150.343 115.116 149.877 115.116 149.35C115.116 148.823 115.236 148.357 115.476 147.95C115.716 147.543 116.046 147.227 116.466 147C116.892 146.767 117.376 146.65 117.916 146.65C118.396 146.65 118.822 146.747 119.196 146.94C119.576 147.127 119.869 147.407 120.076 147.78L119.346 148.25C119.172 147.99 118.959 147.8 118.706 147.68C118.459 147.553 118.192 147.49 117.906 147.49C117.559 147.49 117.249 147.567 116.976 147.72C116.702 147.873 116.486 148.09 116.326 148.37C116.166 148.643 116.086 148.97 116.086 149.35C116.086 149.73 116.166 150.06 116.326 150.34C116.486 150.62 116.702 150.837 116.976 150.99C117.249 151.143 117.559 151.22 117.906 151.22C118.192 151.22 118.459 151.16 118.706 151.04C118.959 150.913 119.172 150.72 119.346 150.46L120.076 150.92C119.869 151.287 119.576 151.57 119.196 151.77C118.822 151.963 118.396 152.06 117.916 152.06ZM123.551 152.06C123.011 152.06 122.527 151.943 122.101 151.71C121.681 151.477 121.351 151.157 121.111 150.75C120.871 150.343 120.751 149.877 120.751 149.35C120.751 148.823 120.871 148.357 121.111 147.95C121.351 147.543 121.681 147.227 122.101 147C122.527 146.767 123.011 146.65 123.551 146.65C124.031 146.65 124.457 146.747 124.831 146.94C125.211 147.127 125.504 147.407 125.711 147.78L124.981 148.25C124.807 147.99 124.594 147.8 124.341 147.68C124.094 147.553 123.827 147.49 123.541 147.49C123.194 147.49 122.884 147.567 122.611 147.72C122.337 147.873 122.121 148.09 121.961 148.37C121.801 148.643 121.721 148.97 121.721 149.35C121.721 149.73 121.801 150.06 121.961 150.34C122.121 150.62 122.337 150.837 122.611 150.99C122.884 151.143 123.194 151.22 123.541 151.22C123.827 151.22 124.094 151.16 124.341 151.04C124.594 150.913 124.807 150.72 124.981 150.46L125.711 150.92C125.504 151.287 125.211 151.57 124.831 151.77C124.457 151.963 124.031 152.06 123.551 152.06ZM126.953 152V146.7H127.913V150.56L131.163 146.7H132.033V152H131.073V148.14L127.833 152H126.953ZM133.897 152V146.7H134.857V150.56L138.107 146.7H138.977V152H138.017V148.14L134.777 152H133.897ZM136.377 146.01C135.89 146.01 135.507 145.893 135.227 145.66C134.953 145.42 134.813 145.077 134.807 144.63H135.457C135.463 144.883 135.547 145.083 135.707 145.23C135.873 145.377 136.093 145.45 136.367 145.45C136.64 145.45 136.86 145.377 137.027 145.23C137.193 145.083 137.28 144.883 137.287 144.63H137.957C137.95 145.077 137.807 145.42 137.527 145.66C137.247 145.893 136.863 146.01 136.377 146.01ZM143.15 152.06C142.61 152.06 142.127 151.943 141.7 151.71C141.28 151.477 140.95 151.157 140.71 150.75C140.47 150.343 140.35 149.877 140.35 149.35C140.35 148.823 140.47 148.357 140.71 147.95C140.95 147.543 141.28 147.227 141.7 147C142.127 146.767 142.61 146.65 143.15 146.65C143.63 146.65 144.057 146.747 144.43 146.94C144.81 147.127 145.103 147.407 145.31 147.78L144.58 148.25C144.407 147.99 144.193 147.8 143.94 147.68C143.693 147.553 143.427 147.49 143.14 147.49C142.793 147.49 142.483 147.567 142.21 147.72C141.937 147.873 141.72 148.09 141.56 148.37C141.4 148.643 141.32 148.97 141.32 149.35C141.32 149.73 141.4 150.06 141.56 150.34C141.72 150.62 141.937 150.837 142.21 150.99C142.483 151.143 142.793 151.22 143.14 151.22C143.427 151.22 143.693 151.16 143.94 151.04C144.193 150.913 144.407 150.72 144.58 150.46L145.31 150.92C145.103 151.287 144.81 151.57 144.43 151.77C144.057 151.963 143.63 152.06 143.15 152.06ZM150.393 152L148.343 149.42L149.133 148.94L151.523 152H150.393ZM146.553 152V146.7H147.513V152H146.553ZM147.223 149.76V148.94H148.973V149.76H147.223ZM149.213 149.46L148.323 149.34L150.353 146.7H151.383L149.213 149.46ZM152.53 152V146.7H153.49V150.56L156.74 146.7H157.61V152H156.65V148.14L153.41 152H152.53ZM161.833 152.06C161.266 152.06 160.766 151.943 160.333 151.71C159.906 151.477 159.573 151.157 159.333 150.75C159.1 150.343 158.983 149.877 158.983 149.35C158.983 148.823 159.096 148.357 159.323 147.95C159.556 147.543 159.873 147.227 160.273 147C160.68 146.767 161.136 146.65 161.643 146.65C162.156 146.65 162.61 146.763 163.003 146.99C163.396 147.217 163.703 147.537 163.923 147.95C164.15 148.357 164.263 148.833 164.263 149.38C164.263 149.42 164.26 149.467 164.253 149.52C164.253 149.573 164.25 149.623 164.243 149.67H159.733V148.98H163.743L163.353 149.22C163.36 148.88 163.29 148.577 163.143 148.31C162.996 148.043 162.793 147.837 162.533 147.69C162.28 147.537 161.983 147.46 161.643 147.46C161.31 147.46 161.013 147.537 160.753 147.69C160.493 147.837 160.29 148.047 160.143 148.32C159.996 148.587 159.923 148.893 159.923 149.24V149.4C159.923 149.753 160.003 150.07 160.163 150.35C160.33 150.623 160.56 150.837 160.853 150.99C161.146 151.143 161.483 151.22 161.863 151.22C162.176 151.22 162.46 151.167 162.713 151.06C162.973 150.953 163.2 150.793 163.393 150.58L163.923 151.2C163.683 151.48 163.383 151.693 163.023 151.84C162.67 151.987 162.273 152.06 161.833 152.06ZM172.278 152L170.228 149.42L171.018 148.94L173.408 152H172.278ZM168.438 152V146.7H169.398V152H168.438ZM169.108 149.76V148.94H170.858V149.76H169.108ZM171.098 149.46L170.208 149.34L172.238 146.7H173.268L171.098 149.46ZM176.509 152.06C175.975 152.06 175.502 151.943 175.089 151.71C174.675 151.477 174.349 151.157 174.109 150.75C173.869 150.337 173.749 149.87 173.749 149.35C173.749 148.823 173.869 148.357 174.109 147.95C174.349 147.543 174.675 147.227 175.089 147C175.502 146.767 175.975 146.65 176.509 146.65C177.035 146.65 177.505 146.767 177.919 147C178.339 147.227 178.665 147.543 178.899 147.95C179.139 148.35 179.259 148.817 179.259 149.35C179.259 149.877 179.139 150.343 178.899 150.75C178.665 151.157 178.339 151.477 177.919 151.71C177.505 151.943 177.035 152.06 176.509 152.06ZM176.509 151.22C176.849 151.22 177.152 151.143 177.419 150.99C177.692 150.837 177.905 150.62 178.059 150.34C178.212 150.053 178.289 149.723 178.289 149.35C178.289 148.97 178.212 148.643 178.059 148.37C177.905 148.09 177.692 147.873 177.419 147.72C177.152 147.567 176.849 147.49 176.509 147.49C176.169 147.49 175.865 147.567 175.599 147.72C175.332 147.873 175.119 148.09 174.959 148.37C174.799 148.643 174.719 148.97 174.719 149.35C174.719 149.723 174.799 150.053 174.959 150.34C175.119 150.62 175.332 150.837 175.599 150.99C175.865 151.143 176.169 151.22 176.509 151.22ZM180.645 152V146.7H181.605V148.95H184.625V146.7H185.585V152H184.625V149.78H181.605V152H180.645ZM191.291 152L189.241 149.42L190.031 148.94L192.421 152H191.291ZM187.451 152V146.7H188.411V152H187.451ZM188.121 149.76V148.94H189.871V149.76H188.121ZM190.111 149.46L189.221 149.34L191.251 146.7H192.281L190.111 149.46ZM193.395 154C193.142 154 192.895 153.957 192.655 153.87C192.415 153.79 192.209 153.67 192.035 153.51L192.445 152.79C192.579 152.917 192.725 153.013 192.885 153.08C193.045 153.147 193.215 153.18 193.395 153.18C193.629 153.18 193.822 153.12 193.975 153C194.129 152.88 194.272 152.667 194.405 152.36L194.735 151.63L194.835 151.51L196.915 146.7H197.855L195.285 152.53C195.132 152.903 194.959 153.197 194.765 153.41C194.579 153.623 194.372 153.773 194.145 153.86C193.919 153.953 193.669 154 193.395 154ZM194.655 152.17L192.235 146.7H193.235L195.295 151.42L194.655 152.17ZM201.648 152.06C201.208 152.06 200.805 151.96 200.438 151.76C200.078 151.553 199.788 151.25 199.568 150.85C199.355 150.45 199.248 149.95 199.248 149.35C199.248 148.75 199.352 148.25 199.558 147.85C199.772 147.45 200.058 147.15 200.418 146.95C200.785 146.75 201.195 146.65 201.648 146.65C202.168 146.65 202.628 146.763 203.028 146.99C203.428 147.217 203.745 147.533 203.978 147.94C204.212 148.34 204.328 148.81 204.328 149.35C204.328 149.89 204.212 150.363 203.978 150.77C203.745 151.177 203.428 151.493 203.028 151.72C202.628 151.947 202.168 152.06 201.648 152.06ZM198.838 153.94V146.7H199.758V148.13L199.698 149.36L199.798 150.59V153.94H198.838ZM201.568 151.22C201.908 151.22 202.212 151.143 202.478 150.99C202.752 150.837 202.965 150.62 203.118 150.34C203.278 150.053 203.358 149.723 203.358 149.35C203.358 148.97 203.278 148.643 203.118 148.37C202.965 148.09 202.752 147.873 202.478 147.72C202.212 147.567 201.908 147.49 201.568 147.49C201.235 147.49 200.932 147.567 200.658 147.72C200.392 147.873 200.178 148.09 200.018 148.37C199.865 148.643 199.788 148.97 199.788 149.35C199.788 149.723 199.865 150.053 200.018 150.34C200.178 150.62 200.392 150.837 200.658 150.99C200.932 151.143 201.235 151.22 201.568 151.22ZM208.033 152.06C207.493 152.06 207.01 151.943 206.583 151.71C206.163 151.477 205.833 151.157 205.593 150.75C205.353 150.343 205.233 149.877 205.233 149.35C205.233 148.823 205.353 148.357 205.593 147.95C205.833 147.543 206.163 147.227 206.583 147C207.01 146.767 207.493 146.65 208.033 146.65C208.513 146.65 208.94 146.747 209.313 146.94C209.693 147.127 209.986 147.407 210.193 147.78L209.463 148.25C209.29 147.99 209.076 147.8 208.823 147.68C208.576 147.553 208.31 147.49 208.023 147.49C207.676 147.49 207.366 147.567 207.093 147.72C206.82 147.873 206.603 148.09 206.443 148.37C206.283 148.643 206.203 148.97 206.203 149.35C206.203 149.73 206.283 150.06 206.443 150.34C206.603 150.62 206.82 150.837 207.093 150.99C207.366 151.143 207.676 151.22 208.023 151.22C208.31 151.22 208.576 151.16 208.823 151.04C209.076 150.913 209.29 150.72 209.463 150.46L210.193 150.92C209.986 151.287 209.693 151.57 209.313 151.77C208.94 151.963 208.513 152.06 208.033 152.06ZM216.676 152V146.7H217.636V152H216.676ZM213.826 148.5C214.499 148.507 215.009 148.66 215.356 148.96C215.709 149.26 215.886 149.683 215.886 150.23C215.886 150.803 215.693 151.247 215.306 151.56C214.926 151.867 214.379 152.017 213.666 152.01L211.436 152V146.7H212.396V148.49L213.826 148.5ZM213.596 151.28C214.023 151.287 214.349 151.2 214.576 151.02C214.803 150.84 214.916 150.573 214.916 150.22C214.916 149.873 214.803 149.62 214.576 149.46C214.356 149.3 214.029 149.217 213.596 149.21L212.396 149.19V151.27L213.596 151.28ZM86.55 161.55V157.54H84.25L84.2 158.56C84.1867 158.893 84.1633 159.217 84.13 159.53C84.1033 159.837 84.0567 160.12 83.99 160.38C83.93 160.64 83.84 160.853 83.72 161.02C83.6 161.187 83.44 161.29 83.24 161.33L82.29 161.16C82.4967 161.167 82.6633 161.1 82.79 160.96C82.9167 160.813 83.0133 160.613 83.08 160.36C83.1533 160.107 83.2067 159.82 83.24 159.5C83.2733 159.173 83.3 158.837 83.32 158.49L83.4 156.7H87.51V161.55H86.55ZM82.08 163.23V161.16H88.32V163.23H87.42V162H82.99V163.23H82.08ZM88.6906 161.99L88.7506 161.18C88.7973 161.187 88.8406 161.193 88.8806 161.2C88.9206 161.207 88.9573 161.21 88.9906 161.21C89.204 161.21 89.3706 161.137 89.4906 160.99C89.6173 160.843 89.7106 160.65 89.7706 160.41C89.8306 160.163 89.874 159.887 89.9006 159.58C89.9273 159.273 89.9473 158.967 89.9606 158.66L90.0506 156.7H94.1206V162H93.1606V157.26L93.3906 157.54H90.6706L90.8906 157.25L90.8206 158.72C90.8006 159.187 90.764 159.623 90.7106 160.03C90.6573 160.437 90.574 160.793 90.4606 161.1C90.354 161.407 90.204 161.647 90.0106 161.82C89.824 161.993 89.5806 162.08 89.2806 162.08C89.194 162.08 89.1006 162.07 89.0006 162.05C88.9073 162.037 88.804 162.017 88.6906 161.99ZM99.3669 162V160.14L99.5169 160.32H97.8269C97.1202 160.32 96.5669 160.17 96.1669 159.87C95.7735 159.57 95.5769 159.133 95.5769 158.56C95.5769 157.947 95.7869 157.483 96.2069 157.17C96.6335 156.857 97.2002 156.7 97.9069 156.7H100.227V162H99.3669ZM95.5269 162L96.9669 159.97H97.9569L96.5569 162H95.5269ZM99.3669 159.84V157.27L99.5169 157.54H97.9369C97.4969 157.54 97.1569 157.623 96.9169 157.79C96.6769 157.95 96.5569 158.217 96.5569 158.59C96.5569 159.283 97.0035 159.63 97.8969 159.63H99.5169L99.3669 159.84ZM104.785 162V156.7H109.695V162H108.735V157.3L108.965 157.54H105.515L105.745 157.3V162H104.785ZM113.913 162.06C113.346 162.06 112.846 161.943 112.413 161.71C111.986 161.477 111.653 161.157 111.413 160.75C111.18 160.343 111.063 159.877 111.063 159.35C111.063 158.823 111.176 158.357 111.403 157.95C111.636 157.543 111.953 157.227 112.353 157C112.76 156.767 113.216 156.65 113.723 156.65C114.236 156.65 114.69 156.763 115.083 156.99C115.476 157.217 115.783 157.537 116.003 157.95C116.23 158.357 116.343 158.833 116.343 159.38C116.343 159.42 116.34 159.467 116.333 159.52C116.333 159.573 116.33 159.623 116.323 159.67H111.813V158.98H115.823L115.433 159.22C115.44 158.88 115.37 158.577 115.223 158.31C115.076 158.043 114.873 157.837 114.613 157.69C114.36 157.537 114.063 157.46 113.723 157.46C113.39 157.46 113.093 157.537 112.833 157.69C112.573 157.837 112.37 158.047 112.223 158.32C112.076 158.587 112.003 158.893 112.003 159.24V159.4C112.003 159.753 112.083 160.07 112.243 160.35C112.41 160.623 112.64 160.837 112.933 160.99C113.226 161.143 113.563 161.22 113.943 161.22C114.256 161.22 114.54 161.167 114.793 161.06C115.053 160.953 115.28 160.793 115.473 160.58L116.003 161.2C115.763 161.48 115.463 161.693 115.103 161.84C114.75 161.987 114.353 162.06 113.913 162.06ZM121.364 161.55V157.54H119.064L119.014 158.56C119.001 158.893 118.978 159.217 118.944 159.53C118.918 159.837 118.871 160.12 118.804 160.38C118.744 160.64 118.654 160.853 118.534 161.02C118.414 161.187 118.254 161.29 118.054 161.33L117.104 161.16C117.311 161.167 117.478 161.1 117.604 160.96C117.731 160.813 117.828 160.613 117.894 160.36C117.968 160.107 118.021 159.82 118.054 159.5C118.088 159.173 118.114 158.837 118.134 158.49L118.214 156.7H122.324V161.55H121.364ZM116.894 163.23V161.16H123.134V163.23H122.234V162H117.804V163.23H116.894ZM127.635 162V160.88L127.585 160.67V158.76C127.585 158.353 127.465 158.04 127.225 157.82C126.992 157.593 126.638 157.48 126.165 157.48C125.852 157.48 125.545 157.533 125.245 157.64C124.945 157.74 124.692 157.877 124.485 158.05L124.085 157.33C124.358 157.11 124.685 156.943 125.065 156.83C125.452 156.71 125.855 156.65 126.275 156.65C127.002 156.65 127.562 156.827 127.955 157.18C128.348 157.533 128.545 158.073 128.545 158.8V162H127.635ZM125.895 162.06C125.502 162.06 125.155 161.993 124.855 161.86C124.562 161.727 124.335 161.543 124.175 161.31C124.015 161.07 123.935 160.8 123.935 160.5C123.935 160.213 124.002 159.953 124.135 159.72C124.275 159.487 124.498 159.3 124.805 159.16C125.118 159.02 125.538 158.95 126.065 158.95H127.745V159.64H126.105C125.625 159.64 125.302 159.72 125.135 159.88C124.968 160.04 124.885 160.233 124.885 160.46C124.885 160.72 124.988 160.93 125.195 161.09C125.402 161.243 125.688 161.32 126.055 161.32C126.415 161.32 126.728 161.24 126.995 161.08C127.268 160.92 127.465 160.687 127.585 160.38L127.775 161.04C127.648 161.353 127.425 161.603 127.105 161.79C126.785 161.97 126.382 162.06 125.895 162.06ZM130.274 162V156.7H134.174V157.54H131.004L131.234 157.32V162H130.274ZM137.192 162.06C136.659 162.06 136.186 161.943 135.772 161.71C135.359 161.477 135.032 161.157 134.792 160.75C134.552 160.337 134.432 159.87 134.432 159.35C134.432 158.823 134.552 158.357 134.792 157.95C135.032 157.543 135.359 157.227 135.772 157C136.186 156.767 136.659 156.65 137.192 156.65C137.719 156.65 138.189 156.767 138.602 157C139.022 157.227 139.349 157.543 139.582 157.95C139.822 158.35 139.942 158.817 139.942 159.35C139.942 159.877 139.822 160.343 139.582 160.75C139.349 161.157 139.022 161.477 138.602 161.71C138.189 161.943 137.719 162.06 137.192 162.06ZM137.192 161.22C137.532 161.22 137.836 161.143 138.102 160.99C138.376 160.837 138.589 160.62 138.742 160.34C138.896 160.053 138.972 159.723 138.972 159.35C138.972 158.97 138.896 158.643 138.742 158.37C138.589 158.09 138.376 157.873 138.102 157.72C137.836 157.567 137.532 157.49 137.192 157.49C136.852 157.49 136.549 157.567 136.282 157.72C136.016 157.873 135.802 158.09 135.642 158.37C135.482 158.643 135.402 158.97 135.402 159.35C135.402 159.723 135.482 160.053 135.642 160.34C135.802 160.62 136.016 160.837 136.282 160.99C136.549 161.143 136.852 161.22 137.192 161.22ZM141.328 162V156.7H145.228V157.54H142.058L142.288 157.32V162H141.328ZM148.247 162.06C147.714 162.06 147.24 161.943 146.827 161.71C146.414 161.477 146.087 161.157 145.847 160.75C145.607 160.337 145.487 159.87 145.487 159.35C145.487 158.823 145.607 158.357 145.847 157.95C146.087 157.543 146.414 157.227 146.827 157C147.24 156.767 147.714 156.65 148.247 156.65C148.774 156.65 149.244 156.767 149.657 157C150.077 157.227 150.404 157.543 150.637 157.95C150.877 158.35 150.997 158.817 150.997 159.35C150.997 159.877 150.877 160.343 150.637 160.75C150.404 161.157 150.077 161.477 149.657 161.71C149.244 161.943 148.774 162.06 148.247 162.06ZM148.247 161.22C148.587 161.22 148.89 161.143 149.157 160.99C149.43 160.837 149.644 160.62 149.797 160.34C149.95 160.053 150.027 159.723 150.027 159.35C150.027 158.97 149.95 158.643 149.797 158.37C149.644 158.09 149.43 157.873 149.157 157.72C148.89 157.567 148.587 157.49 148.247 157.49C147.907 157.49 147.604 157.567 147.337 157.72C147.07 157.873 146.857 158.09 146.697 158.37C146.537 158.643 146.457 158.97 146.457 159.35C146.457 159.723 146.537 160.053 146.697 160.34C146.857 160.62 147.07 160.837 147.337 160.99C147.604 161.143 147.907 161.22 148.247 161.22ZM152.383 162V156.7H154.843C155.463 156.7 155.95 156.82 156.303 157.06C156.663 157.293 156.843 157.627 156.843 158.06C156.843 158.493 156.673 158.83 156.333 159.07C156 159.303 155.556 159.42 155.003 159.42L155.153 159.16C155.786 159.16 156.256 159.277 156.563 159.51C156.87 159.743 157.023 160.087 157.023 160.54C157.023 161 156.85 161.36 156.503 161.62C156.163 161.873 155.64 162 154.933 162H152.383ZM153.323 161.26H154.863C155.263 161.26 155.563 161.2 155.763 161.08C155.963 160.953 156.063 160.753 156.063 160.48C156.063 160.2 155.97 159.997 155.783 159.87C155.603 159.737 155.316 159.67 154.923 159.67H153.323V161.26ZM153.323 158.98H154.763C155.13 158.98 155.406 158.913 155.593 158.78C155.786 158.64 155.883 158.447 155.883 158.2C155.883 157.947 155.786 157.757 155.593 157.63C155.406 157.503 155.13 157.44 154.763 157.44H153.323V158.98ZM161.211 162V156.7H162.171V160.56L165.421 156.7H166.291V162H165.331V158.14L162.091 162H161.211ZM174.36 161.16L174.14 161.41V156.7H175.1V161.41L174.86 161.16H177.66L177.43 161.41V156.7H178.39V162H170.84V156.7H171.8V161.41L171.57 161.16H174.36ZM184.094 162L182.044 159.42L182.834 158.94L185.224 162H184.094ZM180.254 162V156.7H181.214V162H180.254ZM180.924 159.76V158.94H182.674V159.76H180.924ZM182.914 159.46L182.024 159.34L184.054 156.7H185.084L182.914 159.46ZM188.325 162.06C187.792 162.06 187.318 161.943 186.905 161.71C186.492 161.477 186.165 161.157 185.925 160.75C185.685 160.337 185.565 159.87 185.565 159.35C185.565 158.823 185.685 158.357 185.925 157.95C186.165 157.543 186.492 157.227 186.905 157C187.318 156.767 187.792 156.65 188.325 156.65C188.852 156.65 189.322 156.767 189.735 157C190.155 157.227 190.482 157.543 190.715 157.95C190.955 158.35 191.075 158.817 191.075 159.35C191.075 159.877 190.955 160.343 190.715 160.75C190.482 161.157 190.155 161.477 189.735 161.71C189.322 161.943 188.852 162.06 188.325 162.06ZM188.325 161.22C188.665 161.22 188.968 161.143 189.235 160.99C189.508 160.837 189.722 160.62 189.875 160.34C190.028 160.053 190.105 159.723 190.105 159.35C190.105 158.97 190.028 158.643 189.875 158.37C189.722 158.09 189.508 157.873 189.235 157.72C188.968 157.567 188.665 157.49 188.325 157.49C187.985 157.49 187.682 157.567 187.415 157.72C187.148 157.873 186.935 158.09 186.775 158.37C186.615 158.643 186.535 158.97 186.535 159.35C186.535 159.723 186.615 160.053 186.775 160.34C186.935 160.62 187.148 160.837 187.415 160.99C187.682 161.143 187.985 161.22 188.325 161.22ZM191.542 161.99L191.602 161.18C191.649 161.187 191.692 161.193 191.732 161.2C191.772 161.207 191.809 161.21 191.842 161.21C192.056 161.21 192.222 161.137 192.342 160.99C192.469 160.843 192.562 160.65 192.622 160.41C192.682 160.163 192.726 159.887 192.752 159.58C192.779 159.273 192.799 158.967 192.812 158.66L192.902 156.7H196.972V162H196.012V157.26L196.242 157.54H193.522L193.742 157.25L193.672 158.72C193.652 159.187 193.616 159.623 193.562 160.03C193.509 160.437 193.426 160.793 193.312 161.1C193.206 161.407 193.056 161.647 192.862 161.82C192.676 161.993 192.432 162.08 192.132 162.08C192.046 162.08 191.952 162.07 191.852 162.05C191.759 162.037 191.656 162.017 191.542 161.99ZM201.278 158.5C201.952 158.507 202.465 158.66 202.818 158.96C203.172 159.26 203.348 159.683 203.348 160.23C203.348 160.803 203.155 161.247 202.768 161.56C202.382 161.867 201.835 162.017 201.128 162.01L198.828 162V156.7H199.788V158.49L201.278 158.5ZM201.048 161.28C201.482 161.287 201.808 161.2 202.028 161.02C202.255 160.84 202.368 160.573 202.368 160.22C202.368 159.873 202.258 159.62 202.038 159.46C201.818 159.3 201.488 159.217 201.048 159.21L199.788 159.19V161.27L201.048 161.28ZM204.58 162V156.7H205.54V158.95H208.56V156.7H209.52V162H208.56V159.78H205.54V162H204.58ZM211.387 162V156.7H212.347V160.56L215.597 156.7H216.467V162H215.507V158.14L212.267 162H211.387ZM222.17 162L220.12 159.42L220.91 158.94L223.3 162H222.17ZM218.33 162V156.7H219.29V162H218.33ZM219 159.76V158.94H220.75V159.76H219ZM220.99 159.46L220.1 159.34L222.13 156.7H223.16L220.99 159.46ZM226.401 162.06C225.868 162.06 225.395 161.943 224.981 161.71C224.568 161.477 224.241 161.157 224.001 160.75C223.761 160.337 223.641 159.87 223.641 159.35C223.641 158.823 223.761 158.357 224.001 157.95C224.241 157.543 224.568 157.227 224.981 157C225.395 156.767 225.868 156.65 226.401 156.65C226.928 156.65 227.398 156.767 227.811 157C228.231 157.227 228.558 157.543 228.791 157.95C229.031 158.35 229.151 158.817 229.151 159.35C229.151 159.877 229.031 160.343 228.791 160.75C228.558 161.157 228.231 161.477 227.811 161.71C227.398 161.943 226.928 162.06 226.401 162.06ZM226.401 161.22C226.741 161.22 227.045 161.143 227.311 160.99C227.585 160.837 227.798 160.62 227.951 160.34C228.105 160.053 228.181 159.723 228.181 159.35C228.181 158.97 228.105 158.643 227.951 158.37C227.798 158.09 227.585 157.873 227.311 157.72C227.045 157.567 226.741 157.49 226.401 157.49C226.061 157.49 225.758 157.567 225.491 157.72C225.225 157.873 225.011 158.09 224.851 158.37C224.691 158.643 224.611 158.97 224.611 159.35C224.611 159.723 224.691 160.053 224.851 160.34C225.011 160.62 225.225 160.837 225.491 160.99C225.758 161.143 226.061 161.22 226.401 161.22ZM230.537 162V156.7H232.997C233.617 156.7 234.104 156.82 234.457 157.06C234.817 157.293 234.997 157.627 234.997 158.06C234.997 158.493 234.827 158.83 234.487 159.07C234.154 159.303 233.711 159.42 233.157 159.42L233.307 159.16C233.941 159.16 234.411 159.277 234.717 159.51C235.024 159.743 235.177 160.087 235.177 160.54C235.177 161 235.004 161.36 234.657 161.62C234.317 161.873 233.794 162 233.087 162H230.537ZM231.477 161.26H233.017C233.417 161.26 233.717 161.2 233.917 161.08C234.117 160.953 234.217 160.753 234.217 160.48C234.217 160.2 234.124 159.997 233.937 159.87C233.757 159.737 233.471 159.67 233.077 159.67H231.477V161.26ZM231.477 158.98H232.917C233.284 158.98 233.561 158.913 233.747 158.78C233.941 158.64 234.037 158.447 234.037 158.2C234.037 157.947 233.941 157.757 233.747 157.63C233.561 157.503 233.284 157.44 232.917 157.44H231.477V158.98Z" fill="black"/>
</g>
<defs>
<clipPath id="clip0_1360_935">
<rect width="595" height="842" fill="white"/>
</clipPath>
<clipPath id="clip1_1360_935">
<rect width="160" height="44" fill="white" transform="translate(82 90)"/>
</clipPath>
</defs>
</svg>
